<?xml version="1.0" encoding="UTF-8"?>
<svg xmlns="http://www.w3.org/2000/svg" xmlns:xlink="http://www.w3.org/1999/xlink" width="159px" height="150px" viewBox="0 0 159 150" version="1.1">
<defs>
<clipPath id="clip1">
  <path d="M 98 54 L 117 54 L 117 84 L 98 84 Z M 98 54 "/>
</clipPath>
<clipPath id="clip2">
  <path d="M 131.890625 51.578125 C 131.890625 80.039062 108.9375 103.117188 80.621094 103.117188 C 52.304688 103.117188 29.351562 80.039062 29.351562 51.578125 C 29.351562 23.113281 52.304688 0.0390625 80.621094 0.0390625 C 108.9375 0.0390625 131.890625 23.113281 131.890625 51.578125 Z M 131.890625 51.578125 "/>
</clipPath>
<clipPath id="clip3">
  <path d="M 82 53 L 117 53 L 117 85 L 82 85 Z M 82 53 "/>
</clipPath>
<clipPath id="clip4">
  <path d="M 131.890625 51.578125 C 131.890625 80.039062 108.9375 103.117188 80.621094 103.117188 C 52.304688 103.117188 29.351562 80.039062 29.351562 51.578125 C 29.351562 23.113281 52.304688 0.0390625 80.621094 0.0390625 C 108.9375 0.0390625 131.890625 23.113281 131.890625 51.578125 Z M 131.890625 51.578125 "/>
</clipPath>
<linearGradient id="linear0" gradientUnits="userSpaceOnUse" x1="1256.78" y1="304.41" x2="1337.43" y2="304.41" gradientTransform="matrix(0.424718,-0.00491813,0.00489262,0.426933,-453.187274,-54.633952)">
<stop offset="0.14" style="stop-color:rgb(21.568627%,58.823529%,25.098039%);stop-opacity:1;"/>
<stop offset="0.6" style="stop-color:rgb(49.019608%,80.392157%,56.862745%);stop-opacity:1;"/>
<stop offset="0.78" style="stop-color:rgb(47.058824%,81.960784%,57.647059%);stop-opacity:1;"/>
</linearGradient>
<clipPath id="clip5">
  <path d="M 29 52 L 117 52 L 117 103 L 29 103 Z M 29 52 "/>
</clipPath>
<clipPath id="clip6">
  <path d="M 131.890625 51.578125 C 131.890625 80.039062 108.9375 103.117188 80.621094 103.117188 C 52.304688 103.117188 29.351562 80.039062 29.351562 51.578125 C 29.351562 23.113281 52.304688 0.0390625 80.621094 0.0390625 C 108.9375 0.0390625 131.890625 23.113281 131.890625 51.578125 Z M 131.890625 51.578125 "/>
</clipPath>
<linearGradient id="linear1" gradientUnits="userSpaceOnUse" x1="1094.06" y1="355.34" x2="1267.37" y2="260.05" gradientTransform="matrix(0.420499,-0.0469657,0.0467221,0.422692,-445.996316,-5.136343)">
<stop offset="0.12" style="stop-color:rgb(14.901961%,44.313725%,38.823529%);stop-opacity:1;"/>
<stop offset="0.72" style="stop-color:rgb(22.745098%,77.254902%,29.803922%);stop-opacity:1;"/>
</linearGradient>
<clipPath id="clip7">
  <path d="M 95 54 L 117 54 L 117 101 L 95 101 Z M 95 54 "/>
</clipPath>
<clipPath id="clip8">
  <path d="M 131.890625 51.578125 C 131.890625 80.039062 108.9375 103.117188 80.621094 103.117188 C 52.304688 103.117188 29.351562 80.039062 29.351562 51.578125 C 29.351562 23.113281 52.304688 0.0390625 80.621094 0.0390625 C 108.9375 0.0390625 131.890625 23.113281 131.890625 51.578125 Z M 131.890625 51.578125 "/>
</clipPath>
<linearGradient id="linear2" gradientUnits="userSpaceOnUse" x1="1127.61" y1="412.55" x2="1299.45" y2="318.06" gradientTransform="matrix(0.420499,-0.0469657,0.0467221,0.422692,-445.996316,-5.136343)">
<stop offset="0.12" style="stop-color:rgb(14.901961%,44.313725%,38.823529%);stop-opacity:1;"/>
<stop offset="0.72" style="stop-color:rgb(22.745098%,77.254902%,29.803922%);stop-opacity:1;"/>
</linearGradient>
<clipPath id="clip9">
  <path d="M 44 52 L 61 52 L 61 81 L 44 81 Z M 44 52 "/>
</clipPath>
<clipPath id="clip10">
  <path d="M 131.890625 51.578125 C 131.890625 80.039062 108.9375 103.117188 80.621094 103.117188 C 52.304688 103.117188 29.351562 80.039062 29.351562 51.578125 C 29.351562 23.113281 52.304688 0.0390625 80.621094 0.0390625 C 108.9375 0.0390625 131.890625 23.113281 131.890625 51.578125 Z M 131.890625 51.578125 "/>
</clipPath>
<clipPath id="clip11">
  <path d="M 51 36 L 70 36 L 70 81 L 51 81 Z M 51 36 "/>
</clipPath>
<clipPath id="clip12">
  <path d="M 131.890625 51.578125 C 131.890625 80.039062 108.9375 103.117188 80.621094 103.117188 C 52.304688 103.117188 29.351562 80.039062 29.351562 51.578125 C 29.351562 23.113281 52.304688 0.0390625 80.621094 0.0390625 C 108.9375 0.0390625 131.890625 23.113281 131.890625 51.578125 Z M 131.890625 51.578125 "/>
</clipPath>
<linearGradient id="linear3" gradientUnits="userSpaceOnUse" x1="1256.78" y1="304.41" x2="1337.43" y2="304.41" gradientTransform="matrix(-0.211152,0.370465,-0.368543,-0.212253,442.360898,-357.059091)">
<stop offset="0.14" style="stop-color:rgb(21.568627%,58.823529%,25.098039%);stop-opacity:1;"/>
<stop offset="0.6" style="stop-color:rgb(49.019608%,80.392157%,56.862745%);stop-opacity:1;"/>
<stop offset="0.78" style="stop-color:rgb(47.058824%,81.960784%,57.647059%);stop-opacity:1;"/>
</linearGradient>
<clipPath id="clip13">
  <path d="M 35 0 L 106 0 L 106 81 L 35 81 Z M 35 0 "/>
</clipPath>
<clipPath id="clip14">
  <path d="M 131.890625 51.578125 C 131.890625 80.039062 108.9375 103.117188 80.621094 103.117188 C 52.304688 103.117188 29.351562 80.039062 29.351562 51.578125 C 29.351562 23.113281 52.304688 0.0390625 80.621094 0.0390625 C 108.9375 0.0390625 131.890625 23.113281 131.890625 51.578125 Z M 131.890625 51.578125 "/>
</clipPath>
<linearGradient id="linear4" gradientUnits="userSpaceOnUse" x1="1094.06" y1="355.34" x2="1267.37" y2="260.05" gradientTransform="matrix(-0.174146,0.388535,-0.386519,-0.175054,396.275907,-375.926506)">
<stop offset="0.12" style="stop-color:rgb(14.901961%,44.313725%,38.823529%);stop-opacity:1;"/>
<stop offset="0.72" style="stop-color:rgb(22.745098%,77.254902%,29.803922%);stop-opacity:1;"/>
</linearGradient>
<clipPath id="clip15">
  <path d="M 30 39 L 61 39 L 61 81 L 30 81 Z M 30 39 "/>
</clipPath>
<clipPath id="clip16">
  <path d="M 131.890625 51.578125 C 131.890625 80.039062 108.9375 103.117188 80.621094 103.117188 C 52.304688 103.117188 29.351562 80.039062 29.351562 51.578125 C 29.351562 23.113281 52.304688 0.0390625 80.621094 0.0390625 C 108.9375 0.0390625 131.890625 23.113281 131.890625 51.578125 Z M 131.890625 51.578125 "/>
</clipPath>
<linearGradient id="linear5" gradientUnits="userSpaceOnUse" x1="1127.61" y1="412.55" x2="1299.45" y2="318.06" gradientTransform="matrix(-0.174146,0.388535,-0.386519,-0.175054,396.275907,-375.926506)">
<stop offset="0.12" style="stop-color:rgb(14.901961%,44.313725%,38.823529%);stop-opacity:1;"/>
<stop offset="0.72" style="stop-color:rgb(22.745098%,77.254902%,29.803922%);stop-opacity:1;"/>
</linearGradient>
<clipPath id="clip17">
  <path d="M 64 19 L 98 19 L 98 26 L 64 26 Z M 64 19 "/>
</clipPath>
<clipPath id="clip18">
  <path d="M 131.890625 51.578125 C 131.890625 80.039062 108.9375 103.117188 80.621094 103.117188 C 52.304688 103.117188 29.351562 80.039062 29.351562 51.578125 C 29.351562 23.113281 52.304688 0.0390625 80.621094 0.0390625 C 108.9375 0.0390625 131.890625 23.113281 131.890625 51.578125 Z M 131.890625 51.578125 "/>
</clipPath>
<clipPath id="clip19">
  <path d="M 64 19 L 108 19 L 108 41 L 64 41 Z M 64 19 "/>
</clipPath>
<clipPath id="clip20">
  <path d="M 131.890625 51.578125 C 131.890625 80.039062 108.9375 103.117188 80.621094 103.117188 C 52.304688 103.117188 29.351562 80.039062 29.351562 51.578125 C 29.351562 23.113281 52.304688 0.0390625 80.621094 0.0390625 C 108.9375 0.0390625 131.890625 23.113281 131.890625 51.578125 Z M 131.890625 51.578125 "/>
</clipPath>
<linearGradient id="linear6" gradientUnits="userSpaceOnUse" x1="1256.78" y1="304.41" x2="1337.43" y2="304.41" gradientTransform="matrix(-0.225116,-0.362917,0.361034,-0.226289,265.462494,566.052317)">
<stop offset="0.14" style="stop-color:rgb(21.568627%,58.823529%,25.098039%);stop-opacity:1;"/>
<stop offset="0.6" style="stop-color:rgb(49.019608%,80.392157%,56.862745%);stop-opacity:1;"/>
<stop offset="0.78" style="stop-color:rgb(47.058824%,81.960784%,57.647059%);stop-opacity:1;"/>
</linearGradient>
<clipPath id="clip21">
  <path d="M 64 17 L 132 17 L 132 96 L 64 96 Z M 64 17 "/>
</clipPath>
<clipPath id="clip22">
  <path d="M 131.890625 51.578125 C 131.890625 80.039062 108.9375 103.117188 80.621094 103.117188 C 52.304688 103.117188 29.351562 80.039062 29.351562 51.578125 C 29.351562 23.113281 52.304688 0.0390625 80.621094 0.0390625 C 108.9375 0.0390625 131.890625 23.113281 131.890625 51.578125 Z M 131.890625 51.578125 "/>
</clipPath>
<linearGradient id="linear7" gradientUnits="userSpaceOnUse" x1="1094.06" y1="355.34" x2="1267.37" y2="260.05" gradientTransform="matrix(-0.257332,-0.339681,0.337919,-0.258674,303.936028,534.329102)">
<stop offset="0.12" style="stop-color:rgb(14.901961%,44.313725%,38.823529%);stop-opacity:1;"/>
<stop offset="0.72" style="stop-color:rgb(22.745098%,77.254902%,29.803922%);stop-opacity:1;"/>
</linearGradient>
<clipPath id="clip23">
  <path d="M 64 9 L 116 9 L 116 24 L 64 24 Z M 64 9 "/>
</clipPath>
<clipPath id="clip24">
  <path d="M 131.890625 51.578125 C 131.890625 80.039062 108.9375 103.117188 80.621094 103.117188 C 52.304688 103.117188 29.351562 80.039062 29.351562 51.578125 C 29.351562 23.113281 52.304688 0.0390625 80.621094 0.0390625 C 108.9375 0.0390625 131.890625 23.113281 131.890625 51.578125 Z M 131.890625 51.578125 "/>
</clipPath>
<linearGradient id="linear8" gradientUnits="userSpaceOnUse" x1="1127.61" y1="412.55" x2="1299.45" y2="318.06" gradientTransform="matrix(-0.257332,-0.339681,0.337919,-0.258674,303.936028,534.329102)">
<stop offset="0.12" style="stop-color:rgb(14.901961%,44.313725%,38.823529%);stop-opacity:1;"/>
<stop offset="0.72" style="stop-color:rgb(22.745098%,77.254902%,29.803922%);stop-opacity:1;"/>
</linearGradient>
</defs>
<g id="surface1">
<path style=" stroke:none;fill-rule:nonzero;fill:rgb(20.784314%,71.372549%,45.882353%);fill-opacity:1;" d="M 15.933594 115.425781 L 7.492188 115.425781 C 6.507812 115.425781 5.820312 115.613281 5.425781 115.996094 C 5.027344 116.382812 4.839844 117.042969 4.839844 117.992188 L 4.839844 121.347656 L 13.613281 121.347656 L 13.273438 125.535156 L 4.839844 125.535156 L 4.839844 135.300781 L 0.164062 135.300781 L 0.164062 116.132812 C 0.164062 114.351562 0.550781 113.09375 1.324219 112.347656 C 2.097656 111.597656 3.429688 111.230469 5.308594 111.230469 L 15.929688 111.230469 Z M 15.933594 115.425781 "/>
<path style=" stroke:none;fill-rule:nonzero;fill:rgb(20.784314%,71.372549%,45.882353%);fill-opacity:1;" d="M 32.875 135.292969 L 29.949219 135.292969 L 28.601562 132.960938 L 23.929688 135.496094 C 21.332031 135.496094 19.582031 134.550781 18.6875 132.65625 C 18.234375 131.710938 17.921875 130.707031 17.761719 129.667969 C 17.59375 128.5625 17.507812 127.441406 17.511719 126.320312 C 17.511719 125.160156 17.511719 124.304688 17.546875 123.757812 C 17.582031 123.210938 17.621094 122.566406 17.710938 121.832031 C 17.78125 121.207031 17.910156 120.59375 18.097656 119.992188 C 18.285156 119.457031 18.527344 118.941406 18.820312 118.457031 C 19.105469 117.953125 19.496094 117.515625 19.964844 117.175781 C 21.136719 116.433594 22.511719 116.066406 23.894531 116.128906 L 28.503906 116.128906 L 32.875 115.855469 Z M 28.503906 129.144531 L 28.503906 120.085938 L 25.175781 120.085938 C 23.941406 120.085938 23.09375 120.558594 22.625 121.503906 C 22.140625 122.453125 21.90625 123.867188 21.90625 125.746094 C 21.90625 127.621094 22.132812 128.949219 22.59375 129.714844 C 23.050781 130.480469 23.917969 130.863281 25.195312 130.863281 Z M 28.503906 129.144531 "/>
<path style=" stroke:none;fill-rule:nonzero;fill:rgb(20.784314%,71.372549%,45.882353%);fill-opacity:1;" d="M 47.800781 116.066406 L 46.597656 120.390625 C 46.234375 120.25 45.847656 120.183594 45.457031 120.191406 C 44.324219 120.191406 42.945312 120.671875 41.320312 121.640625 L 41.320312 135.304688 L 36.949219 135.304688 L 36.949219 115.996094 L 40.210938 115.996094 L 41.21875 117.703125 L 45.859375 115.777344 C 46.082031 115.757812 46.386719 115.746094 46.765625 115.746094 C 47.136719 115.738281 47.5 115.851562 47.800781 116.066406 Z M 47.800781 116.066406 "/>
<path style=" stroke:none;fill-rule:nonzero;fill:rgb(20.784314%,71.372549%,45.882353%);fill-opacity:1;" d="M 75.480469 135.292969 L 71.109375 135.292969 L 71.109375 123.296875 C 71.109375 122.101562 70.96875 121.269531 70.6875 120.796875 C 70.367188 120.304688 69.804688 120.03125 69.222656 120.085938 L 65.289062 121.742188 L 65.289062 135.292969 L 60.917969 135.292969 L 60.917969 123.296875 C 60.917969 121.15625 60.179688 120.085938 58.699219 120.085938 L 55.101562 121.742188 L 55.101562 135.292969 L 50.730469 135.292969 L 50.730469 115.996094 L 53.992188 115.996094 L 55 118.292969 L 60.046875 115.796875 C 61.789062 115.796875 63.113281 116.648438 64.007812 118.359375 L 70.265625 115.796875 C 72.011719 115.796875 73.316406 116.386719 74.183594 117.566406 C 75.046875 118.75 75.472656 120.34375 75.457031 122.351562 Z M 75.480469 135.292969 "/>
<path style=" stroke:none;fill-rule:nonzero;fill:rgb(20.784314%,71.372549%,45.882353%);fill-opacity:1;" d="M 96.644531 128.179688 C 96.644531 130.457031 95.816406 132.242188 94.15625 133.535156 C 92.5 134.832031 90.378906 135.480469 87.785156 135.480469 C 85.695312 135.460938 83.652344 134.871094 81.871094 133.769531 C 80.898438 133.15625 80.101562 132.300781 79.550781 131.285156 C 78.933594 130.167969 78.617188 128.902344 78.640625 127.621094 L 82.890625 127.417969 C 82.859375 128.574219 83.449219 129.660156 84.4375 130.257812 C 85.453125 130.929688 86.648438 131.28125 87.867188 131.269531 C 90.664062 131.269531 92.066406 130.273438 92.066406 128.28125 C 92.066406 126.65625 91.117188 125.699219 89.210938 125.40625 L 85.308594 125 C 83.582031 124.8125 81.960938 124.082031 80.671875 122.910156 C 79.539062 121.804688 78.972656 120.214844 78.972656 118.144531 C 78.945312 116.144531 79.855469 114.246094 81.429688 113.019531 C 83.0625 111.671875 85.128906 110.996094 87.628906 110.996094 C 90.128906 110.996094 92.140625 111.632812 93.664062 112.90625 C 95.148438 114.09375 95.996094 115.914062 95.949219 117.820312 L 91.785156 118.023438 C 91.402344 116.0625 90.089844 115.082031 87.851562 115.082031 C 86.484375 115.082031 85.414062 115.375 84.640625 115.960938 C 83.9375 116.421875 83.503906 117.199219 83.480469 118.042969 C 83.449219 118.773438 83.765625 119.472656 84.328125 119.933594 C 84.929688 120.410156 85.652344 120.707031 86.414062 120.789062 L 90.238281 121.191406 C 94.507812 121.808594 96.644531 124.136719 96.644531 128.179688 Z M 96.644531 128.179688 "/>
<path style=" stroke:none;fill-rule:nonzero;fill:rgb(20.784314%,71.372549%,45.882353%);fill-opacity:1;" d="M 122.964844 115.996094 L 117.621094 135.292969 L 114.023438 135.292969 L 110.363281 123.566406 L 106.695312 135.292969 L 103.089844 135.292969 L 97.714844 115.996094 L 102.351562 115.996094 L 105.175781 128.566406 L 108.097656 118.226562 C 108.433594 116.738281 109.199219 115.996094 110.382812 115.996094 C 110.890625 115.972656 111.378906 116.171875 111.730469 116.539062 C 112.136719 117.027344 112.425781 117.605469 112.578125 118.226562 L 115.550781 128.566406 L 118.378906 115.996094 Z M 122.964844 115.996094 "/>
<path style=" stroke:none;fill-rule:nonzero;fill:rgb(20.784314%,71.372549%,45.882353%);fill-opacity:1;" d="M 138.769531 135.292969 L 135.847656 135.292969 L 134.5 132.960938 L 129.828125 135.496094 C 127.230469 135.496094 125.480469 134.550781 124.582031 132.65625 C 124.128906 131.710938 123.816406 130.703125 123.660156 129.667969 C 123.488281 128.5625 123.402344 127.441406 123.40625 126.320312 C 123.40625 125.160156 123.40625 124.304688 123.441406 123.757812 C 123.472656 123.210938 123.519531 122.566406 123.609375 121.832031 C 123.675781 121.207031 123.804688 120.589844 123.996094 119.992188 C 124.183594 119.457031 124.425781 118.941406 124.71875 118.457031 C 125.003906 117.953125 125.394531 117.515625 125.859375 117.175781 C 127.035156 116.429688 128.40625 116.066406 129.792969 116.128906 L 134.398438 116.128906 L 138.769531 115.855469 Z M 134.398438 129.144531 L 134.398438 120.085938 L 131.074219 120.085938 C 129.839844 120.085938 128.984375 120.558594 128.5 121.503906 C 128.015625 122.449219 127.773438 123.863281 127.777344 125.746094 C 127.777344 127.625 128.007812 128.949219 128.464844 129.714844 C 128.921875 130.484375 129.792969 130.863281 131.074219 130.863281 Z M 134.398438 129.144531 "/>
<path style=" stroke:none;fill-rule:nonzero;fill:rgb(20.784314%,71.372549%,45.882353%);fill-opacity:1;" d="M 158.835938 125.121094 C 158.835938 130.148438 157.546875 133.359375 154.96875 134.753906 C 153.769531 135.351562 152.441406 135.644531 151.105469 135.605469 L 147.875 133.511719 L 147.875 141.046875 L 143.503906 141.046875 L 143.503906 116.132812 L 152.109375 116.132812 C 154.710938 116.132812 156.480469 116.871094 157.425781 118.34375 C 158.367188 119.820312 158.835938 122.078125 158.835938 125.121094 Z M 154.484375 125.796875 C 154.484375 121.988281 153.273438 120.085938 150.851562 120.085938 L 147.878906 120.085938 L 147.878906 129.054688 L 150.851562 130.980469 C 152.152344 130.980469 153.082031 130.566406 153.644531 129.746094 C 154.203125 128.921875 154.484375 127.605469 154.484375 125.796875 Z M 154.484375 125.796875 "/>
<path style=" stroke:none;fill-rule:nonzero;fill:rgb(13.72549%,12.156863%,12.54902%);fill-opacity:1;" d="M 18.09375 141.613281 L 18.09375 149.851562 L 16.546875 149.851562 L 16.546875 144.578125 L 16.625 143.378906 L 16.34375 144.738281 L 14.738281 149.265625 L 13.210938 149.265625 L 11.609375 144.738281 L 11.332031 143.378906 L 11.40625 144.578125 L 11.40625 149.851562 L 9.851562 149.851562 L 9.851562 141.613281 L 12 141.613281 L 13.871094 147.484375 L 13.972656 148.046875 L 14.070312 147.484375 L 15.953125 141.613281 Z M 18.09375 141.613281 "/>
<path style=" stroke:none;fill-rule:nonzero;fill:rgb(13.72549%,12.156863%,12.54902%);fill-opacity:1;" d="M 22.8125 150.003906 C 22.308594 150.011719 21.808594 149.890625 21.359375 149.652344 C 20.949219 149.433594 20.605469 149.097656 20.367188 148.695312 C 20.121094 148.273438 19.996094 147.792969 20.003906 147.304688 C 19.996094 146.816406 20.121094 146.332031 20.367188 145.910156 C 20.605469 145.5 20.949219 145.164062 21.359375 144.9375 C 21.804688 144.691406 22.304688 144.570312 22.8125 144.578125 C 23.316406 144.566406 23.816406 144.691406 24.257812 144.9375 C 24.667969 145.164062 25.007812 145.5 25.238281 145.910156 C 25.480469 146.335938 25.605469 146.816406 25.59375 147.304688 C 25.605469 147.792969 25.480469 148.273438 25.238281 148.695312 C 25.003906 149.097656 24.664062 149.429688 24.257812 149.652344 C 23.8125 149.890625 23.316406 150.011719 22.8125 150.003906 Z M 22.8125 148.683594 C 23.050781 148.691406 23.289062 148.628906 23.492188 148.503906 C 23.675781 148.382812 23.824219 148.214844 23.917969 148.015625 C 24.027344 147.792969 24.078125 147.546875 24.074219 147.300781 C 24.078125 147.050781 24.027344 146.804688 23.917969 146.578125 C 23.75 146.269531 23.460938 146.039062 23.121094 145.945312 C 22.78125 145.851562 22.417969 145.898438 22.113281 146.082031 C 21.917969 146.203125 21.761719 146.375 21.664062 146.578125 C 21.550781 146.804688 21.496094 147.050781 21.5 147.300781 C 21.496094 147.550781 21.550781 147.792969 21.664062 148.015625 C 21.761719 148.21875 21.917969 148.390625 22.113281 148.503906 C 22.324219 148.628906 22.570312 148.683594 22.8125 148.671875 Z M 22.8125 148.683594 "/>
<path style=" stroke:none;fill-rule:nonzero;fill:rgb(13.72549%,12.156863%,12.54902%);fill-opacity:1;" d="M 29.460938 150.003906 C 29.011719 150.011719 28.570312 149.886719 28.1875 149.648438 C 27.820312 149.410156 27.527344 149.074219 27.335938 148.679688 C 26.921875 147.800781 26.921875 146.785156 27.335938 145.90625 C 27.527344 145.511719 27.820312 145.175781 28.1875 144.9375 C 28.566406 144.695312 29.011719 144.570312 29.460938 144.578125 C 29.773438 144.570312 30.085938 144.628906 30.375 144.75 C 30.609375 144.839844 30.828125 144.976562 31.019531 145.144531 C 31.152344 145.257812 31.25 145.40625 31.304688 145.574219 L 31.304688 141.265625 L 32.886719 141.265625 L 32.886719 149.851562 L 31.308594 149.851562 L 31.308594 148.957031 C 31.21875 149.136719 31.097656 149.296875 30.941406 149.421875 C 30.75 149.601562 30.53125 149.746094 30.292969 149.851562 C 30.027344 149.957031 29.746094 150.007812 29.460938 150.003906 Z M 29.886719 148.722656 C 30.136719 148.726562 30.382812 148.664062 30.597656 148.539062 C 30.808594 148.417969 30.980469 148.242188 31.101562 148.027344 C 31.34375 147.554688 31.34375 146.996094 31.101562 146.523438 C 30.855469 146.082031 30.390625 145.808594 29.886719 145.820312 C 29.648438 145.820312 29.417969 145.882812 29.214844 146.007812 C 29.019531 146.140625 28.863281 146.324219 28.761719 146.539062 C 28.515625 147.015625 28.515625 147.582031 28.761719 148.058594 C 28.875 148.269531 29.042969 148.441406 29.25 148.566406 C 29.449219 148.679688 29.675781 148.742188 29.90625 148.742188 Z M 29.886719 148.722656 "/>
<path style=" stroke:none;fill-rule:nonzero;fill:rgb(13.72549%,12.156863%,12.54902%);fill-opacity:1;" d="M 35.8125 147.644531 C 35.820312 147.863281 35.882812 148.078125 35.996094 148.265625 C 36.113281 148.453125 36.285156 148.601562 36.484375 148.695312 C 36.726562 148.804688 36.988281 148.855469 37.25 148.851562 C 37.492188 148.855469 37.734375 148.820312 37.964844 148.75 C 38.148438 148.691406 38.324219 148.609375 38.488281 148.5 C 38.605469 148.421875 38.714844 148.328125 38.804688 148.21875 L 39.453125 149.191406 C 39.324219 149.351562 39.167969 149.488281 38.996094 149.59375 C 38.769531 149.730469 38.519531 149.832031 38.261719 149.890625 C 37.898438 149.96875 37.523438 150.007812 37.152344 150 C 36.644531 150.011719 36.140625 149.898438 35.683594 149.667969 C 35.265625 149.453125 34.921875 149.121094 34.695312 148.710938 C 34.449219 148.253906 34.328125 147.742188 34.339844 147.226562 C 34.335938 146.757812 34.441406 146.292969 34.65625 145.875 C 34.867188 145.476562 35.1875 145.144531 35.578125 144.921875 C 36.023438 144.679688 36.527344 144.558594 37.035156 144.574219 C 37.515625 144.5625 37.992188 144.667969 38.421875 144.878906 C 38.808594 145.082031 39.125 145.398438 39.332031 145.785156 C 39.558594 146.234375 39.671875 146.730469 39.65625 147.234375 C 39.65625 147.265625 39.65625 147.335938 39.65625 147.433594 C 39.660156 147.503906 39.660156 147.570312 39.65625 147.640625 Z M 38.175781 146.660156 C 38.15625 146.328125 37.980469 146.023438 37.699219 145.835938 C 37.503906 145.722656 37.28125 145.664062 37.054688 145.675781 C 36.824219 145.667969 36.59375 145.722656 36.390625 145.832031 C 36.230469 145.925781 36.097656 146.058594 36.007812 146.21875 C 35.925781 146.347656 35.875 146.492188 35.855469 146.644531 Z M 38.175781 146.660156 "/>
<path style=" stroke:none;fill-rule:nonzero;fill:rgb(13.72549%,12.156863%,12.54902%);fill-opacity:1;" d="M 42.808594 149.851562 L 41.234375 149.851562 L 41.234375 144.726562 L 42.808594 144.726562 L 42.808594 145.582031 L 42.777344 145.582031 C 42.828125 145.4375 42.910156 145.308594 43.015625 145.195312 C 43.167969 145.019531 43.351562 144.875 43.558594 144.769531 C 43.820312 144.640625 44.113281 144.578125 44.40625 144.585938 C 44.625 144.582031 44.84375 144.617188 45.046875 144.6875 C 45.199219 144.734375 45.34375 144.800781 45.472656 144.894531 L 44.847656 146.175781 C 44.765625 146.085938 44.664062 146.015625 44.550781 145.96875 C 44.378906 145.894531 44.1875 145.855469 44 145.863281 C 43.765625 145.855469 43.535156 145.929688 43.351562 146.078125 C 43.179688 146.214844 43.042969 146.398438 42.960938 146.601562 C 42.875 146.78125 42.832031 146.980469 42.828125 147.179688 Z M 42.808594 149.851562 "/>
<path style=" stroke:none;fill-rule:nonzero;fill:rgb(13.72549%,12.156863%,12.54902%);fill-opacity:1;" d="M 49.914062 144.578125 C 50.261719 144.578125 50.609375 144.652344 50.929688 144.796875 C 51.265625 144.9375 51.546875 145.175781 51.746094 145.476562 C 51.976562 145.84375 52.085938 146.269531 52.070312 146.699219 L 52.070312 149.851562 L 50.484375 149.851562 L 50.484375 146.964844 C 50.515625 146.625 50.40625 146.285156 50.1875 146.023438 C 49.984375 145.816406 49.703125 145.707031 49.414062 145.722656 C 49.207031 145.722656 49 145.78125 48.824219 145.894531 C 48.632812 146.007812 48.476562 146.171875 48.367188 146.367188 C 48.246094 146.574219 48.183594 146.8125 48.1875 147.054688 L 48.1875 149.835938 L 46.597656 149.835938 L 46.597656 144.714844 L 48.175781 144.714844 L 48.175781 145.535156 C 48.242188 145.367188 48.347656 145.222656 48.484375 145.105469 C 48.667969 144.945312 48.875 144.820312 49.101562 144.730469 C 49.359375 144.625 49.632812 144.574219 49.914062 144.578125 Z M 49.914062 144.578125 "/>
<path style=" stroke:none;fill-rule:nonzero;fill:rgb(13.72549%,12.156863%,12.54902%);fill-opacity:1;" d="M 57.785156 141.613281 L 60.394531 141.613281 C 60.828125 141.609375 61.257812 141.675781 61.667969 141.800781 C 62.042969 141.914062 62.378906 142.128906 62.632812 142.425781 C 62.894531 142.765625 63.027344 143.1875 63.003906 143.617188 C 63.007812 143.929688 62.941406 144.238281 62.8125 144.523438 C 62.691406 144.769531 62.527344 144.992188 62.320312 145.175781 C 62.140625 145.332031 61.921875 145.441406 61.691406 145.496094 C 61.890625 145.519531 62.082031 145.578125 62.265625 145.667969 C 62.464844 145.761719 62.648438 145.890625 62.804688 146.046875 C 62.976562 146.21875 63.113281 146.425781 63.203125 146.65625 C 63.308594 146.929688 63.359375 147.21875 63.355469 147.511719 C 63.363281 147.933594 63.261719 148.351562 63.0625 148.722656 C 62.867188 149.078125 62.570312 149.363281 62.210938 149.546875 C 61.769531 149.757812 61.28125 149.859375 60.789062 149.84375 L 57.796875 149.84375 Z M 59.335938 145.03125 L 60.328125 145.03125 C 60.546875 145.035156 60.769531 144.984375 60.964844 144.878906 C 61.128906 144.777344 61.261719 144.628906 61.347656 144.453125 C 61.433594 144.277344 61.476562 144.085938 61.472656 143.890625 C 61.511719 143.582031 61.382812 143.273438 61.136719 143.082031 C 60.859375 142.925781 60.539062 142.851562 60.222656 142.867188 L 59.339844 142.867188 Z M 59.335938 148.59375 L 60.460938 148.59375 C 60.722656 148.605469 60.984375 148.554688 61.21875 148.441406 C 61.394531 148.347656 61.539062 148.195312 61.621094 148.015625 C 61.710938 147.824219 61.753906 147.613281 61.75 147.402344 C 61.773438 147.082031 61.644531 146.765625 61.402344 146.550781 C 61.117188 146.335938 60.765625 146.234375 60.410156 146.253906 L 59.339844 146.253906 Z M 59.335938 148.59375 "/>
<path style=" stroke:none;fill-rule:nonzero;fill:rgb(13.72549%,12.156863%,12.54902%);fill-opacity:1;" d="M 69.199219 149.851562 L 69.199219 148.957031 C 69.125 149.101562 69.03125 149.234375 68.914062 149.347656 C 68.734375 149.53125 68.527344 149.683594 68.296875 149.800781 C 68.011719 149.941406 67.703125 150.011719 67.386719 150.003906 C 66.9375 150.007812 66.496094 149.886719 66.113281 149.648438 C 65.734375 149.414062 65.425781 149.078125 65.222656 148.679688 C 64.800781 147.804688 64.800781 146.78125 65.222656 145.90625 C 65.425781 145.507812 65.734375 145.171875 66.113281 144.9375 C 66.496094 144.699219 66.9375 144.574219 67.386719 144.578125 C 67.6875 144.570312 67.992188 144.628906 68.269531 144.75 C 68.496094 144.847656 68.703125 144.980469 68.882812 145.148438 C 69.011719 145.269531 69.113281 145.414062 69.183594 145.578125 L 69.183594 144.722656 L 70.746094 144.722656 L 70.746094 149.847656 Z M 66.429688 147.289062 C 66.425781 147.554688 66.492188 147.816406 66.621094 148.046875 C 66.742188 148.261719 66.917969 148.4375 67.132812 148.558594 C 67.339844 148.675781 67.578125 148.738281 67.820312 148.734375 C 68.0625 148.742188 68.304688 148.679688 68.515625 148.550781 C 68.71875 148.429688 68.886719 148.253906 68.996094 148.039062 C 69.234375 147.566406 69.234375 147.011719 68.996094 146.539062 C 68.886719 146.324219 68.71875 146.148438 68.515625 146.019531 C 68.304688 145.894531 68.066406 145.828125 67.820312 145.832031 C 67.328125 145.835938 66.871094 146.101562 66.621094 146.527344 C 66.492188 146.761719 66.425781 147.027344 66.429688 147.292969 Z M 66.429688 147.289062 "/>
<path style=" stroke:none;fill-rule:nonzero;fill:rgb(13.72549%,12.156863%,12.54902%);fill-opacity:1;" d="M 74.136719 149.851562 L 72.558594 149.851562 L 72.558594 144.726562 L 74.136719 144.726562 L 74.136719 145.582031 L 74.105469 145.582031 C 74.160156 145.4375 74.238281 145.308594 74.34375 145.195312 C 74.496094 145.023438 74.679688 144.878906 74.886719 144.769531 C 75.152344 144.640625 75.441406 144.578125 75.738281 144.585938 C 75.953125 144.582031 76.171875 144.617188 76.378906 144.6875 C 76.53125 144.734375 76.671875 144.800781 76.804688 144.894531 L 76.183594 146.175781 C 76.097656 146.085938 75.996094 146.015625 75.882812 145.96875 C 75.707031 145.894531 75.523438 145.855469 75.332031 145.863281 C 75.097656 145.855469 74.867188 145.929688 74.679688 146.078125 C 74.507812 146.214844 74.375 146.398438 74.289062 146.601562 C 74.207031 146.78125 74.160156 146.980469 74.15625 147.179688 Z M 74.136719 149.851562 "/>
<path style=" stroke:none;fill-rule:nonzero;fill:rgb(13.72549%,12.156863%,12.54902%);fill-opacity:1;" d="M 77.667969 144.726562 L 78.585938 144.726562 L 78.585938 142.625 L 80.152344 142.625 L 80.152344 144.726562 L 81.355469 144.726562 L 81.355469 146.046875 L 80.152344 146.046875 L 80.152344 147.898438 C 80.144531 148.097656 80.183594 148.292969 80.273438 148.472656 C 80.347656 148.605469 80.492188 148.683594 80.640625 148.671875 C 80.753906 148.675781 80.863281 148.648438 80.960938 148.59375 C 81.015625 148.566406 81.066406 148.527344 81.109375 148.484375 L 81.667969 149.621094 C 81.59375 149.675781 81.511719 149.71875 81.429688 149.753906 C 81.261719 149.824219 81.089844 149.882812 80.914062 149.921875 C 80.683594 149.976562 80.445312 150.003906 80.210938 150.003906 C 79.785156 150.011719 79.371094 149.859375 79.050781 149.578125 C 78.714844 149.242188 78.542969 148.769531 78.585938 148.296875 L 78.585938 146.019531 L 77.667969 146.019531 Z M 77.667969 144.726562 "/>
<path style=" stroke:none;fill-rule:nonzero;fill:rgb(13.72549%,12.156863%,12.54902%);fill-opacity:1;" d="M 84.257812 147.644531 C 84.265625 147.863281 84.332031 148.078125 84.445312 148.265625 C 84.5625 148.453125 84.730469 148.605469 84.933594 148.695312 C 85.171875 148.804688 85.433594 148.855469 85.695312 148.851562 C 85.9375 148.855469 86.179688 148.820312 86.410156 148.75 C 86.59375 148.695312 86.769531 148.609375 86.929688 148.5 C 87.050781 148.425781 87.160156 148.328125 87.25 148.21875 L 87.902344 149.191406 C 87.769531 149.351562 87.613281 149.488281 87.4375 149.59375 C 87.210938 149.730469 86.964844 149.832031 86.707031 149.890625 C 86.34375 149.96875 85.972656 150.007812 85.597656 150 C 85.089844 150.011719 84.582031 149.898438 84.125 149.667969 C 83.710938 149.453125 83.367188 149.121094 83.140625 148.710938 C 82.894531 148.253906 82.773438 147.742188 82.789062 147.226562 C 82.78125 146.753906 82.886719 146.292969 83.101562 145.875 C 83.3125 145.476562 83.632812 145.144531 84.023438 144.921875 C 84.46875 144.679688 84.972656 144.558594 85.480469 144.574219 C 85.960938 144.5625 86.4375 144.667969 86.871094 144.878906 C 87.253906 145.085938 87.570312 145.398438 87.777344 145.785156 C 88.007812 146.234375 88.117188 146.730469 88.101562 147.234375 C 88.101562 147.265625 88.101562 147.335938 88.101562 147.433594 C 88.109375 147.503906 88.109375 147.570312 88.101562 147.640625 Z M 86.621094 146.660156 C 86.601562 146.328125 86.425781 146.023438 86.148438 145.835938 C 85.949219 145.722656 85.726562 145.664062 85.496094 145.675781 C 85.269531 145.667969 85.039062 145.722656 84.839844 145.832031 C 84.675781 145.925781 84.542969 146.058594 84.449219 146.21875 C 84.371094 146.347656 84.320312 146.492188 84.300781 146.644531 Z M 86.621094 146.660156 "/>
<path style=" stroke:none;fill-rule:nonzero;fill:rgb(13.72549%,12.156863%,12.54902%);fill-opacity:1;" d="M 91.257812 149.851562 L 89.675781 149.851562 L 89.675781 144.726562 L 91.257812 144.726562 L 91.257812 145.582031 L 91.222656 145.582031 C 91.277344 145.4375 91.359375 145.308594 91.464844 145.195312 C 91.617188 145.019531 91.800781 144.875 92.007812 144.769531 C 92.273438 144.640625 92.566406 144.578125 92.859375 144.585938 C 93.078125 144.582031 93.292969 144.617188 93.5 144.6875 C 93.652344 144.730469 93.796875 144.800781 93.925781 144.894531 L 93.304688 146.175781 C 93.222656 146.082031 93.117188 146.011719 93.003906 145.96875 C 92.832031 145.890625 92.644531 145.855469 92.453125 145.863281 C 92.21875 145.855469 91.988281 145.929688 91.804688 146.078125 C 91.632812 146.21875 91.5 146.398438 91.410156 146.601562 C 91.328125 146.78125 91.285156 146.980469 91.28125 147.179688 Z M 91.257812 149.851562 "/>
<path style=" stroke:none;fill-rule:nonzero;fill:rgb(13.72549%,12.156863%,12.54902%);fill-opacity:1;" d="M 101.773438 141.464844 C 102.203125 141.460938 102.632812 141.515625 103.046875 141.628906 C 103.351562 141.714844 103.648438 141.832031 103.925781 141.980469 C 104.0625 142.054688 104.195312 142.136719 104.316406 142.226562 L 103.5625 143.507812 C 103.453125 143.421875 103.339844 143.34375 103.222656 143.273438 C 103.039062 143.167969 102.847656 143.082031 102.648438 143.015625 C 102.414062 142.9375 102.167969 142.898438 101.921875 142.898438 C 101.605469 142.886719 101.292969 142.957031 101.019531 143.113281 C 100.800781 143.242188 100.671875 143.484375 100.683594 143.738281 C 100.679688 143.917969 100.746094 144.089844 100.859375 144.226562 C 101.011719 144.394531 101.191406 144.53125 101.390625 144.628906 C 101.667969 144.773438 101.953125 144.90625 102.242188 145.023438 C 102.535156 145.144531 102.816406 145.285156 103.089844 145.449219 C 103.351562 145.601562 103.597656 145.78125 103.816406 145.992188 C 104.03125 146.199219 104.203125 146.445312 104.328125 146.714844 C 104.457031 147.015625 104.519531 147.335938 104.511719 147.660156 C 104.519531 148.019531 104.4375 148.375 104.277344 148.695312 C 104.113281 148.988281 103.890625 149.242188 103.617188 149.4375 C 103.324219 149.636719 103 149.78125 102.65625 149.863281 C 102.285156 149.96875 101.902344 150.019531 101.519531 150.015625 C 101.03125 150.023438 100.542969 149.957031 100.070312 149.824219 C 99.710938 149.71875 99.363281 149.574219 99.03125 149.398438 C 98.867188 149.316406 98.714844 149.222656 98.566406 149.117188 L 99.359375 147.800781 C 99.449219 147.867188 99.542969 147.925781 99.640625 147.980469 C 99.804688 148.078125 99.976562 148.164062 100.152344 148.238281 C 100.363281 148.328125 100.585938 148.40625 100.808594 148.464844 C 101.046875 148.527344 101.292969 148.558594 101.539062 148.558594 C 101.898438 148.582031 102.257812 148.484375 102.550781 148.273438 C 102.746094 148.117188 102.867188 147.890625 102.890625 147.640625 C 102.914062 147.390625 102.835938 147.140625 102.675781 146.953125 C 102.5 146.757812 102.292969 146.597656 102.0625 146.480469 C 101.757812 146.320312 101.445312 146.179688 101.125 146.054688 C 100.769531 145.90625 100.429688 145.722656 100.109375 145.511719 C 99.804688 145.316406 99.546875 145.058594 99.351562 144.753906 C 99.152344 144.417969 99.054688 144.03125 99.066406 143.636719 C 99.058594 143.226562 99.191406 142.824219 99.4375 142.492188 C 99.695312 142.160156 100.03125 141.902344 100.417969 141.742188 C 100.84375 141.554688 101.308594 141.460938 101.773438 141.464844 Z M 101.773438 141.464844 "/>
<path style=" stroke:none;fill-rule:nonzero;fill:rgb(13.72549%,12.156863%,12.54902%);fill-opacity:1;" d="M 108.867188 150.003906 C 108.359375 150.011719 107.863281 149.890625 107.414062 149.652344 C 107 149.433594 106.65625 149.097656 106.421875 148.695312 C 106.175781 148.273438 106.050781 147.792969 106.058594 147.304688 C 106.050781 146.816406 106.175781 146.332031 106.421875 145.910156 C 106.65625 145.5 107 145.164062 107.414062 144.9375 C 107.859375 144.691406 108.359375 144.570312 108.867188 144.578125 C 109.371094 144.566406 109.871094 144.691406 110.3125 144.9375 C 110.722656 145.164062 111.058594 145.5 111.292969 145.910156 C 111.535156 146.335938 111.65625 146.816406 111.648438 147.304688 C 111.65625 147.792969 111.535156 148.273438 111.292969 148.695312 C 111.058594 149.097656 110.71875 149.429688 110.3125 149.652344 C 109.867188 149.890625 109.371094 150.011719 108.867188 150.003906 Z M 108.867188 148.683594 C 109.105469 148.691406 109.339844 148.628906 109.546875 148.503906 C 109.730469 148.382812 109.878906 148.214844 109.972656 148.015625 C 110.078125 147.792969 110.132812 147.546875 110.128906 147.300781 C 110.132812 147.050781 110.078125 146.804688 109.972656 146.578125 C 109.761719 146.148438 109.320312 145.882812 108.847656 145.898438 C 108.605469 145.890625 108.367188 145.953125 108.160156 146.082031 C 107.976562 146.207031 107.832031 146.378906 107.738281 146.578125 C 107.625 146.804688 107.566406 147.050781 107.570312 147.300781 C 107.566406 147.550781 107.625 147.792969 107.738281 148.015625 C 107.832031 148.214844 107.976562 148.382812 108.160156 148.503906 C 108.375 148.628906 108.621094 148.6875 108.867188 148.671875 Z M 108.867188 148.683594 "/>
<path style=" stroke:none;fill-rule:nonzero;fill:rgb(13.72549%,12.156863%,12.54902%);fill-opacity:1;" d="M 114.917969 149.851562 L 113.335938 149.851562 L 113.335938 141.265625 L 114.917969 141.265625 Z M 114.917969 149.851562 "/>
<path style=" stroke:none;fill-rule:nonzero;fill:rgb(13.72549%,12.156863%,12.54902%);fill-opacity:1;" d="M 118.382812 147.183594 C 118.363281 147.566406 118.457031 147.945312 118.652344 148.273438 C 118.875 148.535156 119.199219 148.6875 119.539062 148.6875 C 119.878906 148.6875 120.203125 148.535156 120.425781 148.273438 C 120.621094 147.945312 120.714844 147.566406 120.695312 147.183594 L 120.695312 144.726562 L 122.25 144.726562 L 122.25 147.363281 C 122.261719 147.84375 122.152344 148.320312 121.933594 148.75 C 121.726562 149.144531 121.402344 149.46875 121.011719 149.675781 C 120.078125 150.113281 119 150.113281 118.066406 149.675781 C 117.671875 149.46875 117.351562 149.144531 117.144531 148.75 C 116.925781 148.320312 116.816406 147.84375 116.828125 147.363281 L 116.828125 144.726562 L 118.382812 144.726562 Z M 118.382812 147.183594 "/>
<path style=" stroke:none;fill-rule:nonzero;fill:rgb(13.72549%,12.156863%,12.54902%);fill-opacity:1;" d="M 123.648438 144.726562 L 124.570312 144.726562 L 124.570312 142.625 L 126.132812 142.625 L 126.132812 144.726562 L 127.339844 144.726562 L 127.339844 146.046875 L 126.132812 146.046875 L 126.132812 147.898438 C 126.121094 148.097656 126.164062 148.292969 126.25 148.472656 C 126.332031 148.601562 126.472656 148.675781 126.625 148.671875 C 126.734375 148.675781 126.84375 148.648438 126.941406 148.59375 C 126.996094 148.566406 127.042969 148.527344 127.089844 148.484375 L 127.648438 149.621094 C 127.574219 149.671875 127.496094 149.71875 127.410156 149.753906 C 127.246094 149.824219 127.070312 149.882812 126.894531 149.921875 C 126.664062 149.976562 126.425781 150.003906 126.1875 150.003906 C 125.761719 150.011719 125.347656 149.859375 125.027344 149.578125 C 124.695312 149.238281 124.527344 148.769531 124.570312 148.296875 L 124.570312 146.019531 L 123.648438 146.019531 Z M 123.648438 144.726562 "/>
<path style=" stroke:none;fill-rule:nonzero;fill:rgb(13.72549%,12.156863%,12.54902%);fill-opacity:1;" d="M 129.960938 143.402344 C 129.710938 143.410156 129.46875 143.3125 129.296875 143.128906 C 129.121094 142.957031 129.023438 142.71875 129.027344 142.472656 C 129.023438 142.222656 129.125 141.984375 129.300781 141.8125 C 129.472656 141.628906 129.710938 141.53125 129.960938 141.535156 C 130.125 141.53125 130.285156 141.574219 130.421875 141.660156 C 130.5625 141.746094 130.679688 141.859375 130.765625 142 C 130.851562 142.140625 130.894531 142.304688 130.894531 142.472656 C 130.898438 142.722656 130.796875 142.960938 130.617188 143.128906 C 130.445312 143.308594 130.207031 143.40625 129.960938 143.402344 Z M 129.152344 149.851562 L 129.152344 144.726562 L 130.722656 144.726562 L 130.722656 149.851562 Z M 129.152344 149.851562 "/>
<path style=" stroke:none;fill-rule:nonzero;fill:rgb(13.72549%,12.156863%,12.54902%);fill-opacity:1;" d="M 135.285156 150.003906 C 134.78125 150.011719 134.285156 149.890625 133.835938 149.652344 C 133.425781 149.429688 133.082031 149.097656 132.839844 148.695312 C 132.597656 148.273438 132.472656 147.792969 132.480469 147.304688 C 132.472656 146.816406 132.597656 146.332031 132.839844 145.910156 C 133.078125 145.5 133.425781 145.164062 133.835938 144.9375 C 134.746094 144.457031 135.828125 144.457031 136.734375 144.9375 C 137.140625 145.167969 137.480469 145.503906 137.714844 145.910156 C 137.953125 146.335938 138.074219 146.816406 138.066406 147.304688 C 138.078125 147.792969 137.953125 148.269531 137.714844 148.695312 C 137.480469 149.097656 137.140625 149.429688 136.734375 149.652344 C 136.289062 149.890625 135.789062 150.011719 135.285156 150.003906 Z M 135.285156 148.683594 C 135.523438 148.691406 135.761719 148.628906 135.964844 148.503906 C 136.152344 148.386719 136.300781 148.214844 136.390625 148.015625 C 136.5 147.792969 136.554688 147.546875 136.550781 147.300781 C 136.554688 147.050781 136.5 146.804688 136.390625 146.578125 C 136.296875 146.375 136.152344 146.203125 135.964844 146.082031 C 135.664062 145.890625 135.296875 145.835938 134.953125 145.929688 C 134.609375 146.027344 134.320312 146.261719 134.15625 146.578125 C 134.046875 146.804688 133.992188 147.050781 133.996094 147.300781 C 133.992188 147.546875 134.046875 147.792969 134.15625 148.015625 C 134.257812 148.21875 134.414062 148.386719 134.605469 148.503906 C 134.8125 148.625 135.046875 148.679688 135.285156 148.671875 Z M 135.285156 148.683594 "/>
<path style=" stroke:none;fill-rule:nonzero;fill:rgb(13.72549%,12.156863%,12.54902%);fill-opacity:1;" d="M 143.015625 144.578125 C 143.367188 144.578125 143.714844 144.652344 144.035156 144.796875 C 144.367188 144.941406 144.652344 145.175781 144.851562 145.476562 C 145.078125 145.84375 145.1875 146.269531 145.171875 146.699219 L 145.171875 149.851562 L 143.585938 149.851562 L 143.585938 146.964844 C 143.613281 146.625 143.507812 146.289062 143.292969 146.023438 C 143.089844 145.816406 142.808594 145.707031 142.519531 145.722656 C 142.308594 145.722656 142.101562 145.78125 141.925781 145.894531 C 141.734375 146.011719 141.578125 146.171875 141.464844 146.367188 C 141.34375 146.574219 141.285156 146.8125 141.289062 147.054688 L 141.289062 149.835938 L 139.710938 149.835938 L 139.710938 144.714844 L 141.289062 144.714844 L 141.289062 145.535156 C 141.355469 145.367188 141.460938 145.222656 141.597656 145.105469 C 141.78125 144.945312 141.988281 144.820312 142.214844 144.730469 C 142.46875 144.628906 142.742188 144.574219 143.015625 144.578125 Z M 143.015625 144.578125 "/>
<g clip-path="url(#clip1)" clip-rule="nonzero">
<g clip-path="url(#clip2)" clip-rule="nonzero">
<path style=" stroke:none;fill-rule:nonzero;fill:rgb(12.941176%,52.941176%,40.392157%);fill-opacity:1;" d="M 116.175781 54.742188 L 116.09375 54.742188 C 114.964844 55.023438 102.890625 58.542969 99.554688 83.027344 C 99.515625 80.113281 99.117188 77.214844 98.363281 74.402344 C 99.011719 72.015625 103.535156 57.207031 116.160156 54.722656 Z M 116.175781 54.742188 "/>
</g>
</g>
<g clip-path="url(#clip3)" clip-rule="nonzero">
<g clip-path="url(#clip4)" clip-rule="nonzero">
<path style=" stroke:none;fill-rule:nonzero;fill:url(#linear0);" d="M 116.175781 54.742188 C 80.265625 52.488281 82.949219 84.351562 82.949219 84.351562 C 81.675781 78.722656 81.511719 71.152344 86.347656 64.015625 C 95.605469 50.25 114.085938 53.792969 116.175781 54.742188 Z M 116.175781 54.742188 "/>
</g>
</g>
<g clip-path="url(#clip5)" clip-rule="nonzero">
<g clip-path="url(#clip6)" clip-rule="nonzero">
<path style=" stroke:none;fill-rule:nonzero;fill:url(#linear1);" d="M 97.671875 72.105469 C 97.933594 72.875 98.164062 73.640625 98.363281 74.398438 C 99.011719 72.011719 103.535156 57.203125 116.160156 54.71875 C 80.265625 52.476562 82.949219 84.328125 82.949219 84.328125 C 84.125 89.542969 84.707031 90.558594 84.707031 90.558594 C 84.707031 90.558594 79.648438 96.445312 59.691406 89.953125 C 36.457031 82.390625 29.363281 52.683594 29.363281 52.683594 C 29.363281 52.683594 28.089844 70.363281 43.050781 86.652344 C 58.628906 103.632812 82.253906 106.828125 92.171875 96.785156 C 100.765625 88.078125 97.671875 72.105469 97.671875 72.105469 Z M 97.671875 72.105469 "/>
</g>
</g>
<g clip-path="url(#clip7)" clip-rule="nonzero">
<g clip-path="url(#clip8)" clip-rule="nonzero">
<path style=" stroke:none;fill-rule:nonzero;fill:url(#linear2);" d="M 116.125 54.742188 L 116.09375 54.742188 C 114.964844 55.023438 102.890625 58.542969 99.554688 83.027344 C 99.660156 89.261719 98.222656 95.421875 95.367188 100.960938 C 95.367188 100.960938 100.464844 99.628906 105.378906 92.359375 C 110.292969 85.09375 105.128906 75.28125 107.035156 66.871094 C 108.945312 58.460938 116.175781 54.742188 116.175781 54.742188 Z M 116.125 54.742188 "/>
</g>
</g>
<g clip-path="url(#clip9)" clip-rule="nonzero">
<g clip-path="url(#clip10)" clip-rule="nonzero">
<path style=" stroke:none;fill-rule:nonzero;fill:rgb(12.941176%,52.941176%,40.392157%);fill-opacity:1;" d="M 59.898438 80.785156 L 59.898438 80.703125 C 60.230469 79.585938 63.328125 67.339844 44.03125 52.035156 C 46.546875 53.472656 49.234375 54.59375 52.027344 55.371094 C 53.746094 57.148438 64.148438 68.574219 59.882812 80.769531 Z M 59.898438 80.785156 "/>
</g>
</g>
<g clip-path="url(#clip11)" clip-rule="nonzero">
<g clip-path="url(#clip12)" clip-rule="nonzero">
<path style=" stroke:none;fill-rule:nonzero;fill:url(#linear3);" d="M 59.898438 80.785156 C 80.039062 50.8125 51.355469 36.984375 51.355469 36.984375 C 56.828125 38.734375 63.402344 42.429688 67.070312 50.21875 C 74.15625 65.238281 61.75 79.453125 59.898438 80.785156 Z M 59.898438 80.785156 "/>
</g>
</g>
<g clip-path="url(#clip13)" clip-rule="nonzero">
<g clip-path="url(#clip14)" clip-rule="nonzero">
<path style=" stroke:none;fill-rule:nonzero;fill:url(#linear4);" d="M 54.375 55.945312 C 53.578125 55.777344 52.808594 55.589844 52.054688 55.382812 C 53.773438 57.15625 64.175781 68.582031 59.90625 80.777344 C 80.03125 50.816406 51.355469 36.992188 51.355469 36.992188 C 46.289062 35.371094 45.125 35.351562 45.125 35.351562 C 45.125 35.351562 42.640625 27.988281 58.328125 14.003906 C 76.589844 -2.292969 105.664062 6.625 105.664062 6.625 C 105.664062 6.625 91.136719 -3.425781 69.59375 1.265625 C 47.132812 6.148438 32.417969 24.996094 36 38.683594 C 39.105469 50.527344 54.375 55.945312 54.375 55.945312 Z M 54.375 55.945312 "/>
</g>
</g>
<g clip-path="url(#clip15)" clip-rule="nonzero">
<g clip-path="url(#clip16)" clip-rule="nonzero">
<path style=" stroke:none;fill-rule:nonzero;fill:url(#linear5);" d="M 59.910156 80.742188 L 59.910156 80.710938 C 60.242188 79.59375 63.34375 67.347656 44.042969 52.042969 C 38.644531 48.972656 34.089844 44.601562 30.789062 39.324219 C 30.789062 39.324219 29.355469 44.402344 33.089844 52.359375 C 36.820312 60.3125 47.875 60.796875 54.113281 66.695312 C 60.351562 72.597656 59.898438 80.785156 59.898438 80.785156 Z M 59.910156 80.742188 "/>
</g>
</g>
<g clip-path="url(#clip17)" clip-rule="nonzero">
<g clip-path="url(#clip18)" clip-rule="nonzero">
<path style=" stroke:none;fill-rule:nonzero;fill:rgb(12.941176%,52.941176%,40.392157%);fill-opacity:1;" d="M 64.953125 19.335938 L 64.992188 19.375 L 64.992188 19.402344 C 65.808594 20.226562 75.039062 28.792969 97.628906 19.050781 C 95.164062 20.589844 92.902344 22.425781 90.890625 24.523438 C 88.523438 25.199219 73.566406 28.9375 64.941406 19.355469 C 64.945312 19.351562 64.949219 19.34375 64.953125 19.335938 Z M 64.953125 19.335938 "/>
</g>
</g>
<g clip-path="url(#clip19)" clip-rule="nonzero">
<g clip-path="url(#clip20)" clip-rule="nonzero">
<path style=" stroke:none;fill-rule:nonzero;fill:url(#linear6);" d="M 64.953125 19.335938 C 81.554688 51.425781 107.328125 32.679688 107.328125 32.679688 C 103.1875 36.675781 96.820312 40.722656 88.253906 40.257812 C 71.757812 39.371094 65.242188 21.613281 64.953125 19.335938 Z M 64.953125 19.335938 "/>
</g>
</g>
<g clip-path="url(#clip21)" clip-rule="nonzero">
<g clip-path="url(#clip22)" clip-rule="nonzero">
<path style=" stroke:none;fill-rule:nonzero;fill:url(#linear7);" d="M 89.316406 26.308594 C 89.839844 25.679688 90.371094 25.085938 90.914062 24.523438 C 88.542969 25.199219 73.585938 28.9375 64.960938 19.355469 C 81.570312 51.417969 107.328125 32.679688 107.328125 32.679688 C 111.152344 28.972656 111.730469 27.949219 111.730469 27.949219 C 111.730469 27.949219 119.375 29.273438 124.121094 49.804688 C 129.640625 73.714844 107.980469 95.152344 107.980469 95.152344 C 107.980469 95.152344 123.695312 87.109375 129.867188 65.835938 C 136.304688 43.664062 126.84375 21.671875 113.164062 18.3125 C 101.332031 15.402344 89.316406 26.308594 89.316406 26.308594 Z M 89.316406 26.308594 "/>
</g>
</g>
<g clip-path="url(#clip23)" clip-rule="nonzero">
<g clip-path="url(#clip24)" clip-rule="nonzero">
<path style=" stroke:none;fill-rule:nonzero;fill:url(#linear8);" d="M 64.992188 19.375 L 64.992188 19.402344 C 65.808594 20.226562 75.039062 28.792969 97.628906 19.050781 C 102.886719 15.746094 108.878906 13.808594 115.066406 13.40625 C 115.066406 13.40625 111.308594 9.714844 102.578125 9.21875 C 93.84375 8.722656 88.136719 18.25 80 20.941406 C 71.867188 23.636719 64.929688 19.335938 64.929688 19.335938 Z M 64.992188 19.375 "/>
</g>
</g>
</g>
</svg>
