<svg width="50" height="50" viewBox="0 0 50 50" fill="none" xmlns="http://www.w3.org/2000/svg">
<g clip-path="url(#clip0_314_34240)">
<path d="M22.3972 44.788C17.5163 44.788 13.5437 40.8153 13.5437 35.9344V6.28906L3.48019 8.59295C0.992829 9.24711 -0.498593 11.8115 0.159387 14.3218L8.7879 46.5376C9.36082 48.621 11.2753 49.9999 13.3293 49.9999C13.7145 49.9999 14.1063 49.9519 14.4938 49.85L35.492 44.788H22.3972Z" fill="#B0BEC5"/>
<path d="M49.9998 5.72882V35.9345C49.9998 39.1008 47.4373 41.6633 44.2709 41.6633H22.3978C20.2522 41.6633 18.3774 40.4759 17.3983 38.7259C16.9398 37.9134 16.6689 36.9552 16.6689 35.9345V5.72882C16.6689 2.56212 19.2314 0 22.3978 0H44.2709C47.4373 0 49.9998 2.56212 49.9998 5.72882Z" fill="#ECEFF1"/>
<path d="M31.2509 14.5821C31.2509 16.8833 29.3856 18.7485 27.0844 18.7485C24.7836 18.7485 22.918 16.8833 22.918 14.5821C22.918 12.2812 24.7836 10.416 27.0844 10.416C29.3856 10.416 31.2509 12.2812 31.2509 14.5821Z" fill="#FFC107"/>
<path d="M49.999 24.8729V35.9346C49.999 39.1009 47.4365 41.6634 44.2701 41.6634H22.397C20.2514 41.6634 18.3766 40.476 17.3975 38.7259L38.0416 18.0817C39.4579 16.6655 41.7912 16.6655 43.2078 18.0817L49.999 24.8729Z" fill="#388E3C"/>
<path d="M43.875 41.6632H22.3978C20.2522 41.6632 18.3774 40.4758 17.3983 38.7258C16.9398 37.9133 16.6689 36.9552 16.6689 35.9344V31.1222L22.4187 25.3728C23.835 23.9561 26.1683 23.9561 27.5849 25.3728L43.875 41.6632Z" fill="#4CAF50"/>
</g>
<defs>
<clipPath id="clip0_314_34240">
<rect width="50" height="50" fill="white"/>
</clipPath>
</defs>
</svg>
