<?xml version="1.0" encoding="UTF-8"?>
<svg xmlns="http://www.w3.org/2000/svg" xmlns:xlink="http://www.w3.org/1999/xlink" width="151px" height="150px" viewBox="0 0 151 150" version="1.1">
<defs>
<clipPath id="clip1">
  <path d="M 101 80 L 128 80 L 128 122 L 101 122 Z M 101 80 "/>
</clipPath>
<clipPath id="clip2">
  <path d="M 150.898438 75.503906 C 150.898438 117.167969 117.125 150.945312 75.464844 150.945312 C 33.800781 150.945312 0.0273438 117.167969 0.0273438 75.503906 C 0.0273438 33.835938 33.800781 0.0585938 75.464844 0.0585938 C 117.125 0.0585938 150.898438 33.835938 150.898438 75.503906 Z M 150.898438 75.503906 "/>
</clipPath>
<clipPath id="clip3">
  <path d="M 77 78 L 128 78 L 128 124 L 77 124 Z M 77 78 "/>
</clipPath>
<clipPath id="clip4">
  <path d="M 150.898438 75.503906 C 150.898438 117.167969 117.125 150.945312 75.464844 150.945312 C 33.800781 150.945312 0.0273438 117.167969 0.0273438 75.503906 C 0.0273438 33.835938 33.800781 0.0585938 75.464844 0.0585938 C 117.125 0.0585938 150.898438 33.835938 150.898438 75.503906 Z M 150.898438 75.503906 "/>
</clipPath>
<linearGradient id="linear0" gradientUnits="userSpaceOnUse" x1="1251.97" y1="432.99" x2="1450.77" y2="432.99" gradientTransform="matrix(0.253502,-0.00292052,0.00292026,0.253524,-241.024105,-4.913627)">
<stop offset="0.14" style="stop-color:rgb(21.568627%,58.823529%,25.098039%);stop-opacity:1;"/>
<stop offset="0.6" style="stop-color:rgb(49.019608%,80.392157%,56.862745%);stop-opacity:1;"/>
<stop offset="0.78" style="stop-color:rgb(47.058824%,81.960784%,57.647059%);stop-opacity:1;"/>
</linearGradient>
<clipPath id="clip5">
  <path d="M 0 77 L 128 77 L 128 150 L 0 150 Z M 0 77 "/>
</clipPath>
<clipPath id="clip6">
  <path d="M 150.898438 75.503906 C 150.898438 117.167969 117.125 150.945312 75.464844 150.945312 C 33.800781 150.945312 0.0273438 117.167969 0.0273438 75.503906 C 0.0273438 33.835938 33.800781 0.0585938 75.464844 0.0585938 C 117.125 0.0585938 150.898438 33.835938 150.898438 75.503906 Z M 150.898438 75.503906 "/>
</clipPath>
<linearGradient id="linear1" gradientUnits="userSpaceOnUse" x1="896.62" y1="552.18" x2="1323.86" y2="317.26" gradientTransform="matrix(0.250983,-0.0278895,0.027887,0.251006,-236.732038,24.479396)">
<stop offset="0.12" style="stop-color:rgb(14.901961%,44.313725%,38.823529%);stop-opacity:1;"/>
<stop offset="0.72" style="stop-color:rgb(22.745098%,77.254902%,29.803922%);stop-opacity:1;"/>
</linearGradient>
<clipPath id="clip7">
  <path d="M 97 80 L 128 80 L 128 148 L 97 148 Z M 97 80 "/>
</clipPath>
<clipPath id="clip8">
  <path d="M 150.898438 75.503906 C 150.898438 117.167969 117.125 150.945312 75.464844 150.945312 C 33.800781 150.945312 0.0273438 117.167969 0.0273438 75.503906 C 0.0273438 33.835938 33.800781 0.0585938 75.464844 0.0585938 C 117.125 0.0585938 150.898438 33.835938 150.898438 75.503906 Z M 150.898438 75.503906 "/>
</clipPath>
<linearGradient id="linear2" gradientUnits="userSpaceOnUse" x1="979.32" y1="693.21" x2="1402.93" y2="460.28" gradientTransform="matrix(0.250983,-0.0278895,0.027887,0.251006,-236.732038,24.479396)">
<stop offset="0.12" style="stop-color:rgb(14.901961%,44.313725%,38.823529%);stop-opacity:1;"/>
<stop offset="0.72" style="stop-color:rgb(22.745098%,77.254902%,29.803922%);stop-opacity:1;"/>
</linearGradient>
<clipPath id="clip9">
  <path d="M 21 76 L 47 76 L 47 119 L 21 119 Z M 21 76 "/>
</clipPath>
<clipPath id="clip10">
  <path d="M 150.898438 75.503906 C 150.898438 117.167969 117.125 150.945312 75.464844 150.945312 C 33.800781 150.945312 0.0273438 117.167969 0.0273438 75.503906 C 0.0273438 33.835938 33.800781 0.0585938 75.464844 0.0585938 C 117.125 0.0585938 150.898438 33.835938 150.898438 75.503906 Z M 150.898438 75.503906 "/>
</clipPath>
<clipPath id="clip11">
  <path d="M 32 54 L 59 54 L 59 119 L 32 119 Z M 32 54 "/>
</clipPath>
<clipPath id="clip12">
  <path d="M 150.898438 75.503906 C 150.898438 117.167969 117.125 150.945312 75.464844 150.945312 C 33.800781 150.945312 0.0273438 117.167969 0.0273438 75.503906 C 0.0273438 33.835938 33.800781 0.0585938 75.464844 0.0585938 C 117.125 0.0585938 150.898438 33.835938 150.898438 75.503906 Z M 150.898438 75.503906 "/>
</clipPath>
<linearGradient id="linear3" gradientUnits="userSpaceOnUse" x1="1324.67" y1="337.96" x2="1523.48" y2="337.96" gradientTransform="matrix(-0.12603,0.219992,-0.219973,-0.126042,293.501771,-184.501876)">
<stop offset="0.14" style="stop-color:rgb(21.568627%,58.823529%,25.098039%);stop-opacity:1;"/>
<stop offset="0.6" style="stop-color:rgb(49.019608%,80.392157%,56.862745%);stop-opacity:1;"/>
<stop offset="0.78" style="stop-color:rgb(47.058824%,81.960784%,57.647059%);stop-opacity:1;"/>
</linearGradient>
<clipPath id="clip13">
  <path d="M 9 0 L 113 0 L 113 119 L 9 119 Z M 9 0 "/>
</clipPath>
<clipPath id="clip14">
  <path d="M 150.898438 75.503906 C 150.898438 117.167969 117.125 150.945312 75.464844 150.945312 C 33.800781 150.945312 0.0273438 117.167969 0.0273438 75.503906 C 0.0273438 33.835938 33.800781 0.0585938 75.464844 0.0585938 C 117.125 0.0585938 150.898438 33.835938 150.898438 75.503906 Z M 150.898438 75.503906 "/>
</clipPath>
<linearGradient id="linear4" gradientUnits="userSpaceOnUse" x1="978.21" y1="464.67" x2="1405.46" y2="229.75" gradientTransform="matrix(-0.103943,0.230722,-0.230702,-0.103952,265.99502,-195.705858)">
<stop offset="0.12" style="stop-color:rgb(14.901961%,44.313725%,38.823529%);stop-opacity:1;"/>
<stop offset="0.72" style="stop-color:rgb(22.745098%,77.254902%,29.803922%);stop-opacity:1;"/>
</linearGradient>
<clipPath id="clip15">
  <path d="M 1 57 L 46 57 L 46 119 L 1 119 Z M 1 57 "/>
</clipPath>
<clipPath id="clip16">
  <path d="M 150.898438 75.503906 C 150.898438 117.167969 117.125 150.945312 75.464844 150.945312 C 33.800781 150.945312 0.0273438 117.167969 0.0273438 75.503906 C 0.0273438 33.835938 33.800781 0.0585938 75.464844 0.0585938 C 117.125 0.0585938 150.898438 33.835938 150.898438 75.503906 Z M 150.898438 75.503906 "/>
</clipPath>
<linearGradient id="linear5" gradientUnits="userSpaceOnUse" x1="1060.92" y1="605.7" x2="1484.53" y2="372.77" gradientTransform="matrix(-0.103943,0.230722,-0.230702,-0.103952,265.99502,-195.705858)">
<stop offset="0.12" style="stop-color:rgb(14.901961%,44.313725%,38.823529%);stop-opacity:1;"/>
<stop offset="0.72" style="stop-color:rgb(22.745098%,77.254902%,29.803922%);stop-opacity:1;"/>
</linearGradient>
<clipPath id="clip17">
  <path d="M 52 27 L 101 27 L 101 38 L 52 38 Z M 52 27 "/>
</clipPath>
<clipPath id="clip18">
  <path d="M 150.898438 75.503906 C 150.898438 117.167969 117.125 150.945312 75.464844 150.945312 C 33.800781 150.945312 0.0273438 117.167969 0.0273438 75.503906 C 0.0273438 33.835938 33.800781 0.0585938 75.464844 0.0585938 C 117.125 0.0585938 150.898438 33.835938 150.898438 75.503906 Z M 150.898438 75.503906 "/>
</clipPath>
<clipPath id="clip19">
  <path d="M 52 28 L 115 28 L 115 59 L 52 59 Z M 52 28 "/>
</clipPath>
<clipPath id="clip20">
  <path d="M 150.898438 75.503906 C 150.898438 117.167969 117.125 150.945312 75.464844 150.945312 C 33.800781 150.945312 0.0273438 117.167969 0.0273438 75.503906 C 0.0273438 33.835938 33.800781 0.0585938 75.464844 0.0585938 C 117.125 0.0585938 150.898438 33.835938 150.898438 75.503906 Z M 150.898438 75.503906 "/>
</clipPath>
<linearGradient id="linear6" gradientUnits="userSpaceOnUse" x1="1207.37" y1="321.59" x2="1406.17" y2="321.59" gradientTransform="matrix(-0.134365,-0.21551,0.215491,-0.134377,187.916413,363.666712)">
<stop offset="0.14" style="stop-color:rgb(21.568627%,58.823529%,25.098039%);stop-opacity:1;"/>
<stop offset="0.6" style="stop-color:rgb(49.019608%,80.392157%,56.862745%);stop-opacity:1;"/>
<stop offset="0.78" style="stop-color:rgb(47.058824%,81.960784%,57.647059%);stop-opacity:1;"/>
</linearGradient>
<clipPath id="clip21">
  <path d="M 52 26 L 151 26 L 151 140 L 52 140 Z M 52 26 "/>
</clipPath>
<clipPath id="clip22">
  <path d="M 150.898438 75.503906 C 150.898438 117.167969 117.125 150.945312 75.464844 150.945312 C 33.800781 150.945312 0.0273438 117.167969 0.0273438 75.503906 C 0.0273438 33.835938 33.800781 0.0585938 75.464844 0.0585938 C 117.125 0.0585938 150.898438 33.835938 150.898438 75.503906 Z M 150.898438 75.503906 "/>
</clipPath>
<linearGradient id="linear7" gradientUnits="userSpaceOnUse" x1="863.05" y1="436.97" x2="1290.3" y2="202.05" gradientTransform="matrix(-0.153594,-0.201712,0.201694,-0.153608,210.880112,344.828606)">
<stop offset="0.12" style="stop-color:rgb(14.901961%,44.313725%,38.823529%);stop-opacity:1;"/>
<stop offset="0.72" style="stop-color:rgb(22.745098%,77.254902%,29.803922%);stop-opacity:1;"/>
</linearGradient>
<clipPath id="clip23">
  <path d="M 52 13 L 127 13 L 127 35 L 52 35 Z M 52 13 "/>
</clipPath>
<clipPath id="clip24">
  <path d="M 150.898438 75.503906 C 150.898438 117.167969 117.125 150.945312 75.464844 150.945312 C 33.800781 150.945312 0.0273438 117.167969 0.0273438 75.503906 C 0.0273438 33.835938 33.800781 0.0585938 75.464844 0.0585938 C 117.125 0.0585938 150.898438 33.835938 150.898438 75.503906 Z M 150.898438 75.503906 "/>
</clipPath>
<linearGradient id="linear8" gradientUnits="userSpaceOnUse" x1="945.76" y1="578" x2="1369.37" y2="345.07" gradientTransform="matrix(-0.153594,-0.201712,0.201694,-0.153608,210.880112,344.828606)">
<stop offset="0.12" style="stop-color:rgb(14.901961%,44.313725%,38.823529%);stop-opacity:1;"/>
<stop offset="0.72" style="stop-color:rgb(22.745098%,77.254902%,29.803922%);stop-opacity:1;"/>
</linearGradient>
</defs>
<g id="surface1">
<g clip-path="url(#clip1)" clip-rule="nonzero">
<g clip-path="url(#clip2)" clip-rule="nonzero">
<path style=" stroke:none;fill-rule:nonzero;fill:rgb(12.941176%,52.941176%,40.392157%);fill-opacity:1;" d="M 127.78125 80.101562 L 127.703125 80.117188 L 127.65625 80.117188 C 126 80.523438 108.234375 85.683594 103.320312 121.523438 C 103.257812 117.257812 102.667969 113.015625 101.5625 108.898438 C 102.519531 105.398438 109.167969 83.722656 127.746094 80.089844 Z M 127.78125 80.101562 "/>
</g>
</g>
<g clip-path="url(#clip3)" clip-rule="nonzero">
<g clip-path="url(#clip4)" clip-rule="nonzero">
<path style=" stroke:none;fill-rule:nonzero;fill:url(#linear0);" d="M 127.78125 80.101562 C 74.9375 76.804688 78.890625 123.457031 78.890625 123.457031 C 77.015625 115.21875 76.773438 104.132812 83.863281 93.6875 C 97.515625 73.558594 124.71875 78.746094 127.78125 80.101562 Z M 127.78125 80.101562 "/>
</g>
</g>
<g clip-path="url(#clip5)" clip-rule="nonzero">
<g clip-path="url(#clip6)" clip-rule="nonzero">
<path style=" stroke:none;fill-rule:nonzero;fill:url(#linear1);" d="M 100.550781 105.550781 C 100.933594 106.679688 101.273438 107.800781 101.5625 108.910156 C 102.519531 105.410156 109.167969 83.734375 127.746094 80.097656 C 74.933594 76.816406 78.882812 123.453125 78.882812 123.453125 C 80.617188 131.089844 81.46875 132.582031 81.46875 132.582031 C 81.46875 132.582031 74.027344 141.203125 44.660156 131.695312 C 10.472656 120.628906 0.0429688 77.136719 0.0429688 77.136719 C 0.0429688 77.136719 -1.785156 103 20.1875 126.84375 C 43.105469 151.691406 77.863281 156.382812 92.460938 141.675781 C 105.105469 128.9375 100.550781 105.550781 100.550781 105.550781 Z M 100.550781 105.550781 "/>
</g>
</g>
<g clip-path="url(#clip7)" clip-rule="nonzero">
<g clip-path="url(#clip8)" clip-rule="nonzero">
<path style=" stroke:none;fill-rule:nonzero;fill:url(#linear2);" d="M 127.703125 80.117188 L 127.65625 80.117188 C 126 80.523438 108.234375 85.683594 103.320312 121.523438 C 103.554688 136.78125 97.15625 147.769531 97.15625 147.769531 C 97.15625 147.769531 104.640625 145.820312 111.890625 135.183594 C 119.136719 124.542969 111.535156 110.195312 114.324219 97.882812 C 117.113281 85.574219 127.761719 80.101562 127.761719 80.101562 Z M 127.703125 80.117188 "/>
</g>
</g>
<g clip-path="url(#clip9)" clip-rule="nonzero">
<g clip-path="url(#clip10)" clip-rule="nonzero">
<path style=" stroke:none;fill-rule:nonzero;fill:rgb(12.941176%,52.941176%,40.392157%);fill-opacity:1;" d="M 44.96875 118.265625 C 44.980469 118.242188 44.988281 118.21875 44.996094 118.191406 C 45 118.179688 45.003906 118.164062 45.011719 118.148438 C 45.5 116.515625 50.0625 98.585938 21.664062 76.179688 C 25.371094 78.292969 29.320312 79.941406 33.433594 81.078125 C 35.96875 83.675781 51.269531 100.40625 44.984375 118.257812 C 44.984375 118.253906 44.976562 118.257812 44.96875 118.265625 Z M 44.96875 118.265625 "/>
</g>
</g>
<g clip-path="url(#clip11)" clip-rule="nonzero">
<g clip-path="url(#clip12)" clip-rule="nonzero">
<path style=" stroke:none;fill-rule:nonzero;fill:url(#linear3);" d="M 44.96875 118.265625 C 74.609375 74.402344 32.40625 54.148438 32.40625 54.148438 C 40.453125 56.710938 50.132812 62.121094 55.539062 73.53125 C 65.953125 95.496094 47.699219 116.304688 44.96875 118.265625 Z M 44.96875 118.265625 "/>
</g>
</g>
<g clip-path="url(#clip13)" clip-rule="nonzero">
<g clip-path="url(#clip14)" clip-rule="nonzero">
<path style=" stroke:none;fill-rule:nonzero;fill:url(#linear4);" d="M 36.847656 81.890625 C 35.675781 81.648438 34.539062 81.382812 33.433594 81.070312 C 35.96875 83.667969 51.269531 100.394531 44.984375 118.246094 C 74.59375 74.382812 32.40625 54.148438 32.40625 54.148438 C 24.945312 51.769531 23.234375 51.753906 23.234375 51.753906 C 23.234375 51.753906 19.582031 40.96875 42.664062 20.476562 C 69.535156 -3.382812 112.3125 9.671875 112.3125 9.671875 C 112.3125 9.671875 90.941406 -5.03125 59.242188 1.8125 C 26.195312 8.960938 4.539062 36.546875 9.804688 56.589844 C 14.378906 73.964844 36.847656 81.890625 36.847656 81.890625 Z M 36.847656 81.890625 "/>
</g>
</g>
<g clip-path="url(#clip15)" clip-rule="nonzero">
<g clip-path="url(#clip16)" clip-rule="nonzero">
<path style=" stroke:none;fill-rule:nonzero;fill:url(#linear5);" d="M 44.996094 118.191406 C 45 118.179688 45.003906 118.164062 45.011719 118.148438 C 45.5 116.515625 50.0625 98.585938 21.664062 76.179688 C 8.390625 68.644531 2.164062 57.5625 2.164062 57.5625 C 2.164062 57.5625 0.0507812 64.996094 5.542969 76.640625 C 11.035156 88.28125 27.277344 88.992188 36.472656 97.660156 C 45.667969 106.324219 44.976562 118.265625 44.976562 118.265625 C 44.984375 118.242188 44.992188 118.21875 44.996094 118.191406 Z M 44.996094 118.191406 "/>
</g>
</g>
<g clip-path="url(#clip17)" clip-rule="nonzero">
<g clip-path="url(#clip18)" clip-rule="nonzero">
<path style=" stroke:none;fill-rule:nonzero;fill:rgb(12.941176%,52.941176%,40.392157%);fill-opacity:1;" d="M 52.414062 28.304688 C 52.429688 28.324219 52.449219 28.34375 52.464844 28.363281 C 52.464844 28.363281 52.488281 28.382812 52.5 28.398438 C 53.703125 29.605469 67.285156 42.167969 100.519531 27.890625 C 96.894531 30.144531 93.566406 32.835938 90.609375 35.910156 C 87.121094 36.894531 65.121094 42.371094 52.425781 28.339844 Z M 52.414062 28.304688 "/>
</g>
</g>
<g clip-path="url(#clip19)" clip-rule="nonzero">
<g clip-path="url(#clip20)" clip-rule="nonzero">
<path style=" stroke:none;fill-rule:nonzero;fill:url(#linear6);" d="M 52.414062 28.304688 C 76.84375 75.28125 114.761719 47.828125 114.761719 47.828125 C 108.675781 53.683594 99.296875 59.609375 86.695312 58.921875 C 62.421875 57.609375 52.835938 31.640625 52.414062 28.304688 Z M 52.414062 28.304688 "/>
</g>
</g>
<g clip-path="url(#clip21)" clip-rule="nonzero">
<g clip-path="url(#clip22)" clip-rule="nonzero">
<path style=" stroke:none;fill-rule:nonzero;fill:url(#linear7);" d="M 88.257812 38.507812 C 89.027344 37.59375 89.8125 36.726562 90.609375 35.902344 C 87.121094 36.886719 65.121094 42.363281 52.425781 28.332031 C 76.859375 75.269531 114.761719 47.832031 114.761719 47.832031 C 120.40625 42.414062 121.242188 40.914062 121.242188 40.914062 C 121.242188 40.914062 132.460938 42.847656 139.464844 72.90625 C 147.621094 107.894531 115.75 139.285156 115.75 139.285156 C 115.75 139.285156 138.871094 127.511719 147.945312 96.375 C 157.417969 63.921875 143.496094 31.71875 123.371094 26.804688 C 105.941406 22.539062 88.257812 38.507812 88.257812 38.507812 Z M 88.257812 38.507812 "/>
</g>
</g>
<g clip-path="url(#clip23)" clip-rule="nonzero">
<g clip-path="url(#clip24)" clip-rule="nonzero">
<path style=" stroke:none;fill-rule:nonzero;fill:url(#linear8);" d="M 52.464844 28.363281 C 52.464844 28.363281 52.488281 28.382812 52.5 28.398438 C 53.703125 29.605469 67.285156 42.167969 100.519531 27.890625 C 113.46875 19.8125 126.179688 19.632812 126.179688 19.632812 C 126.179688 19.632812 120.652344 14.222656 107.800781 13.503906 C 94.945312 12.785156 86.578125 26.71875 74.589844 30.660156 C 62.597656 34.601562 52.417969 28.3125 52.417969 28.3125 C 52.433594 28.332031 52.449219 28.347656 52.464844 28.363281 Z M 52.464844 28.363281 "/>
</g>
</g>
</g>
</svg>
