<?xml version="1.0" encoding="UTF-8"?>
<svg xmlns="http://www.w3.org/2000/svg" xmlns:xlink="http://www.w3.org/1999/xlink" width="300px" height="78px" viewBox="0 0 300 78" version="1.1">
<defs>
<clipPath id="clip1">
  <path d="M 52 41 L 67 41 L 67 64 L 52 64 Z M 52 41 "/>
</clipPath>
<clipPath id="clip2">
  <path d="M 78.464844 39.257812 C 78.464844 60.921875 60.945312 78.488281 39.332031 78.488281 C 17.71875 78.488281 0.199219 60.921875 0.199219 39.257812 C 0.199219 17.59375 17.71875 0.0273438 39.332031 0.0273438 C 60.945312 0.0273438 78.464844 17.59375 78.464844 39.257812 Z M 78.464844 39.257812 "/>
</clipPath>
<clipPath id="clip3">
  <path d="M 40 40 L 67 40 L 67 65 L 40 65 Z M 40 40 "/>
</clipPath>
<clipPath id="clip4">
  <path d="M 78.464844 39.257812 C 78.464844 60.921875 60.945312 78.488281 39.332031 78.488281 C 17.71875 78.488281 0.199219 60.921875 0.199219 39.257812 C 0.199219 17.59375 17.71875 0.0273438 39.332031 0.0273438 C 60.945312 0.0273438 78.464844 17.59375 78.464844 39.257812 Z M 78.464844 39.257812 "/>
</clipPath>
<linearGradient id="linear0" gradientUnits="userSpaceOnUse" x1="145.28" y1="455.21" x2="208.23" y2="455.21" gradientTransform="matrix(0.415306,-0.00479596,0.00478419,0.416328,-22.070639,-136.198142)">
<stop offset="0.14" style="stop-color:rgb(21.568627%,58.823529%,25.098039%);stop-opacity:1;"/>
<stop offset="0.6" style="stop-color:rgb(49.019608%,80.392157%,56.862745%);stop-opacity:1;"/>
<stop offset="0.78" style="stop-color:rgb(47.058824%,81.960784%,57.647059%);stop-opacity:1;"/>
</linearGradient>
<clipPath id="clip5">
  <path d="M 0 40 L 67 40 L 67 78 L 0 78 Z M 0 40 "/>
</clipPath>
<clipPath id="clip6">
  <path d="M 78.464844 39.257812 C 78.464844 60.921875 60.945312 78.488281 39.332031 78.488281 C 17.71875 78.488281 0.199219 60.921875 0.199219 39.257812 C 0.199219 17.59375 17.71875 0.0273438 39.332031 0.0273438 C 60.945312 0.0273438 78.464844 17.59375 78.464844 39.257812 Z M 78.464844 39.257812 "/>
</clipPath>
<linearGradient id="linear1" gradientUnits="userSpaceOnUse" x1="0.14" y1="387.03" x2="135.43" y2="312.64" gradientTransform="matrix(0.41118,-0.0457991,0.0456867,0.412192,-15.039041,-87.930074)">
<stop offset="0.12" style="stop-color:rgb(14.901961%,44.313725%,38.823529%);stop-opacity:1;"/>
<stop offset="0.72" style="stop-color:rgb(22.745098%,77.254902%,29.803922%);stop-opacity:1;"/>
</linearGradient>
<clipPath id="clip7">
  <path d="M 50 41 L 67 41 L 67 77 L 50 77 Z M 50 41 "/>
</clipPath>
<clipPath id="clip8">
  <path d="M 78.464844 39.257812 C 78.464844 60.921875 60.945312 78.488281 39.332031 78.488281 C 17.71875 78.488281 0.199219 60.921875 0.199219 39.257812 C 0.199219 17.59375 17.71875 0.0273438 39.332031 0.0273438 C 60.945312 0.0273438 78.464844 17.59375 78.464844 39.257812 Z M 78.464844 39.257812 "/>
</clipPath>
<linearGradient id="linear2" gradientUnits="userSpaceOnUse" x1="26.33" y1="431.69" x2="160.47" y2="357.93" gradientTransform="matrix(0.41118,-0.0457991,0.0456867,0.412192,-15.039041,-87.930074)">
<stop offset="0.12" style="stop-color:rgb(14.901961%,44.313725%,38.823529%);stop-opacity:1;"/>
<stop offset="0.72" style="stop-color:rgb(22.745098%,77.254902%,29.803922%);stop-opacity:1;"/>
</linearGradient>
<clipPath id="clip9">
  <path d="M 11 39 L 25 39 L 25 62 L 11 62 Z M 11 39 "/>
</clipPath>
<clipPath id="clip10">
  <path d="M 78.464844 39.257812 C 78.464844 60.921875 60.945312 78.488281 39.332031 78.488281 C 17.71875 78.488281 0.199219 60.921875 0.199219 39.257812 C 0.199219 17.59375 17.71875 0.0273438 39.332031 0.0273438 C 60.945312 0.0273438 78.464844 17.59375 78.464844 39.257812 Z M 78.464844 39.257812 "/>
</clipPath>
<clipPath id="clip11">
  <path d="M 16 28 L 31 28 L 31 62 L 16 62 Z M 16 28 "/>
</clipPath>
<clipPath id="clip12">
  <path d="M 78.464844 39.257812 C 78.464844 60.921875 60.945312 78.488281 39.332031 78.488281 C 17.71875 78.488281 0.199219 60.921875 0.199219 39.257812 C 0.199219 17.59375 17.71875 0.0273438 39.332031 0.0273438 C 60.945312 0.0273438 78.464844 17.59375 78.464844 39.257812 Z M 78.464844 39.257812 "/>
</clipPath>
<linearGradient id="linear3" gradientUnits="userSpaceOnUse" x1="1957.16" y1="1171.79" x2="2020.11" y2="1171.79" gradientTransform="matrix(-0.206473,0.361263,-0.360376,-0.206981,853.631211,-431.110921)">
<stop offset="0.14" style="stop-color:rgb(21.568627%,58.823529%,25.098039%);stop-opacity:1;"/>
<stop offset="0.6" style="stop-color:rgb(49.019608%,80.392157%,56.862745%);stop-opacity:1;"/>
<stop offset="0.78" style="stop-color:rgb(47.058824%,81.960784%,57.647059%);stop-opacity:1;"/>
</linearGradient>
<clipPath id="clip13">
  <path d="M 4 0 L 59 0 L 59 62 L 4 62 Z M 4 0 "/>
</clipPath>
<clipPath id="clip14">
  <path d="M 78.464844 39.257812 C 78.464844 60.921875 60.945312 78.488281 39.332031 78.488281 C 17.71875 78.488281 0.199219 60.921875 0.199219 39.257812 C 0.199219 17.59375 17.71875 0.0273438 39.332031 0.0273438 C 60.945312 0.0273438 78.464844 17.59375 78.464844 39.257812 Z M 78.464844 39.257812 "/>
</clipPath>
<linearGradient id="linear4" gradientUnits="userSpaceOnUse" x1="1733.8" y1="1276.3" x2="1869.09" y2="1201.92" gradientTransform="matrix(-0.170287,0.378883,-0.377954,-0.170706,808.567514,-449.509662)">
<stop offset="0.12" style="stop-color:rgb(14.901961%,44.313725%,38.823529%);stop-opacity:1;"/>
<stop offset="0.72" style="stop-color:rgb(22.745098%,77.254902%,29.803922%);stop-opacity:1;"/>
</linearGradient>
<clipPath id="clip15">
  <path d="M 1 29 L 24 29 L 24 62 L 1 62 Z M 1 29 "/>
</clipPath>
<clipPath id="clip16">
  <path d="M 78.464844 39.257812 C 78.464844 60.921875 60.945312 78.488281 39.332031 78.488281 C 17.71875 78.488281 0.199219 60.921875 0.199219 39.257812 C 0.199219 17.59375 17.71875 0.0273438 39.332031 0.0273438 C 60.945312 0.0273438 78.464844 17.59375 78.464844 39.257812 Z M 78.464844 39.257812 "/>
</clipPath>
<linearGradient id="linear5" gradientUnits="userSpaceOnUse" x1="1759.99" y1="1320.96" x2="1894.12" y2="1247.2" gradientTransform="matrix(-0.170287,0.378883,-0.377954,-0.170706,808.567514,-449.509662)">
<stop offset="0.12" style="stop-color:rgb(14.901961%,44.313725%,38.823529%);stop-opacity:1;"/>
<stop offset="0.72" style="stop-color:rgb(22.745098%,77.254902%,29.803922%);stop-opacity:1;"/>
</linearGradient>
<clipPath id="clip17">
  <path d="M 27 14 L 53 14 L 53 20 L 27 20 Z M 27 14 "/>
</clipPath>
<clipPath id="clip18">
  <path d="M 78.464844 39.257812 C 78.464844 60.921875 60.945312 78.488281 39.332031 78.488281 C 17.71875 78.488281 0.199219 60.921875 0.199219 39.257812 C 0.199219 17.59375 17.71875 0.0273438 39.332031 0.0273438 C 60.945312 0.0273438 78.464844 17.59375 78.464844 39.257812 Z M 78.464844 39.257812 "/>
</clipPath>
<clipPath id="clip19">
  <path d="M 27 14 L 60 14 L 60 31 L 27 31 Z M 27 14 "/>
</clipPath>
<clipPath id="clip20">
  <path d="M 78.464844 39.257812 C 78.464844 60.921875 60.945312 78.488281 39.332031 78.488281 C 17.71875 78.488281 0.199219 60.921875 0.199219 39.257812 C 0.199219 17.59375 17.71875 0.0273438 39.332031 0.0273438 C 60.945312 0.0273438 78.464844 17.59375 78.464844 39.257812 Z M 78.464844 39.257812 "/>
</clipPath>
<linearGradient id="linear6" gradientUnits="userSpaceOnUse" x1="1692.23" y1="-738.71" x2="1755.19" y2="-738.71" gradientTransform="matrix(-0.220127,-0.353902,0.353034,-0.220668,680.653068,469.070033)">
<stop offset="0.14" style="stop-color:rgb(21.568627%,58.823529%,25.098039%);stop-opacity:1;"/>
<stop offset="0.6" style="stop-color:rgb(49.019608%,80.392157%,56.862745%);stop-opacity:1;"/>
<stop offset="0.78" style="stop-color:rgb(47.058824%,81.960784%,57.647059%);stop-opacity:1;"/>
</linearGradient>
<clipPath id="clip21">
  <path d="M 27 13 L 79 13 L 79 73 L 27 73 Z M 27 13 "/>
</clipPath>
<clipPath id="clip22">
  <path d="M 78.464844 39.257812 C 78.464844 60.921875 60.945312 78.488281 39.332031 78.488281 C 17.71875 78.488281 0.199219 60.921875 0.199219 39.257812 C 0.199219 17.59375 17.71875 0.0273438 39.332031 0.0273438 C 60.945312 0.0273438 78.464844 17.59375 78.464844 39.257812 Z M 78.464844 39.257812 "/>
</clipPath>
<linearGradient id="linear7" gradientUnits="userSpaceOnUse" x1="1655.8" y1="-650.9" x2="1791.09" y2="-725.29" gradientTransform="matrix(-0.25163,-0.331244,0.330431,-0.252249,718.273987,438.134835)">
<stop offset="0.12" style="stop-color:rgb(14.901961%,44.313725%,38.823529%);stop-opacity:1;"/>
<stop offset="0.72" style="stop-color:rgb(22.745098%,77.254902%,29.803922%);stop-opacity:1;"/>
</linearGradient>
<clipPath id="clip23">
  <path d="M 27 7 L 66 7 L 66 19 L 27 19 Z M 27 7 "/>
</clipPath>
<clipPath id="clip24">
  <path d="M 78.464844 39.257812 C 78.464844 60.921875 60.945312 78.488281 39.332031 78.488281 C 17.71875 78.488281 0.199219 60.921875 0.199219 39.257812 C 0.199219 17.59375 17.71875 0.0273438 39.332031 0.0273438 C 60.945312 0.0273438 78.464844 17.59375 78.464844 39.257812 Z M 78.464844 39.257812 "/>
</clipPath>
<linearGradient id="linear8" gradientUnits="userSpaceOnUse" x1="1681.99" y1="-606.24" x2="1816.13" y2="-680" gradientTransform="matrix(-0.25163,-0.331244,0.330431,-0.252249,718.273987,438.134835)">
<stop offset="0.12" style="stop-color:rgb(14.901961%,44.313725%,38.823529%);stop-opacity:1;"/>
<stop offset="0.72" style="stop-color:rgb(22.745098%,77.254902%,29.803922%);stop-opacity:1;"/>
</linearGradient>
</defs>
<g id="surface1">
<path style=" stroke:none;fill-rule:nonzero;fill:rgb(20.784314%,71.372549%,45.882353%);fill-opacity:1;" d="M 110.78125 17.382812 L 99.617188 17.382812 C 98.3125 17.382812 97.402344 17.632812 96.886719 18.140625 C 96.367188 18.648438 96.109375 19.523438 96.109375 20.769531 L 96.109375 25.179688 L 107.710938 25.179688 L 107.269531 30.710938 L 96.109375 30.710938 L 96.109375 43.59375 L 89.933594 43.59375 L 89.933594 18.339844 C 89.933594 15.992188 90.445312 14.328125 91.46875 13.34375 C 92.492188 12.363281 94.25 11.871094 96.734375 11.871094 L 110.78125 11.871094 Z M 110.78125 17.382812 "/>
<path style=" stroke:none;fill-rule:nonzero;fill:rgb(20.784314%,71.372549%,45.882353%);fill-opacity:1;" d="M 133.195312 43.59375 L 129.324219 43.59375 L 127.546875 40.515625 L 121.363281 43.847656 C 117.925781 43.847656 115.613281 42.597656 114.429688 40.097656 C 113.820312 38.855469 113.398438 37.527344 113.183594 36.15625 C 112.957031 34.695312 112.847656 33.21875 112.851562 31.742188 C 112.851562 30.210938 112.851562 29.082031 112.894531 28.355469 C 112.941406 27.625 112.996094 26.78125 113.117188 25.8125 C 113.207031 24.988281 113.378906 24.175781 113.628906 23.382812 C 113.875 22.675781 114.195312 21.996094 114.582031 21.355469 C 114.964844 20.699219 115.476562 20.132812 116.09375 19.6875 C 117.429688 18.765625 119.167969 18.304688 121.296875 18.308594 L 127.390625 18.308594 L 133.171875 17.949219 Z M 127.410156 35.480469 L 127.410156 23.53125 L 123.007812 23.53125 C 121.378906 23.53125 120.246094 24.15625 119.609375 25.40625 C 118.972656 26.65625 118.652344 28.519531 118.652344 31 C 118.652344 33.484375 118.957031 35.230469 119.5625 36.238281 C 120.167969 37.246094 121.320312 37.753906 123.007812 37.753906 Z M 127.410156 35.480469 "/>
<path style=" stroke:none;fill-rule:nonzero;fill:rgb(20.784314%,71.372549%,45.882353%);fill-opacity:1;" d="M 152.933594 18.226562 L 151.335938 23.9375 C 150.851562 23.75 150.339844 23.65625 149.824219 23.664062 C 148.34375 23.664062 146.519531 24.304688 144.355469 25.585938 L 144.355469 43.59375 L 138.570312 43.59375 L 138.570312 18.140625 L 142.886719 18.140625 L 144.21875 20.367188 L 150.355469 17.828125 C 150.652344 17.800781 151.054688 17.78125 151.554688 17.78125 C 152.050781 17.78125 152.535156 17.9375 152.933594 18.226562 Z M 152.933594 18.226562 "/>
<path style=" stroke:none;fill-rule:nonzero;fill:rgb(20.784314%,71.372549%,45.882353%);fill-opacity:1;" d="M 189.535156 43.59375 L 183.753906 43.59375 L 183.753906 27.769531 C 183.753906 26.195312 183.566406 25.097656 183.195312 24.472656 C 182.824219 23.847656 182.179688 23.535156 181.261719 23.535156 L 176.058594 25.722656 L 176.058594 43.597656 L 170.277344 43.597656 L 170.277344 27.773438 C 170.277344 24.953125 169.300781 23.539062 167.34375 23.539062 L 162.585938 25.726562 L 162.585938 43.601562 L 156.800781 43.601562 L 156.800781 18.140625 L 161.113281 18.140625 L 162.449219 21.171875 L 169.121094 17.875 C 171.429688 17.875 173.175781 19.003906 174.367188 21.257812 L 182.636719 17.875 C 184.945312 17.875 186.675781 18.652344 187.816406 20.214844 C 188.960938 21.773438 189.53125 23.875 189.53125 26.523438 Z M 189.535156 43.59375 "/>
<path style=" stroke:none;fill-rule:nonzero;fill:rgb(20.784314%,71.372549%,45.882353%);fill-opacity:1;" d="M 217.546875 34.234375 C 217.546875 37.234375 216.453125 39.59375 214.257812 41.3125 C 212.066406 43.027344 209.261719 43.882812 205.851562 43.871094 C 203.089844 43.855469 200.386719 43.085938 198.027344 41.644531 C 196.742188 40.832031 195.6875 39.703125 194.957031 38.367188 C 194.140625 36.886719 193.730469 35.214844 193.765625 33.519531 L 199.367188 33.25 C 199.324219 34.777344 200.105469 36.210938 201.410156 36.996094 C 202.757812 37.878906 204.335938 38.339844 205.945312 38.324219 C 209.648438 38.324219 211.5 37.019531 211.5 34.402344 C 211.5 32.261719 210.242188 31 207.722656 30.613281 L 202.5625 30.078125 C 199.984375 29.695312 197.9375 28.773438 196.425781 27.3125 C 194.910156 25.851562 194.152344 23.757812 194.15625 21.03125 C 194.113281 18.382812 195.316406 15.875 197.402344 14.25 C 199.570312 12.46875 202.304688 11.578125 205.605469 11.578125 C 208.910156 11.578125 211.570312 12.417969 213.589844 14.097656 C 215.554688 15.667969 216.671875 18.074219 216.609375 20.59375 L 211.097656 20.859375 C 210.589844 18.273438 208.855469 16.980469 205.894531 16.980469 C 204.082031 16.980469 202.671875 17.367188 201.644531 18.140625 C 200.617188 18.914062 200.113281 19.828125 200.113281 20.878906 C 200.070312 21.84375 200.480469 22.769531 201.226562 23.378906 C 202.019531 24.007812 202.972656 24.402344 203.980469 24.515625 L 209.050781 25.046875 C 214.714844 25.824219 217.546875 28.882812 217.546875 34.234375 Z M 217.546875 34.234375 "/>
<path style=" stroke:none;fill-rule:nonzero;fill:rgb(20.784314%,71.372549%,45.882353%);fill-opacity:1;" d="M 252.363281 18.140625 L 245.304688 43.59375 L 240.535156 43.59375 L 235.691406 28.125 L 230.84375 43.59375 L 226.082031 43.59375 L 218.96875 18.140625 L 225.105469 18.140625 L 228.84375 34.722656 L 232.714844 21.078125 C 233.160156 19.121094 234.167969 18.140625 235.738281 18.140625 C 236.40625 18.109375 237.054688 18.371094 237.515625 18.851562 C 238.050781 19.5 238.429688 20.261719 238.628906 21.078125 L 242.542969 34.722656 L 246.28125 18.140625 Z M 252.363281 18.140625 "/>
<path style=" stroke:none;fill-rule:nonzero;fill:rgb(20.784314%,71.372549%,45.882353%);fill-opacity:1;" d="M 273.265625 43.59375 L 269.398438 43.59375 L 267.617188 40.515625 L 261.4375 43.847656 C 257.996094 43.847656 255.683594 42.597656 254.5 40.097656 C 253.890625 38.855469 253.46875 37.527344 253.253906 36.15625 C 253.03125 34.695312 252.917969 33.21875 252.921875 31.742188 C 252.921875 30.210938 252.9375 29.082031 252.96875 28.355469 C 252.996094 27.625 253.070312 26.78125 253.1875 25.8125 C 253.277344 24.988281 253.449219 24.175781 253.699219 23.382812 C 253.949219 22.675781 254.269531 21.996094 254.65625 21.355469 C 255.035156 20.699219 255.550781 20.128906 256.167969 19.6875 C 257.503906 18.765625 259.238281 18.304688 261.371094 18.308594 L 267.460938 18.308594 L 273.242188 17.949219 Z M 267.484375 35.480469 L 267.484375 23.53125 L 263.082031 23.53125 C 261.453125 23.53125 260.320312 24.15625 259.679688 25.40625 C 259.039062 26.65625 258.722656 28.519531 258.722656 31 C 258.722656 33.484375 259.027344 35.230469 259.632812 36.238281 C 260.242188 37.246094 261.390625 37.753906 263.082031 37.753906 Z M 267.484375 35.480469 "/>
<path style=" stroke:none;fill-rule:nonzero;fill:rgb(20.784314%,71.372549%,45.882353%);fill-opacity:1;" d="M 299.8125 30.175781 C 299.8125 36.800781 298.109375 41.035156 294.699219 42.878906 C 293.113281 43.667969 291.355469 44.050781 289.582031 43.996094 L 285.3125 41.238281 L 285.3125 51.179688 L 279.535156 51.179688 L 279.535156 18.339844 L 290.917969 18.339844 C 294.355469 18.339844 296.699219 19.3125 297.945312 21.253906 C 299.191406 23.199219 299.8125 26.171875 299.8125 30.175781 Z M 294.03125 31.070312 C 294.03125 26.042969 292.429688 23.53125 289.230469 23.53125 L 285.3125 23.53125 L 285.3125 35.34375 L 289.230469 37.886719 C 290.949219 37.886719 292.179688 37.34375 292.917969 36.261719 C 293.65625 35.175781 294.027344 33.445312 294.03125 31.070312 Z M 294.03125 31.070312 "/>
<path style=" stroke:none;fill-rule:nonzero;fill:rgb(13.72549%,12.156863%,12.54902%);fill-opacity:1;" d="M 113.644531 51.933594 L 113.644531 62.804688 L 111.601562 62.804688 L 111.601562 55.839844 L 111.695312 54.261719 L 111.328125 56.058594 L 109.199219 62.027344 L 107.179688 62.027344 L 105.058594 56.058594 L 104.699219 54.261719 L 104.789062 55.839844 L 104.789062 62.804688 L 102.738281 62.804688 L 102.738281 51.933594 L 105.578125 51.933594 L 108.070312 59.679688 L 108.203125 60.421875 L 108.335938 59.679688 L 110.828125 51.933594 Z M 113.644531 51.933594 "/>
<path style=" stroke:none;fill-rule:nonzero;fill:rgb(13.72549%,12.156863%,12.54902%);fill-opacity:1;" d="M 119.835938 63 C 119.167969 63.011719 118.507812 62.851562 117.917969 62.535156 C 117.375 62.246094 116.917969 61.816406 116.601562 61.289062 C 115.960938 60.148438 115.960938 58.753906 116.601562 57.617188 C 116.917969 57.074219 117.371094 56.628906 117.917969 56.328125 C 118.503906 56.007812 119.167969 55.84375 119.835938 55.855469 C 120.503906 55.839844 121.164062 56.003906 121.75 56.328125 C 122.289062 56.632812 122.738281 57.078125 123.046875 57.617188 C 123.671875 58.757812 123.671875 60.144531 123.046875 61.289062 C 122.734375 61.8125 122.289062 62.246094 121.75 62.535156 C 121.164062 62.851562 120.503906 63.011719 119.835938 63 Z M 119.835938 61.261719 C 120.152344 61.269531 120.464844 61.1875 120.738281 61.023438 C 120.992188 60.871094 121.199219 60.644531 121.328125 60.375 C 121.472656 60.082031 121.542969 59.761719 121.539062 59.433594 C 121.542969 59.105469 121.472656 58.78125 121.328125 58.484375 C 121.195312 58.214844 120.992188 57.984375 120.738281 57.824219 C 120.464844 57.660156 120.152344 57.574219 119.835938 57.582031 C 119.519531 57.574219 119.207031 57.65625 118.9375 57.824219 C 118.683594 57.984375 118.476562 58.214844 118.339844 58.484375 C 118.195312 58.78125 118.125 59.105469 118.128906 59.433594 C 118.125 59.761719 118.195312 60.082031 118.339844 60.375 C 118.476562 60.644531 118.683594 60.871094 118.9375 61.023438 C 119.210938 61.1875 119.519531 61.269531 119.835938 61.261719 Z M 119.835938 61.261719 "/>
<path style=" stroke:none;fill-rule:nonzero;fill:rgb(13.72549%,12.156863%,12.54902%);fill-opacity:1;" d="M 128.675781 63 C 128.078125 63.011719 127.492188 62.851562 126.988281 62.53125 C 126.5 62.222656 126.105469 61.78125 125.855469 61.257812 C 125.3125 60.097656 125.3125 58.753906 125.855469 57.59375 C 126.109375 57.070312 126.5 56.628906 126.988281 56.3125 C 127.492188 55.992188 128.078125 55.828125 128.675781 55.839844 C 129.089844 55.832031 129.503906 55.910156 129.886719 56.066406 C 130.199219 56.1875 130.488281 56.367188 130.738281 56.589844 C 130.910156 56.738281 131.039062 56.925781 131.117188 57.136719 L 131.117188 51.46875 L 133.195312 51.46875 L 133.195312 62.804688 L 131.117188 62.804688 L 131.117188 61.640625 C 130.996094 61.875 130.832031 62.082031 130.632812 62.25 C 130.375 62.476562 130.082031 62.660156 129.765625 62.792969 C 129.421875 62.933594 129.046875 63.003906 128.675781 63 Z M 129.269531 61.332031 C 129.597656 61.339844 129.925781 61.253906 130.210938 61.09375 C 130.488281 60.929688 130.714844 60.699219 130.871094 60.417969 C 131.199219 59.796875 131.199219 59.054688 130.871094 58.429688 C 130.714844 58.152344 130.488281 57.917969 130.210938 57.753906 C 129.925781 57.585938 129.597656 57.503906 129.269531 57.507812 C 128.957031 57.503906 128.648438 57.585938 128.378906 57.75 C 128.109375 57.914062 127.886719 58.144531 127.734375 58.421875 C 127.570312 58.730469 127.484375 59.078125 127.492188 59.425781 C 127.484375 59.773438 127.570312 60.121094 127.734375 60.425781 C 127.886719 60.703125 128.109375 60.933594 128.378906 61.097656 C 128.648438 61.253906 128.957031 61.335938 129.269531 61.332031 Z M 129.269531 61.332031 "/>
<path style=" stroke:none;fill-rule:nonzero;fill:rgb(13.72549%,12.156863%,12.54902%);fill-opacity:1;" d="M 137.078125 59.882812 C 137.085938 60.179688 137.171875 60.464844 137.324219 60.71875 C 137.480469 60.964844 137.703125 61.164062 137.96875 61.289062 C 138.289062 61.433594 138.632812 61.5 138.984375 61.492188 C 139.300781 61.5 139.621094 61.453125 139.925781 61.359375 C 140.171875 61.28125 140.402344 61.171875 140.617188 61.035156 C 140.769531 60.929688 140.910156 60.804688 141.03125 60.660156 L 141.890625 61.945312 C 141.71875 62.15625 141.511719 62.332031 141.28125 62.472656 C 140.980469 62.65625 140.652344 62.785156 140.3125 62.859375 C 139.832031 62.96875 139.339844 63.015625 138.847656 63.007812 C 138.171875 63.027344 137.503906 62.886719 136.898438 62.589844 C 136.351562 62.308594 135.894531 61.875 135.589844 61.339844 C 135.265625 60.738281 135.105469 60.0625 135.125 59.378906 C 135.113281 58.761719 135.253906 58.148438 135.539062 57.597656 C 135.816406 57.074219 136.238281 56.640625 136.757812 56.347656 C 137.347656 56.027344 138.011719 55.867188 138.683594 55.886719 C 139.320312 55.875 139.949219 56.019531 140.519531 56.304688 C 141.03125 56.570312 141.449219 56.988281 141.722656 57.496094 C 142.019531 58.085938 142.164062 58.742188 142.140625 59.40625 C 142.140625 59.445312 142.140625 59.539062 142.140625 59.671875 C 142.140625 59.761719 142.132812 59.851562 142.117188 59.9375 Z M 140.207031 58.59375 C 140.195312 58.394531 140.140625 58.199219 140.046875 58.023438 C 139.9375 57.8125 139.777344 57.636719 139.578125 57.507812 C 139.320312 57.351562 139.023438 57.277344 138.722656 57.289062 C 138.414062 57.277344 138.113281 57.351562 137.84375 57.5 C 137.632812 57.621094 137.457031 57.796875 137.335938 58.007812 C 137.226562 58.183594 137.15625 58.386719 137.136719 58.59375 Z M 140.207031 58.59375 "/>
<path style=" stroke:none;fill-rule:nonzero;fill:rgb(13.72549%,12.156863%,12.54902%);fill-opacity:1;" d="M 146.335938 62.804688 L 144.257812 62.804688 L 144.257812 56.042969 L 146.335938 56.042969 L 146.335938 57.136719 L 146.292969 57.136719 C 146.363281 56.949219 146.472656 56.777344 146.609375 56.632812 C 146.8125 56.410156 147.058594 56.222656 147.328125 56.085938 C 147.671875 55.914062 148.050781 55.832031 148.4375 55.839844 C 148.726562 55.835938 149.015625 55.882812 149.289062 55.980469 C 149.484375 56.039062 149.667969 56.128906 149.835938 56.246094 L 149.003906 57.960938 C 148.886719 57.839844 148.746094 57.746094 148.589844 57.6875 C 148.359375 57.585938 148.113281 57.539062 147.863281 57.546875 C 147.550781 57.539062 147.246094 57.640625 147 57.832031 C 146.773438 58.015625 146.597656 58.253906 146.484375 58.523438 C 146.375 58.761719 146.316406 59.023438 146.308594 59.285156 Z M 146.335938 62.804688 "/>
<path style=" stroke:none;fill-rule:nonzero;fill:rgb(13.72549%,12.156863%,12.54902%);fill-opacity:1;" d="M 155.734375 55.839844 C 156.195312 55.84375 156.65625 55.941406 157.078125 56.128906 C 157.519531 56.320312 157.894531 56.632812 158.160156 57.027344 C 158.457031 57.511719 158.601562 58.074219 158.574219 58.644531 L 158.574219 62.808594 L 156.476562 62.808594 L 156.476562 59.011719 C 156.515625 58.558594 156.378906 58.109375 156.089844 57.761719 C 155.820312 57.484375 155.449219 57.332031 155.066406 57.34375 C 154.785156 57.34375 154.515625 57.425781 154.28125 57.574219 C 154.027344 57.726562 153.820312 57.941406 153.671875 58.199219 C 153.515625 58.472656 153.4375 58.789062 153.441406 59.105469 L 153.441406 62.78125 L 151.363281 62.78125 L 151.363281 56.042969 L 153.441406 56.042969 L 153.441406 57.121094 C 153.527344 56.894531 153.671875 56.695312 153.855469 56.542969 C 154.09375 56.328125 154.367188 56.160156 154.667969 56.046875 C 155.003906 55.910156 155.367188 55.839844 155.734375 55.839844 Z M 155.734375 55.839844 "/>
<path style=" stroke:none;fill-rule:nonzero;fill:rgb(13.72549%,12.156863%,12.54902%);fill-opacity:1;" d="M 166.144531 51.933594 L 169.597656 51.933594 C 170.171875 51.929688 170.746094 52.011719 171.296875 52.175781 C 171.792969 52.328125 172.238281 52.617188 172.574219 53.011719 C 172.921875 53.460938 173.09375 54.019531 173.0625 54.585938 C 173.070312 54.996094 172.980469 55.40625 172.808594 55.777344 C 172.65625 56.109375 172.441406 56.40625 172.167969 56.644531 C 171.933594 56.851562 171.644531 56.996094 171.335938 57.0625 C 171.597656 57.097656 171.855469 57.171875 172.09375 57.28125 C 172.355469 57.410156 172.597656 57.582031 172.808594 57.785156 C 173.039062 58.015625 173.21875 58.292969 173.339844 58.59375 C 173.480469 58.957031 173.546875 59.34375 173.539062 59.730469 C 173.550781 60.289062 173.414062 60.84375 173.148438 61.332031 C 172.882812 61.800781 172.480469 62.179688 172 62.421875 C 171.410156 62.699219 170.761719 62.832031 170.113281 62.8125 L 166.144531 62.8125 Z M 168.203125 56.4375 L 169.507812 56.4375 C 169.796875 56.445312 170.082031 56.375 170.335938 56.234375 C 170.550781 56.105469 170.726562 55.917969 170.839844 55.691406 C 170.957031 55.460938 171.015625 55.207031 171.015625 54.945312 C 171.0625 54.539062 170.890625 54.132812 170.566406 53.882812 C 170.195312 53.675781 169.777344 53.574219 169.351562 53.59375 L 168.191406 53.59375 Z M 168.203125 61.136719 L 169.675781 61.136719 C 170.019531 61.152344 170.363281 61.082031 170.671875 60.933594 C 170.910156 60.8125 171.097656 60.613281 171.210938 60.371094 C 171.324219 60.117188 171.382812 59.84375 171.375 59.5625 C 171.402344 59.140625 171.230469 58.730469 170.914062 58.453125 C 170.539062 58.171875 170.078125 58.035156 169.609375 58.066406 L 168.191406 58.066406 Z M 168.203125 61.136719 "/>
<path style=" stroke:none;fill-rule:nonzero;fill:rgb(13.72549%,12.156863%,12.54902%);fill-opacity:1;" d="M 181.242188 62.804688 L 181.242188 61.640625 C 181.144531 61.832031 181.019531 62 180.867188 62.148438 C 180.625 62.394531 180.34375 62.597656 180.035156 62.75 C 179.660156 62.933594 179.25 63.023438 178.835938 63.015625 C 177.609375 63.046875 176.480469 62.371094 175.925781 61.273438 C 175.367188 60.117188 175.367188 58.769531 175.925781 57.609375 C 176.195312 57.085938 176.597656 56.640625 177.097656 56.328125 C 177.613281 56.011719 178.210938 55.847656 178.816406 55.859375 C 179.546875 55.84375 180.253906 56.113281 180.789062 56.613281 C 180.964844 56.761719 181.109375 56.945312 181.207031 57.152344 L 181.207031 56.058594 L 183.28125 56.058594 L 183.28125 62.820312 Z M 177.566406 59.425781 C 177.558594 59.777344 177.648438 60.121094 177.820312 60.425781 C 178.148438 60.992188 178.753906 61.339844 179.40625 61.332031 C 180.058594 61.351562 180.664062 60.996094 180.964844 60.417969 C 181.273438 59.792969 181.273438 59.058594 180.964844 58.429688 C 180.816406 58.152344 180.597656 57.917969 180.328125 57.753906 C 180.050781 57.585938 179.730469 57.503906 179.40625 57.507812 C 179.085938 57.503906 178.773438 57.585938 178.492188 57.75 C 178.214844 57.910156 177.984375 58.144531 177.820312 58.421875 C 177.648438 58.726562 177.558594 59.074219 177.566406 59.425781 Z M 177.566406 59.425781 "/>
<path style=" stroke:none;fill-rule:nonzero;fill:rgb(13.72549%,12.156863%,12.54902%);fill-opacity:1;" d="M 187.773438 62.804688 L 185.695312 62.804688 L 185.695312 56.042969 L 187.773438 56.042969 L 187.773438 57.136719 L 187.730469 57.136719 C 187.804688 56.949219 187.910156 56.78125 188.046875 56.632812 C 188.253906 56.40625 188.496094 56.222656 188.769531 56.085938 C 189.113281 55.914062 189.492188 55.832031 189.878906 55.839844 C 190.160156 55.839844 190.441406 55.886719 190.707031 55.980469 C 190.910156 56.03125 191.097656 56.117188 191.273438 56.230469 L 190.441406 57.945312 C 190.324219 57.824219 190.183594 57.730469 190.027344 57.667969 C 189.796875 57.570312 189.550781 57.523438 189.300781 57.53125 C 188.988281 57.523438 188.683594 57.621094 188.4375 57.816406 C 188.210938 58 188.035156 58.238281 187.921875 58.507812 C 187.8125 58.746094 187.753906 59.003906 187.746094 59.269531 Z M 187.773438 62.804688 "/>
<path style=" stroke:none;fill-rule:nonzero;fill:rgb(13.72549%,12.156863%,12.54902%);fill-opacity:1;" d="M 192.445312 56.042969 L 193.660156 56.042969 L 193.660156 53.265625 L 195.738281 53.265625 L 195.738281 56.042969 L 197.328125 56.042969 L 197.328125 57.777344 L 195.738281 57.777344 L 195.738281 60.222656 C 195.722656 60.480469 195.777344 60.742188 195.890625 60.976562 C 195.992188 61.152344 196.183594 61.257812 196.386719 61.246094 C 196.53125 61.25 196.675781 61.214844 196.800781 61.140625 C 196.875 61.101562 196.941406 61.054688 196.996094 60.996094 L 197.738281 62.496094 C 197.640625 62.566406 197.53125 62.625 197.421875 62.667969 C 197.203125 62.765625 196.972656 62.839844 196.738281 62.894531 C 196.433594 62.96875 196.121094 63.003906 195.804688 63 C 195.246094 63.019531 194.695312 62.828125 194.273438 62.457031 C 193.835938 62.019531 193.613281 61.410156 193.660156 60.792969 L 193.660156 57.785156 L 192.445312 57.785156 Z M 192.445312 56.042969 "/>
<path style=" stroke:none;fill-rule:nonzero;fill:rgb(13.72549%,12.156863%,12.54902%);fill-opacity:1;" d="M 201.164062 59.882812 C 201.171875 60.179688 201.257812 60.464844 201.40625 60.71875 C 201.5625 60.964844 201.785156 61.164062 202.050781 61.289062 C 202.371094 61.433594 202.71875 61.5 203.070312 61.492188 C 203.386719 61.5 203.703125 61.453125 204.007812 61.359375 C 204.253906 61.285156 204.484375 61.175781 204.699219 61.035156 C 204.855469 60.929688 204.996094 60.804688 205.113281 60.660156 L 205.976562 61.945312 C 205.804688 62.15625 205.59375 62.335938 205.363281 62.472656 C 205.0625 62.65625 204.734375 62.785156 204.394531 62.859375 C 203.914062 62.96875 203.421875 63.015625 202.929688 63.007812 C 202.253906 63.027344 201.585938 62.886719 200.980469 62.589844 C 200.433594 62.308594 199.980469 61.875 199.675781 61.339844 C 199.351562 60.742188 199.1875 60.0625 199.207031 59.378906 C 199.195312 58.761719 199.339844 58.148438 199.621094 57.597656 C 199.898438 57.074219 200.324219 56.636719 200.84375 56.347656 C 201.433594 56.027344 202.09375 55.867188 202.765625 55.886719 C 203.402344 55.875 204.03125 56.015625 204.601562 56.304688 C 205.113281 56.570312 205.535156 56.984375 205.804688 57.496094 C 206.105469 58.085938 206.246094 58.742188 206.222656 59.40625 C 206.222656 59.445312 206.222656 59.539062 206.222656 59.671875 C 206.230469 59.761719 206.230469 59.851562 206.222656 59.9375 Z M 204.289062 58.59375 C 204.265625 58.152344 204.03125 57.746094 203.660156 57.507812 C 203.402344 57.351562 203.105469 57.277344 202.804688 57.289062 C 202.5 57.277344 202.199219 57.351562 201.929688 57.5 C 201.53125 57.726562 201.269531 58.136719 201.222656 58.59375 Z M 204.289062 58.59375 "/>
<path style=" stroke:none;fill-rule:nonzero;fill:rgb(13.72549%,12.156863%,12.54902%);fill-opacity:1;" d="M 210.421875 62.804688 L 208.34375 62.804688 L 208.34375 56.042969 L 210.421875 56.042969 L 210.421875 57.136719 L 210.378906 57.136719 C 210.449219 56.949219 210.554688 56.777344 210.695312 56.632812 C 210.898438 56.40625 211.140625 56.222656 211.414062 56.085938 C 211.757812 55.914062 212.136719 55.832031 212.523438 55.839844 C 212.8125 55.839844 213.101562 55.882812 213.375 55.980469 C 213.566406 56.039062 213.75 56.128906 213.917969 56.246094 L 213.085938 57.960938 C 212.96875 57.839844 212.828125 57.746094 212.671875 57.6875 C 212.441406 57.585938 212.195312 57.539062 211.945312 57.546875 C 211.632812 57.539062 211.328125 57.636719 211.085938 57.832031 C 210.859375 58.015625 210.679688 58.253906 210.566406 58.523438 C 210.457031 58.761719 210.398438 59.023438 210.394531 59.285156 Z M 210.421875 62.804688 "/>
<path style=" stroke:none;fill-rule:nonzero;fill:rgb(13.72549%,12.156863%,12.54902%);fill-opacity:1;" d="M 224.335938 51.734375 C 224.910156 51.726562 225.484375 51.800781 226.039062 51.953125 C 226.441406 52.0625 226.828125 52.21875 227.195312 52.417969 C 227.375 52.515625 227.550781 52.621094 227.714844 52.738281 L 226.714844 54.40625 C 226.570312 54.296875 226.421875 54.195312 226.265625 54.105469 C 226.027344 53.960938 225.769531 53.84375 225.503906 53.761719 C 225.195312 53.65625 224.871094 53.605469 224.546875 53.605469 C 224.128906 53.585938 223.714844 53.683594 223.351562 53.894531 C 223.058594 54.066406 222.886719 54.386719 222.90625 54.726562 C 222.902344 54.964844 222.988281 55.195312 223.140625 55.375 C 223.339844 55.59375 223.578125 55.773438 223.84375 55.902344 C 224.214844 56.097656 224.59375 56.269531 224.980469 56.425781 C 225.371094 56.578125 225.746094 56.753906 226.113281 56.957031 C 226.460938 57.15625 226.78125 57.394531 227.070312 57.671875 C 227.351562 57.949219 227.582031 58.273438 227.746094 58.632812 C 228.355469 59.894531 227.957031 61.414062 226.808594 62.21875 C 226.421875 62.492188 225.992188 62.691406 225.539062 62.816406 C 225.046875 62.949219 224.542969 63.011719 224.035156 63.011719 C 223.386719 63.019531 222.742188 62.9375 222.121094 62.761719 C 221.644531 62.628906 221.183594 62.445312 220.742188 62.21875 C 220.527344 62.113281 220.324219 61.988281 220.128906 61.847656 L 221.179688 60.101562 C 221.246094 60.152344 221.367188 60.230469 221.550781 60.339844 C 221.765625 60.46875 221.992188 60.578125 222.222656 60.675781 C 222.507812 60.796875 222.796875 60.898438 223.097656 60.972656 C 223.410156 61.054688 223.734375 61.097656 224.058594 61.097656 C 224.535156 61.128906 225.011719 61 225.402344 60.726562 C 225.921875 60.285156 225.992188 59.507812 225.5625 58.980469 C 225.335938 58.726562 225.058594 58.515625 224.753906 58.359375 C 224.351562 58.144531 223.933594 57.949219 223.507812 57.777344 C 223.039062 57.582031 222.589844 57.34375 222.167969 57.066406 C 221.769531 56.804688 221.433594 56.464844 221.179688 56.0625 C 220.914062 55.617188 220.785156 55.109375 220.800781 54.59375 C 220.789062 54.050781 220.960938 53.515625 221.289062 53.085938 C 221.628906 52.644531 222.074219 52.304688 222.585938 52.089844 C 223.136719 51.851562 223.734375 51.730469 224.335938 51.734375 Z M 224.335938 51.734375 "/>
<path style=" stroke:none;fill-rule:nonzero;fill:rgb(13.72549%,12.156863%,12.54902%);fill-opacity:1;" d="M 233.710938 63 C 233.042969 63.011719 232.382812 62.851562 231.792969 62.535156 C 231.25 62.246094 230.796875 61.816406 230.476562 61.289062 C 229.835938 60.148438 229.835938 58.753906 230.476562 57.617188 C 230.792969 57.074219 231.246094 56.628906 231.792969 56.328125 C 232.382812 56.003906 233.042969 55.84375 233.710938 55.855469 C 234.382812 55.839844 235.042969 56.003906 235.628906 56.328125 C 236.167969 56.632812 236.613281 57.078125 236.921875 57.617188 C 237.550781 58.757812 237.550781 60.144531 236.921875 61.289062 C 236.613281 61.8125 236.164062 62.246094 235.628906 62.535156 C 235.039062 62.851562 234.378906 63.011719 233.710938 63 Z M 233.710938 61.261719 C 234.027344 61.269531 234.339844 61.1875 234.613281 61.023438 C 234.867188 60.871094 235.074219 60.644531 235.203125 60.375 C 235.347656 60.082031 235.417969 59.761719 235.410156 59.433594 C 235.417969 59.105469 235.347656 58.78125 235.203125 58.484375 C 234.929688 57.914062 234.34375 57.558594 233.710938 57.582031 C 233.082031 57.5625 232.496094 57.917969 232.21875 58.484375 C 232.074219 58.78125 232 59.105469 232.003906 59.433594 C 232 59.761719 232.074219 60.082031 232.21875 60.375 C 232.351562 60.644531 232.558594 60.871094 232.816406 61.023438 C 233.085938 61.1875 233.398438 61.269531 233.710938 61.261719 Z M 233.710938 61.261719 "/>
<path style=" stroke:none;fill-rule:nonzero;fill:rgb(13.72549%,12.156863%,12.54902%);fill-opacity:1;" d="M 241.71875 62.804688 L 239.644531 62.804688 L 239.644531 51.46875 L 241.71875 51.46875 Z M 241.71875 62.804688 "/>
<path style=" stroke:none;fill-rule:nonzero;fill:rgb(13.72549%,12.156863%,12.54902%);fill-opacity:1;" d="M 246.289062 59.277344 C 246.261719 59.785156 246.390625 60.285156 246.648438 60.722656 C 246.941406 61.0625 247.371094 61.261719 247.820312 61.261719 C 248.269531 61.261719 248.695312 61.0625 248.988281 60.722656 C 249.25 60.285156 249.375 59.785156 249.351562 59.277344 L 249.351562 56.042969 L 251.40625 56.042969 L 251.40625 59.515625 C 251.421875 60.148438 251.277344 60.777344 250.992188 61.347656 C 250.714844 61.867188 250.289062 62.292969 249.769531 62.566406 C 248.535156 63.144531 247.109375 63.144531 245.878906 62.566406 C 245.355469 62.292969 244.929688 61.867188 244.65625 61.347656 C 244.367188 60.777344 244.226562 60.148438 244.242188 59.515625 L 244.242188 56.042969 L 246.316406 56.042969 Z M 246.289062 59.277344 "/>
<path style=" stroke:none;fill-rule:nonzero;fill:rgb(13.72549%,12.156863%,12.54902%);fill-opacity:1;" d="M 253.269531 56.042969 L 254.484375 56.042969 L 254.484375 53.265625 L 256.558594 53.265625 L 256.558594 56.042969 L 258.140625 56.042969 L 258.140625 57.777344 L 256.546875 57.777344 L 256.546875 60.222656 C 256.53125 60.480469 256.585938 60.742188 256.703125 60.976562 C 256.800781 61.152344 256.992188 61.257812 257.195312 61.246094 C 257.339844 61.25 257.484375 61.214844 257.609375 61.140625 C 257.683594 61.101562 257.75 61.054688 257.804688 60.996094 L 258.546875 62.496094 C 258.449219 62.566406 258.34375 62.625 258.230469 62.667969 C 258.011719 62.765625 257.78125 62.84375 257.546875 62.894531 C 257.242188 62.96875 256.929688 63.003906 256.617188 63 C 256.054688 63.019531 255.507812 62.828125 255.082031 62.457031 C 254.644531 62.019531 254.421875 61.410156 254.472656 60.792969 L 254.472656 57.785156 L 253.257812 57.785156 Z M 253.269531 56.042969 "/>
<path style=" stroke:none;fill-rule:nonzero;fill:rgb(13.72549%,12.156863%,12.54902%);fill-opacity:1;" d="M 261.613281 54.296875 C 260.925781 54.296875 260.367188 53.738281 260.367188 53.046875 C 260.367188 52.71875 260.496094 52.40625 260.730469 52.171875 C 260.957031 51.933594 261.273438 51.800781 261.601562 51.804688 C 261.820312 51.800781 262.03125 51.859375 262.21875 51.972656 C 262.402344 52.082031 262.558594 52.238281 262.667969 52.421875 C 262.785156 52.609375 262.847656 52.828125 262.84375 53.046875 C 262.847656 53.375 262.714844 53.6875 262.480469 53.914062 C 262.253906 54.152344 261.941406 54.292969 261.613281 54.296875 Z M 260.546875 62.804688 L 260.546875 56.042969 L 262.625 56.042969 L 262.625 62.804688 Z M 260.546875 62.804688 "/>
<path style=" stroke:none;fill-rule:nonzero;fill:rgb(13.72549%,12.156863%,12.54902%);fill-opacity:1;" d="M 268.664062 63 C 267.996094 63.011719 267.332031 62.851562 266.742188 62.535156 C 266.199219 62.246094 265.746094 61.816406 265.425781 61.289062 C 264.789062 60.148438 264.789062 58.753906 265.425781 57.617188 C 265.742188 57.074219 266.199219 56.628906 266.742188 56.328125 C 267.332031 56.003906 267.992188 55.84375 268.664062 55.855469 C 269.332031 55.839844 269.992188 56.003906 270.578125 56.328125 C 271.117188 56.632812 271.566406 57.078125 271.875 57.617188 C 272.5 58.757812 272.5 60.144531 271.875 61.289062 C 271.5625 61.8125 271.113281 62.246094 270.578125 62.535156 C 269.988281 62.851562 269.332031 63.011719 268.664062 63 Z M 268.664062 61.261719 C 268.976562 61.269531 269.289062 61.1875 269.558594 61.023438 C 269.816406 60.871094 270.023438 60.644531 270.152344 60.375 C 270.296875 60.082031 270.367188 59.761719 270.363281 59.433594 C 270.367188 59.105469 270.296875 58.78125 270.152344 58.484375 C 269.878906 57.914062 269.292969 57.5625 268.664062 57.582031 C 268.03125 57.558594 267.445312 57.914062 267.167969 58.484375 C 267.023438 58.78125 266.949219 59.105469 266.957031 59.433594 C 266.949219 59.761719 267.023438 60.082031 267.167969 60.375 C 267.300781 60.644531 267.507812 60.871094 267.761719 61.023438 C 268.035156 61.1875 268.347656 61.269531 268.664062 61.261719 Z M 268.664062 61.261719 "/>
<path style=" stroke:none;fill-rule:nonzero;fill:rgb(13.72549%,12.156863%,12.54902%);fill-opacity:1;" d="M 278.863281 55.839844 C 279.328125 55.84375 279.789062 55.941406 280.214844 56.128906 C 280.652344 56.320312 281.027344 56.632812 281.292969 57.027344 C 281.589844 57.511719 281.734375 58.074219 281.707031 58.644531 L 281.707031 62.808594 L 279.632812 62.808594 L 279.632812 59.011719 C 279.671875 58.558594 279.53125 58.109375 279.242188 57.761719 C 278.972656 57.484375 278.605469 57.332031 278.21875 57.34375 C 277.941406 57.34375 277.667969 57.425781 277.433594 57.574219 C 277.183594 57.726562 276.972656 57.941406 276.828125 58.199219 C 276.667969 58.472656 276.585938 58.789062 276.589844 59.105469 L 276.589844 62.78125 L 274.515625 62.78125 L 274.515625 56.042969 L 276.589844 56.042969 L 276.589844 57.121094 C 276.679688 56.894531 276.824219 56.695312 277.007812 56.542969 C 277.253906 56.328125 277.535156 56.160156 277.835938 56.046875 C 278.164062 55.914062 278.511719 55.84375 278.863281 55.839844 Z M 278.863281 55.839844 "/>
<g clip-path="url(#clip1)" clip-rule="nonzero">
<g clip-path="url(#clip2)" clip-rule="nonzero">
<path style=" stroke:none;fill-rule:nonzero;fill:rgb(12.941176%,52.941176%,40.392157%);fill-opacity:1;" d="M 66.46875 41.65625 L 66.40625 41.65625 C 65.546875 41.867188 56.332031 44.570312 53.785156 63.1875 C 53.753906 60.976562 53.449219 58.78125 52.875 56.644531 C 53.371094 54.824219 56.824219 43.554688 66.457031 41.65625 Z M 66.46875 41.65625 "/>
</g>
</g>
<g clip-path="url(#clip3)" clip-rule="nonzero">
<g clip-path="url(#clip4)" clip-rule="nonzero">
<path style=" stroke:none;fill-rule:nonzero;fill:url(#linear0);" d="M 66.46875 41.65625 C 39.058594 39.9375 41.109375 64.195312 41.109375 64.195312 C 40.136719 59.910156 40.011719 54.148438 43.6875 48.714844 C 50.769531 38.25 64.875 40.945312 66.46875 41.65625 Z M 66.46875 41.65625 "/>
</g>
</g>
<g clip-path="url(#clip5)" clip-rule="nonzero">
<g clip-path="url(#clip6)" clip-rule="nonzero">
<path style=" stroke:none;fill-rule:nonzero;fill:url(#linear1);" d="M 52.34375 54.882812 C 52.542969 55.472656 52.722656 56.054688 52.875 56.632812 C 53.371094 54.8125 56.824219 43.542969 66.457031 41.644531 C 39.046875 39.9375 41.121094 64.179688 41.121094 64.179688 C 42.019531 68.148438 42.464844 68.921875 42.464844 68.921875 C 42.464844 68.921875 38.601562 73.402344 23.359375 68.460938 C 5.621094 62.714844 0.21875 40.097656 0.21875 40.097656 C 0.21875 40.097656 -0.730469 53.558594 10.675781 65.960938 C 22.5625 78.867188 40.578125 81.316406 48.167969 73.667969 C 54.707031 67.054688 52.34375 54.882812 52.34375 54.882812 Z M 52.34375 54.882812 "/>
</g>
</g>
<g clip-path="url(#clip7)" clip-rule="nonzero">
<g clip-path="url(#clip8)" clip-rule="nonzero">
<path style=" stroke:none;fill-rule:nonzero;fill:url(#linear2);" d="M 66.433594 41.65625 L 66.40625 41.65625 C 65.546875 41.867188 56.332031 44.570312 53.785156 63.1875 C 53.867188 67.929688 52.765625 72.621094 50.585938 76.835938 C 50.585938 76.835938 54.472656 75.824219 58.230469 70.292969 C 61.988281 64.765625 58.039062 57.289062 59.496094 50.890625 C 60.953125 44.492188 66.46875 41.65625 66.46875 41.65625 Z M 66.433594 41.65625 "/>
</g>
</g>
<g clip-path="url(#clip9)" clip-rule="nonzero">
<g clip-path="url(#clip10)" clip-rule="nonzero">
<path style=" stroke:none;fill-rule:nonzero;fill:rgb(12.941176%,52.941176%,40.392157%);fill-opacity:1;" d="M 23.511719 61.5 L 23.511719 61.457031 C 23.765625 60.625 26.132812 51.28125 11.402344 39.632812 C 13.324219 40.730469 15.375 41.585938 17.507812 42.175781 C 18.820312 43.527344 26.761719 52.226562 23.5 61.507812 Z M 23.511719 61.5 "/>
</g>
</g>
<g clip-path="url(#clip11)" clip-rule="nonzero">
<g clip-path="url(#clip12)" clip-rule="nonzero">
<path style=" stroke:none;fill-rule:nonzero;fill:url(#linear3);" d="M 23.511719 61.5 C 38.878906 38.683594 16.996094 28.15625 16.996094 28.15625 C 21.148438 29.492188 26.191406 32.300781 28.996094 38.234375 C 34.398438 49.660156 24.929688 60.480469 23.511719 61.5 Z M 23.511719 61.5 "/>
</g>
</g>
<g clip-path="url(#clip13)" clip-rule="nonzero">
<g clip-path="url(#clip14)" clip-rule="nonzero">
<path style=" stroke:none;fill-rule:nonzero;fill:url(#linear4);" d="M 19.296875 42.585938 C 18.691406 42.457031 18.101562 42.3125 17.527344 42.167969 C 18.839844 43.515625 26.78125 52.21875 23.519531 61.5 C 38.886719 38.691406 16.996094 28.171875 16.996094 28.171875 C 13.125 26.921875 12.234375 26.921875 12.234375 26.921875 C 12.234375 26.921875 10.34375 21.3125 22.316406 10.660156 C 36.253906 -1.75 58.449219 5.042969 58.449219 5.042969 C 58.449219 5.042969 47.363281 -2.605469 30.921875 0.957031 C 13.777344 4.679688 2.542969 19.023438 5.277344 29.445312 C 7.640625 38.457031 19.296875 42.585938 19.296875 42.585938 Z M 19.296875 42.585938 "/>
</g>
</g>
<g clip-path="url(#clip15)" clip-rule="nonzero">
<g clip-path="url(#clip16)" clip-rule="nonzero">
<path style=" stroke:none;fill-rule:nonzero;fill:url(#linear5);" d="M 23.523438 61.457031 C 23.777344 60.625 26.144531 51.28125 11.414062 39.632812 C 7.292969 37.296875 3.820312 33.96875 1.300781 29.953125 C 1.300781 29.953125 0.199219 33.820312 3.054688 39.875 C 5.90625 45.929688 14.339844 46.277344 19.101562 50.78125 C 23.859375 55.289062 23.511719 61.5 23.511719 61.5 Z M 23.523438 61.457031 "/>
</g>
</g>
<g clip-path="url(#clip17)" clip-rule="nonzero">
<g clip-path="url(#clip18)" clip-rule="nonzero">
<path style=" stroke:none;fill-rule:nonzero;fill:rgb(12.941176%,52.941176%,40.392157%);fill-opacity:1;" d="M 27.375 14.71875 L 27.398438 14.746094 L 27.398438 14.769531 C 28.023438 15.394531 35.066406 21.925781 52.320312 14.496094 C 50.441406 15.667969 48.714844 17.066406 47.183594 18.660156 C 45.371094 19.171875 33.957031 22.019531 27.371094 14.722656 Z M 27.375 14.71875 "/>
</g>
</g>
<g clip-path="url(#clip19)" clip-rule="nonzero">
<g clip-path="url(#clip20)" clip-rule="nonzero">
<path style=" stroke:none;fill-rule:nonzero;fill:url(#linear6);" d="M 27.375 14.71875 C 40.046875 39.144531 59.71875 24.875 59.71875 24.875 C 56.558594 27.917969 51.695312 30.996094 45.160156 30.644531 C 32.566406 29.957031 27.59375 16.449219 27.375 14.71875 Z M 27.375 14.71875 "/>
</g>
</g>
<g clip-path="url(#clip21)" clip-rule="nonzero">
<g clip-path="url(#clip22)" clip-rule="nonzero">
<path style=" stroke:none;fill-rule:nonzero;fill:url(#linear7);" d="M 45.96875 20.007812 C 46.367188 19.53125 46.773438 19.082031 47.191406 18.652344 C 45.378906 19.164062 33.964844 22.011719 27.378906 14.714844 C 40.054688 39.125 59.71875 24.855469 59.71875 24.855469 C 62.644531 22.039062 63.078125 21.257812 63.078125 21.257812 C 63.078125 21.257812 68.890625 22.261719 72.535156 37.890625 C 76.765625 56.09375 60.230469 72.410156 60.230469 72.410156 C 60.230469 72.410156 72.226562 66.289062 76.9375 50.097656 C 81.851562 33.21875 74.632812 16.480469 64.191406 13.917969 C 55.140625 11.71875 45.96875 20.007812 45.96875 20.007812 Z M 45.96875 20.007812 "/>
</g>
</g>
<g clip-path="url(#clip23)" clip-rule="nonzero">
<g clip-path="url(#clip24)" clip-rule="nonzero">
<path style=" stroke:none;fill-rule:nonzero;fill:url(#linear8);" d="M 27.398438 14.746094 L 27.398438 14.769531 C 28.023438 15.394531 35.066406 21.925781 52.320312 14.496094 C 56.335938 11.984375 60.910156 10.507812 65.636719 10.203125 C 65.636719 10.203125 62.765625 7.390625 56.082031 7.015625 C 49.398438 6.640625 45.070312 13.890625 38.851562 15.9375 C 32.628906 17.988281 27.351562 14.71875 27.351562 14.71875 Z M 27.398438 14.746094 "/>
</g>
</g>
</g>
</svg>
