<svg width="7" height="6" viewBox="0 0 7 6" fill="none" xmlns="http://www.w3.org/2000/svg">
<g clip-path="url(#clip0_453_2912)">
<path d="M5.242 3.75C5.38095 3.75 5.49463 3.8625 5.49463 4C5.49463 4.1375 5.38095 4.25 5.242 4.25C5.10306 4.25 4.98937 4.1375 4.98937 4C4.98937 3.8625 5.10306 3.75 5.242 3.75ZM5.242 3.25C4.82263 3.25 4.48411 3.585 4.48411 4C4.48411 4.415 4.82263 4.75 5.242 4.75C5.66137 4.75 5.9999 4.415 5.9999 4C5.9999 3.585 5.66137 3.25 5.242 3.25ZM2.96832 1.5H1.70516V2H2.96832V1.5ZM4.73674 1.25H3.97884V1.75H4.73674V2.4125L3.85253 3.5H2.96832V2.25H1.95779C1.39948 2.25 0.947266 2.6975 0.947266 3.25V4H1.45253C1.45253 4.415 1.79106 4.75 2.21042 4.75C2.62979 4.75 2.96832 4.415 2.96832 4H4.10516L5.242 2.5875V1.75C5.242 1.475 5.01716 1.25 4.73674 1.25ZM2.21042 4.25C2.07148 4.25 1.95779 4.1375 1.95779 4H2.46306C2.46306 4.1375 2.34937 4.25 2.21042 4.25Z" fill="#15BE77"/>
</g>
<defs>
<clipPath id="clip0_453_2912">
<rect width="6.06316" height="6" fill="white" transform="translate(0.441895)"/>
</clipPath>
</defs>
</svg>
