<svg width="40" height="40" viewBox="0 0 40 40" fill="none" xmlns="http://www.w3.org/2000/svg">
<g id="Icon / Email">
<path id="Vector" d="M33.333 6.66675H6.66634C4.83301 6.66675 3.34967 8.16675 3.34967 10.0001L3.33301 30.0001C3.33301 31.8334 4.83301 33.3334 6.66634 33.3334H33.333C35.1663 33.3334 36.6663 31.8334 36.6663 30.0001V10.0001C36.6663 8.16675 35.1663 6.66675 33.333 6.66675ZM32.6663 13.7501L20.883 21.1167C20.3497 21.4501 19.6497 21.4501 19.1163 21.1167L7.33301 13.7501C7.16589 13.6563 7.01954 13.5295 6.90282 13.3775C6.78611 13.2255 6.70145 13.0514 6.65397 12.8657C6.60649 12.68 6.59718 12.4866 6.6266 12.2973C6.65602 12.1079 6.72357 11.9264 6.82514 11.7639C6.92672 11.6014 7.06021 11.4612 7.21755 11.3517C7.37489 11.2423 7.55279 11.1659 7.7405 11.1272C7.92821 11.0886 8.12181 11.0884 8.3096 11.1267C8.49739 11.165 8.67545 11.241 8.83301 11.3501L19.9997 18.3334L31.1663 11.3501C31.3239 11.241 31.502 11.165 31.6898 11.1267C31.8775 11.0884 32.0711 11.0886 32.2589 11.1272C32.4466 11.1659 32.6245 11.2423 32.7818 11.3517C32.9391 11.4612 33.0726 11.6014 33.1742 11.7639C33.2758 11.9264 33.3433 12.1079 33.3727 12.2973C33.4022 12.4866 33.3929 12.68 33.3454 12.8657C33.2979 13.0514 33.2132 13.2255 33.0965 13.3775C32.9798 13.5295 32.8335 13.6563 32.6663 13.7501Z" fill="url(#paint0_linear_314_32173)"/>
</g>
<defs>
<linearGradient id="paint0_linear_314_32173" x1="3.33301" y1="5.02932" x2="41.3124" y2="12.3848" gradientUnits="userSpaceOnUse">
<stop stop-color="#53E88B"/>
<stop offset="1" stop-color="#15BE77"/>
</linearGradient>
</defs>
</svg>
