<svg width="56" height="83" viewBox="0 0 56 83" fill="none" xmlns="http://www.w3.org/2000/svg">
<path d="M35.6476 66.1563V55.4539L20.3619 55.4539V66.1563C20.3619 66.1563 7.09849 67.8892 0.910156 74.7992C1.31151 75.0605 1.71287 75.3156 2.12044 75.5676C2.93249 76.0685 3.7632 76.5477 4.60635 77.0019C6.58513 78.069 8.64791 79.0055 10.7791 79.7988C15.2531 81.4664 20.0321 82.5025 25.0101 82.8042C25.8222 82.854 26.6373 82.8851 27.4618 82.8945C27.6423 82.8945 27.8227 82.8945 28.0063 82.8945H28.0529C28.2178 82.8945 28.3859 82.8945 28.5508 82.8945C29.4064 82.8851 30.2557 82.8571 31.0958 82.8042C36.0552 82.5056 40.8154 81.4727 45.2708 79.8175H45.2739C47.4238 79.021 49.499 78.0784 51.4933 77.0019C52.3427 76.5446 53.1765 76.0654 53.9917 75.5614C54.3744 75.325 54.757 75.0823 55.1335 74.8365C48.9607 67.8955 35.6476 66.1563 35.6476 66.1563Z" fill="#FDDCAB"/>
<path d="M0.0420543 32.0919C0.592751 38.4045 4.58452 38.784 4.58452 38.784L4.64363 26.1464C4.64363 26.1464 -0.514864 25.7762 0.0420543 32.0919Z" fill="#FDDCAB"/>
<path d="M28.0559 0.893066C15.0228 0.893066 4.45996 11.4586 4.45996 24.4883L4.45996 38.2303C4.45996 51.2631 15.0259 61.8255 28.0559 61.8255L28.0559 0.893066Z" fill="#FDDCAB"/>
<path d="M55.958 31.9024C55.4073 38.215 51.4156 38.5946 51.4156 38.5946L51.3564 25.957C51.3564 25.957 56.5149 25.5867 55.958 31.9024Z" fill="#FFEAD5"/>
<path d="M28.0557 0.893066L28.0557 61.8286C41.0888 61.8286 51.6516 51.2631 51.6516 38.2335V24.4914C51.6516 11.4586 41.0857 0.896177 28.0557 0.896177V0.893066Z" fill="#FFEAD5"/>
<path d="M55.1333 74.8364L51.1198 77.2009C49.2406 78.1965 47.2898 79.0708 45.2737 79.8174H45.2706C40.8152 81.4726 36.055 82.5055 31.0956 82.8042C30.2555 82.8571 29.4062 82.8851 28.5506 82.8944C28.4915 82.8944 28.4292 82.8944 28.3701 82.8944L28.3701 75.8133H28.3795C28.4852 75.8133 28.5817 75.804 28.6906 75.804C37.6884 75.6173 39.3218 66.6167 39.3218 66.6167C39.5614 66.6323 39.7947 66.654 40.025 66.6883C49.1472 68.0945 55.1333 74.8364 55.1333 74.8364Z" fill="#FF3932"/>
<path d="M28.3703 75.8133L28.3703 82.8944C28.2645 82.8944 28.1587 82.8944 28.0529 82.8944H28.0063C27.8227 82.8944 27.6423 82.8944 27.4618 82.8944C26.6373 82.8851 25.8222 82.8539 25.0101 82.8042C20.0321 82.5024 15.2531 81.4664 10.7791 79.7988C9.04304 79.1516 7.35361 78.4112 5.72019 77.5805L0.910156 74.7991C0.910156 74.7991 6.7158 68.0136 16.7186 66.6883C16.9519 66.6571 17.179 66.6323 17.4217 66.6167C17.4217 66.6167 19.0551 75.6173 28.0498 75.804C28.1587 75.804 28.2583 75.8133 28.3641 75.8133H28.3703Z" fill="#DB242D"/>
<path d="M24.5716 34.6556V28.9061C24.5716 28.7444 24.444 28.6168 24.3009 28.6168H12.9447V34.6214C12.9447 36.1832 14.211 37.4494 15.7729 37.4494H21.7777C23.3208 37.4494 24.5716 36.1987 24.5716 34.6556ZM26.3855 26.803V34.6556C26.3855 37.2005 24.3227 39.2633 21.7777 39.2633H15.7916C13.2279 39.2633 11.1309 37.1663 11.1309 34.6027L11.1309 27.1857C11.1309 26.9741 11.302 26.8061 11.5104 26.8061L26.3855 26.8061V26.803Z" fill="#1F1F24"/>
<path d="M31.4565 35.0383V28.9061C31.4565 28.7444 31.584 28.6168 31.7271 28.6168H43.0833V35.0009C43.0833 36.3543 41.9881 37.4494 40.6347 37.4494H33.8677C32.5361 37.4494 31.4565 36.3699 31.4565 35.0383ZM29.6426 26.803V35.0383C29.6426 37.3717 31.5342 39.2633 33.8677 39.2633H40.6161C42.9713 39.2633 44.8972 37.3374 44.8972 34.9823V26.803L29.6426 26.803Z" fill="#1F1F24"/>
<path d="M12.0325 28.6168H6.53489L5.9873 26.803H12.0325V28.6168Z" fill="#1F1F24"/>
<path d="M43.9951 28.6168H49.4959L50.0403 26.803H43.9951V28.6168Z" fill="#1F1F24"/>
<path d="M30.0756 26.803H25.9531V28.6168H30.0756V26.803Z" fill="#1F1F24"/>
<path d="M6.52283 28.6291L6.52283 21.8467C6.52283 20.5493 6.79974 19.3204 7.28198 18.2004C21.8272 6.41837 32.3776 28.4766 49.4087 20.2911C49.4958 20.7982 49.5643 21.3116 49.5643 21.8436L49.4585 28.4144C50.9239 26.9584 51.9631 26.0344 53.2573 26.249L54.0103 21.2649C54.2032 16.063 52.2368 11.0229 48.6713 7.24283C43.5128 1.77337 38.3543 0 28.0404 0C17.7265 0 12.5649 1.77337 7.40954 7.24283C3.84402 11.026 1.87769 16.063 2.07059 21.2649L2.82352 26.4326C4.12092 26.221 5.45566 27.1015 6.51661 28.6291H6.52283Z" fill="#1F1F24"/>
</svg>
