<svg width="486" height="482" viewBox="0 0 486 482" fill="none" xmlns="http://www.w3.org/2000/svg">
<path d="M390.884 389.594C308.094 437.393 188.841 405.48 141.734 323.888C94.6268 242.297 93.6209 161.671 176.412 113.872C259.203 66.0728 320.201 95.2972 367.308 176.889C414.415 258.481 473.675 341.795 390.884 389.594Z" fill="#D4FFE4"/>
<path d="M413.651 141.941C401.813 131.707 400.889 110.921 411.565 98.57C422.241 86.2193 435.095 81.2221 446.933 91.4553C458.771 101.689 457.179 113.095 446.503 125.446C435.827 137.796 425.49 152.174 413.651 141.941Z" fill="#D0FFE1"/>
<path d="M446.79 383.124C457.855 394.189 453.689 418.569 438.279 433.978C422.87 449.388 402.415 451.647 395.737 445.26C389.059 438.874 389.377 420.644 404.787 405.235C420.196 389.825 435.725 372.059 446.79 383.124Z" fill="#D0FFE1"/>
<path d="M99.6302 326.749C114.745 322.699 133.775 338.497 139.416 359.547C145.056 380.597 136.785 399.44 127.915 402.03C119.046 404.62 103.417 395.23 97.7769 374.181C92.1366 353.131 84.5152 330.799 99.6302 326.749Z" fill="#E3FFED"/>
<path d="M214.908 415.366C208.936 420.782 198.568 420.311 193.264 414.462C187.959 408.612 186.464 402.012 192.436 396.596C198.408 391.18 203.937 392.48 209.242 398.33C214.546 404.179 220.88 409.951 214.908 415.366Z" fill="#85F6B0" fill-opacity="0.68"/>
<path d="M284.105 213.296C279.798 217.202 273.628 218.305 271.215 215.644C268.802 212.982 268.777 209.384 273.084 205.478C277.391 201.572 280.543 201.588 282.956 204.249C285.369 206.91 288.412 209.39 284.105 213.296Z" fill="#D56C48"/>
<path d="M244.422 314.566C245.357 317.583 244.484 320.875 242.62 321.453C240.755 322.031 238.977 321.217 238.042 318.199C237.107 315.182 237.838 313.633 239.702 313.055C241.567 312.477 243.486 311.548 244.422 314.566Z" fill="#D56C48"/>
<circle cx="254.5" cy="256.5" r="3.5" fill="#A73D22"/>
<path d="M203.68 247.995C202.036 249.745 198.198 247.631 196.208 245.641C194.218 243.652 191.7 239.733 194.6 236.834C197.499 233.934 201.38 237.947 203.37 239.937C205.36 241.926 205.324 246.245 203.68 247.995Z" fill="#E3AB5C"/>
<path d="M98.2471 206.115C97.5953 197.88 104.516 189.764 112.631 189.122C120.746 188.48 127.073 191.397 127.725 199.632C128.376 207.866 123.83 211.538 115.715 212.18C107.6 212.823 98.8988 214.349 98.2471 206.115Z" fill="#A0FACB"/>
<path d="M359.475 89.3633C360.252 92.2609 358.316 95.6162 355.46 96.3814C352.605 97.1465 350.153 96.5222 349.377 93.6247C348.6 90.7271 349.981 89.1156 352.837 88.3504C355.693 87.5853 358.699 86.4657 359.475 89.3633Z" fill="#37FFAB" fill-opacity="0.53"/>
<path d="M378.761 307.884C407.253 365.725 381.98 400.034 365.782 409.959C349.621 421.208 307.045 430.586 266.03 378.104C214.762 312.502 343.146 235.584 378.761 307.884Z" fill="#10A767"/>
<path fill-rule="evenodd" clip-rule="evenodd" d="M341.499 411.632C346.078 410.997 349.984 409.665 354.393 407.919C355.207 407.597 356.083 407.368 356.897 407.154C357.052 407.113 357.204 407.073 357.354 407.033C357.467 407.003 357.579 406.973 357.689 406.942C357.232 406.975 356.779 406.969 356.358 406.957C356.218 406.953 356.082 406.949 355.95 406.944C355.386 406.926 354.882 406.909 354.4 406.948C352.008 407.138 349.395 407.156 347.008 407.026C342.435 406.777 337.787 406.407 333.241 405.505C332.183 405.295 331.078 405.1 329.937 404.899C329.79 404.873 329.643 404.847 329.495 404.821C328.202 404.593 326.872 404.354 325.549 404.078C322.908 403.527 320.251 402.818 317.902 401.711C311.473 398.682 305.848 394.632 300.428 390.153C294.008 384.846 289.131 377.364 284.736 370.62L284.734 370.617C282.911 367.819 281.354 364.82 279.831 361.885C279.423 361.1 279.018 360.319 278.611 359.549C277.413 357.281 276.691 354.793 276.14 352.312C275.865 351.07 275.63 349.818 275.403 348.591L275.363 348.377C275.148 347.219 274.938 346.087 274.701 344.985C273.743 340.529 273.326 335.64 273.431 331.086C273.487 328.623 273.606 326.096 274.056 323.609C274.23 322.642 274.248 321.634 274.267 320.54C274.269 320.415 274.271 320.29 274.274 320.163C274.297 318.958 274.344 317.655 274.687 316.4C274.804 315.973 275.238 314.923 275.773 313.685C275.831 313.55 275.891 313.411 275.952 313.27C275.376 314.209 274.773 315.146 274.117 316.052C268.582 323.705 264.324 333.314 262.178 342.46C260.943 347.72 263.06 354.236 265.537 359.149C268.37 364.768 272.467 369.622 276.598 374.514C277.984 376.157 279.375 377.804 280.722 379.485C281.27 380.17 281.866 380.779 282.496 381.424C282.592 381.522 282.688 381.62 282.785 381.72C283.509 382.464 284.263 383.264 284.923 384.213C286.959 387.135 289.467 390.266 292.056 392.611C293.691 394.091 295.259 395.688 296.805 397.263C297.524 397.995 298.239 398.723 298.953 399.432C301.229 401.691 303.551 403.812 306.192 405.518C311.741 409.103 318.857 411.227 325.495 411.573C326.419 411.621 327.329 411.676 328.228 411.729C332.761 412 337.018 412.254 341.499 411.632ZM279.194 310.447C278.566 311.84 277.941 313.246 277.44 314.405C276.88 315.703 276.513 316.608 276.439 316.88C276.162 317.891 276.113 318.987 276.09 320.198C276.087 320.323 276.085 320.449 276.083 320.577C276.065 321.649 276.046 322.81 275.843 323.932C275.42 326.274 275.303 328.684 275.247 331.128C275.145 335.552 275.551 340.297 276.477 344.603C276.72 345.732 276.935 346.889 277.148 348.04L277.189 348.26C277.417 349.489 277.646 350.712 277.914 351.919C278.45 354.335 279.13 356.641 280.217 358.7C280.638 359.497 281.053 360.296 281.466 361.092C282.984 364.016 284.487 366.91 286.256 369.625C290.683 376.418 295.415 383.653 301.586 388.753C306.949 393.185 312.441 397.13 318.677 400.068C320.834 401.084 323.329 401.759 325.92 402.3C327.213 402.57 328.519 402.804 329.811 403.032C329.958 403.058 330.105 403.084 330.253 403.11C331.39 403.311 332.516 403.509 333.595 403.723C338.011 404.6 342.555 404.964 347.107 405.212C349.42 405.338 351.951 405.32 354.256 405.137C354.851 405.09 355.481 405.111 356.05 405.13C356.173 405.134 356.293 405.138 356.409 405.141C356.825 405.153 357.205 405.155 357.553 405.131C357.271 405.043 356.992 404.949 356.716 404.851C354.403 404.031 352.175 402.869 350.453 401.948C349.93 401.669 349.409 401.391 348.889 401.113C344.72 398.887 340.599 396.686 336.473 394.279C330.993 391.082 326.016 387.109 321.147 383.222C320.878 383.007 320.61 382.793 320.342 382.58C318.31 380.959 316.716 378.958 315.294 376.896C314.609 375.903 313.958 374.886 313.318 373.886L313.243 373.77C312.576 372.728 311.92 371.707 311.235 370.726C308.043 366.152 305.178 361.303 302.497 356.452C301.036 353.81 299.366 351.255 297.674 348.666C297.36 348.186 297.046 347.705 296.732 347.222C294.734 344.149 292.762 341.009 291.198 337.683C289.854 334.824 288.398 332.003 286.926 329.171C286.801 328.931 286.676 328.69 286.55 328.449C285.204 325.861 283.852 323.262 282.58 320.636C281.895 319.221 281.078 317.532 280.422 315.783C279.772 314.052 279.257 312.204 279.194 310.447ZM364.817 405.069C364.801 405.277 364.718 405.441 364.661 405.53C364.425 405.894 364.044 406.164 363.733 406.353C363.395 406.559 363.004 406.748 362.631 406.916C362.322 407.055 362.004 407.187 361.721 407.305C361.662 407.33 361.604 407.354 361.548 407.378C361.208 407.52 360.959 407.628 360.805 407.71C359.847 408.221 358.798 408.528 357.823 408.788C357.656 408.833 357.492 408.876 357.33 408.919C356.516 409.133 355.765 409.33 355.062 409.608C350.606 411.373 346.542 412.766 341.748 413.431C337.073 414.08 332.609 413.812 328.073 413.54C327.186 413.487 326.296 413.434 325.4 413.387C318.478 413.026 311.048 410.817 305.207 407.044C302.404 405.233 299.976 403.006 297.673 400.721C296.922 399.976 296.189 399.229 295.461 398.487C293.935 396.933 292.432 395.402 290.837 393.958C288.105 391.484 285.507 388.23 283.433 385.251C282.863 384.433 282.2 383.724 281.483 382.987C281.39 382.892 281.297 382.796 281.203 382.7C280.577 382.06 279.913 381.381 279.304 380.621C278.023 379.022 276.676 377.427 275.315 375.815C271.15 370.882 266.853 365.794 263.915 359.967C261.397 354.974 259.021 347.96 260.409 342.045C262.608 332.679 266.961 322.847 272.645 314.987C273.497 313.809 274.265 312.564 275.032 311.283C275.194 311.01 275.357 310.736 275.521 310.461C276.123 309.448 276.734 308.419 277.382 307.417C277.566 307.131 277.777 306.742 278.036 306.266L278.064 306.214C278.327 305.73 278.628 305.179 278.956 304.656C279.192 304.28 279.453 303.9 279.739 303.556C279.753 303.522 279.767 303.494 279.779 303.471C279.904 303.236 280.111 303.07 280.201 302.999C280.318 302.907 280.46 302.809 280.61 302.713C280.76 302.603 280.921 302.503 281.092 302.419C281.248 302.328 281.407 302.236 281.555 302.151L281.556 302.151C281.709 302.063 281.848 301.983 281.97 301.911C282.545 301.572 283.131 301.215 283.723 300.854C284.685 300.269 285.663 299.674 286.633 299.127C288.682 297.974 290.652 296.709 292.648 295.426C294.034 294.536 295.433 293.637 296.881 292.762C298.13 292.007 299.456 291.582 300.711 291.226C300.96 291.155 301.205 291.088 301.446 291.021C302.45 290.744 303.391 290.484 304.304 290.099C308.145 288.48 312.15 287.087 316.474 286.751C318.042 286.63 319.589 286.29 321.197 285.917C321.334 285.885 321.472 285.853 321.61 285.821C323.072 285.48 324.59 285.125 326.139 284.937C329.596 284.516 332.96 284.456 336.381 284.531C342.65 284.669 347.695 287.283 352.839 289.949C353.843 290.47 354.851 290.993 355.873 291.499C362.681 294.873 366.515 299.362 371.106 305.092C375.077 310.049 379.147 315.301 381.819 321.238C384.877 328.032 386.562 334.687 386.871 342.202C386.913 343.213 386.957 344.222 387.002 345.231C387.288 351.685 387.571 358.093 387.029 364.658C386.489 371.199 383.413 377.946 380.449 383.478C376.403 391.032 371.169 399.039 364.817 405.069ZM281.535 307.872C281.523 307.923 281.511 307.974 281.499 308.024C281.395 308.464 281.296 308.883 281.212 309.259C281.144 309.565 281.09 309.826 281.053 310.032C281.015 310.248 281.009 310.339 281.008 310.349L281.008 310.35C281.055 311.831 281.498 313.48 282.123 315.145C282.745 316.804 283.525 318.42 284.215 319.844C285.475 322.445 286.815 325.022 288.163 327.613C288.288 327.853 288.413 328.093 288.538 328.333C290.009 331.164 291.481 334.015 292.842 336.91C294.349 340.114 296.261 343.164 298.255 346.232C298.564 346.707 298.875 347.183 299.186 347.659C300.878 350.247 302.59 352.867 304.086 355.573C306.753 360.396 309.583 365.186 312.725 369.686C313.433 370.701 314.108 371.752 314.773 372.79L314.842 372.897C315.486 373.904 316.123 374.898 316.789 375.865C318.169 377.866 319.645 379.701 321.475 381.16C321.734 381.366 321.992 381.572 322.25 381.778C327.146 385.686 332.027 389.582 337.389 392.71C341.483 395.099 345.573 397.283 349.745 399.511C350.265 399.788 350.786 400.067 351.309 400.347C353.03 401.267 355.152 402.369 357.323 403.139C358.727 403.637 360.1 403.976 361.363 404.057C361.128 402.799 360.996 401.535 360.933 400.272C360.901 400.184 360.874 400.094 360.856 400.014C360.553 398.606 359.634 397.215 358.462 395.771C358.046 395.258 357.617 394.76 357.185 394.258C357.011 394.057 356.837 393.855 356.664 393.652C356.067 392.953 355.48 392.242 354.993 391.532C351.444 386.356 347.017 381.197 342.662 376.601C337.83 371.504 333.185 366.328 328.555 361.167C321.876 353.724 315.226 346.314 308.088 339.22C303.861 335.018 299.453 331.028 295.02 327.015L294.56 326.598C294.125 326.204 293.649 325.787 293.156 325.355C292.327 324.627 291.447 323.856 290.623 323.075C289.291 321.812 287.999 320.43 287.073 318.936C285.884 317.017 284.683 315.06 283.66 312.977C283.061 311.759 282.555 310.465 282.066 309.215C282.023 309.106 281.98 308.996 281.938 308.888C281.803 308.545 281.67 308.206 281.535 307.872ZM364.168 403.171C370.051 397.402 374.974 389.853 378.848 382.62C381.796 377.117 384.711 370.652 385.219 364.509C385.751 358.067 385.473 351.785 385.188 345.324C385.143 344.313 385.098 343.297 385.056 342.276C384.757 335.011 383.133 328.583 380.163 321.984C377.596 316.282 373.667 311.194 369.688 306.228C365.113 300.518 361.49 296.31 355.067 293.127C353.984 292.59 352.935 292.048 351.907 291.517C346.77 288.861 342.153 286.475 336.341 286.347C332.966 286.273 329.696 286.334 326.358 286.74C324.912 286.916 323.488 287.248 322.009 287.593C321.876 287.624 321.742 287.655 321.608 287.686C320.004 288.059 318.335 288.429 316.615 288.562C312.583 288.876 308.792 290.179 305.009 291.773C303.977 292.208 302.896 292.506 301.884 292.785C301.654 292.849 301.428 292.911 301.207 292.974C299.978 293.322 298.851 293.694 297.821 294.317C296.471 295.133 295.101 296.012 293.719 296.899C291.667 298.215 289.592 299.546 287.524 300.71C286.689 301.181 285.878 301.67 285.06 302.167C286.121 301.905 287.184 301.633 288.252 301.36L288.257 301.359C290.532 300.777 292.83 300.189 295.143 299.691C300.871 298.46 306.486 298.895 312.029 299.324C313.022 299.401 314.012 299.478 315.001 299.545C318.517 299.783 322.027 300.048 325.548 300.47C327.311 300.682 329.141 300.722 331.025 300.764C331.343 300.771 331.662 300.778 331.982 300.786C334.18 300.841 336.435 300.936 338.588 301.367C346.117 302.876 354.335 306.024 360.315 311.124C365.29 315.366 368.589 320.013 371.255 325.968C374.242 332.642 375.491 339.891 376.705 346.933C376.901 348.071 377.096 349.204 377.298 350.328C378.735 358.348 377.645 367.494 375.658 375.218C374.25 380.689 372.623 386.536 369.553 391.539C368.462 393.318 367.375 395.374 366.588 397.284C366.302 397.979 365.895 398.636 365.535 399.218C365.481 399.305 365.428 399.391 365.377 399.475C364.962 400.152 364.631 400.739 364.462 401.343C364.443 401.412 364.418 401.505 364.387 401.615C364.301 401.927 364.176 402.381 364.04 402.851C364.084 402.959 364.127 403.067 364.168 403.171ZM362.905 400.285C362.838 400.135 362.781 400.003 362.734 399.89C362.677 398.531 362.701 397.154 362.761 395.761C362.808 394.694 362.877 393.602 362.947 392.501C363.066 390.637 363.186 388.748 363.198 386.912C363.247 379.822 361.93 372.49 360.533 365.678C358.318 354.883 355.892 344.493 351.173 334.361C348.491 328.601 344.041 323.844 338.74 320.42C335.994 318.646 333.086 317.413 330.186 316.311C329.343 315.991 328.504 315.683 327.671 315.377C325.61 314.621 323.577 313.874 321.568 312.975C319.212 311.92 316.793 311.058 314.406 310.218C314.29 310.177 314.173 310.135 314.056 310.094C311.779 309.293 309.534 308.502 307.345 307.561C304.469 306.325 301.2 305.076 298.212 304.057C296.141 303.351 293.948 302.711 291.648 302.619C291.381 302.609 291.109 302.594 290.832 302.578C292.398 302.184 293.959 301.804 295.525 301.467C300.973 300.296 306.289 300.705 311.836 301.132C312.842 301.21 313.855 301.288 314.878 301.357C318.388 301.595 321.86 301.858 325.332 302.274C327.19 302.497 329.12 302.539 330.999 302.581C331.314 302.588 331.626 302.594 331.937 302.602C334.133 302.657 336.248 302.751 338.231 303.148C345.577 304.621 353.471 307.674 359.137 312.506C363.884 316.555 367.029 320.974 369.597 326.711C372.483 333.158 373.691 340.156 374.909 347.211C375.106 348.356 375.304 349.502 375.51 350.648C376.884 358.317 375.85 367.181 373.898 374.766C372.487 380.251 370.914 385.847 368.005 390.589C366.874 392.432 365.739 394.574 364.908 396.593C364.684 397.139 364.364 397.657 363.997 398.25C363.942 398.34 363.886 398.431 363.828 398.525C363.506 399.051 363.158 399.639 362.905 400.285ZM282.176 304.816C282.719 305.923 283.183 307.088 283.629 308.225C283.67 308.331 283.712 308.436 283.753 308.541C284.247 309.806 284.727 311.03 285.29 312.176C286.269 314.169 287.425 316.055 288.617 317.979C289.42 319.275 290.58 320.531 291.873 321.757C292.68 322.522 293.5 323.24 294.303 323.944C294.803 324.383 295.298 324.816 295.779 325.252L296.25 325.678C300.675 329.684 305.11 333.699 309.369 337.931C316.52 345.038 323.254 352.541 329.977 360.031C334.606 365.188 339.229 370.339 343.98 375.352C348.373 379.987 352.869 385.222 356.491 390.505C356.921 391.131 357.454 391.78 358.045 392.473C358.207 392.662 358.374 392.855 358.543 393.052C358.982 393.561 359.439 394.091 359.873 394.626C360.236 395.074 360.596 395.54 360.932 396.024C360.937 395.91 360.942 395.796 360.947 395.682C360.997 394.533 361.068 393.408 361.14 392.296C361.256 390.48 361.37 388.698 361.382 386.9C361.429 380.016 360.149 372.847 358.753 366.043C356.541 355.263 354.149 345.053 349.527 335.128C347.007 329.718 342.807 325.21 337.754 321.945C335.171 320.277 332.407 319.098 329.541 318.009C328.739 317.705 327.925 317.406 327.104 317.105C325.02 316.34 322.895 315.56 320.826 314.633C318.547 313.613 316.195 312.774 313.803 311.931C313.681 311.888 313.559 311.845 313.437 311.802C311.173 311.005 308.875 310.196 306.628 309.23C303.797 308.014 300.572 306.781 297.625 305.776C295.589 305.082 293.601 304.515 291.576 304.434C291.02 304.412 290.481 304.379 289.953 304.346C288.191 304.238 286.564 304.138 284.944 304.486C284.588 304.563 284.117 304.599 283.692 304.629C283.619 304.635 283.545 304.64 283.472 304.645C283.094 304.671 282.728 304.696 282.396 304.736C282.318 304.746 282.248 304.755 282.183 304.765C282.181 304.782 282.178 304.799 282.176 304.816Z" fill="#396119"/>
<path d="M408.256 211.726C420.431 219.346 418.141 233.299 410.41 237.634C412.044 238.234 412.902 239.545 416.815 245.552C421.707 253.062 415.212 257.337 403.907 262.471C392.601 267.606 380.86 269.742 375.432 267.358C370.004 264.974 376.215 264.24 373.233 260.93C370.252 257.621 363.891 260.583 359.349 252.876C355.202 245.839 342.806 250.12 341.147 242.904C339.488 235.688 360.791 229.87 366.608 226.359C372.424 222.847 366.121 221.658 368.922 216.099C371.723 210.54 375.299 211.909 385.444 212.247C395.589 212.586 393.036 202.201 408.256 211.726Z" fill="#15BE77"/>
<path fill-rule="evenodd" clip-rule="evenodd" d="M343.676 243.53C343.44 243.49 343.208 243.368 343.061 243.119C342.853 242.766 342.914 242.384 343.04 242.079C343.166 241.774 343.383 241.477 343.609 241.217C344.063 240.695 344.637 240.234 344.886 240.037C346.79 238.533 349.026 237.047 351.338 236.149C351.721 236 352.114 235.904 352.484 235.818C352.528 235.807 352.572 235.797 352.616 235.787C352.944 235.711 353.252 235.64 353.551 235.543C354.936 235.09 356.307 234.602 357.684 234.111C358.138 233.949 358.592 233.787 359.048 233.626C362.29 232.482 365.519 231.226 368.312 229.3C369.556 228.442 370.844 227.508 371.866 226.448C372.481 225.811 372.972 225.109 373.487 224.373C373.681 224.096 373.879 223.813 374.087 223.528C376.285 220.523 378.845 217.404 382.292 215.661C383.192 215.206 384.239 215.065 385.251 215.033C385.896 215.012 386.566 215.037 387.187 215.059C387.526 215.072 387.85 215.083 388.147 215.087C388.981 215.097 389.823 215.048 390.689 214.997C391.215 214.966 391.75 214.934 392.297 214.915C393.715 214.866 395.163 214.907 396.533 215.309C399.219 216.096 401.984 216.783 404.721 217.396C408.137 218.162 410.901 220.197 411.88 223.777C412.496 226.025 412.436 228.859 411.614 231.044C410.615 233.696 408.85 236.327 407.177 238.522C407.106 238.615 407.038 238.706 406.977 238.795C407.105 238.871 407.187 239.012 407.178 239.17C407.165 239.395 406.973 239.568 406.747 239.555C406.716 239.554 406.685 239.552 406.653 239.55C406.648 239.675 406.677 239.794 406.749 239.915C406.897 240.167 407.048 240.42 407.2 240.674C407.507 241.188 407.817 241.706 408.112 242.228C408.41 242.756 408.54 243.43 408.574 244.076C408.608 244.727 408.545 245.392 408.423 245.925C408.008 247.745 407.529 249.376 406.822 251.124C406.663 251.52 406.513 251.957 406.358 252.42C406.341 252.47 406.324 252.521 406.307 252.571C406.168 252.986 406.023 253.419 405.864 253.844C405.509 254.793 405.067 255.754 404.405 256.48C402.9 258.128 401.123 259.347 399.152 260.351C399.013 260.421 398.874 260.493 398.733 260.566C397.441 261.23 396.073 261.933 394.555 262.197C393.882 262.314 393.251 262.26 392.653 262.165C392.406 262.126 392.159 262.078 391.917 262.031C391.869 262.022 391.821 262.013 391.773 262.004C391.483 261.948 391.2 261.896 390.914 261.859C388.843 261.592 387.124 262.148 385.16 262.783C384.852 262.883 384.538 262.984 384.217 263.085C382.006 263.775 380.119 263.305 378.275 262.157C377.402 261.614 376.65 260.899 375.988 260.155C375.759 259.897 375.548 259.612 375.352 259.345C375.285 259.255 375.221 259.167 375.157 259.083C374.896 258.738 374.643 258.435 374.34 258.197C373.401 257.461 372.327 256.835 371.254 256.211C371.072 256.105 370.89 255.998 370.708 255.892C370.14 255.558 369.588 255.167 369.053 254.789C368.843 254.64 368.637 254.494 368.432 254.354C367.692 253.844 366.961 253.394 366.165 253.114C364.415 252.499 362.727 251.326 361.32 250.239C361.017 250.005 360.678 249.808 360.315 249.612C360.206 249.553 360.093 249.494 359.978 249.434C359.72 249.298 359.452 249.157 359.198 249.008C357.857 248.22 356.516 247.435 355.168 246.664C351.652 244.656 348.254 243.085 344.295 243.493C344.103 243.538 343.885 243.565 343.676 243.53ZM346.702 242.662C349.894 242.941 352.754 244.344 355.574 245.955C356.926 246.728 358.27 247.516 359.611 248.303C359.849 248.443 360.088 248.568 360.337 248.7C360.456 248.762 360.578 248.826 360.702 248.893C361.077 249.095 361.462 249.317 361.819 249.593C363.216 250.672 364.817 251.775 366.435 252.344C367.337 252.661 368.14 253.161 368.895 253.681C369.12 253.835 369.338 253.99 369.554 254.142C370.078 254.513 370.585 254.872 371.122 255.187C371.298 255.291 371.477 255.395 371.657 255.5C372.727 256.123 373.857 256.78 374.844 257.555C375.233 257.86 375.539 258.233 375.809 258.591C375.885 258.692 375.957 258.79 376.028 258.886C376.218 259.144 376.396 259.385 376.598 259.613C377.231 260.324 377.925 260.977 378.707 261.464C380.402 262.519 382.043 262.908 383.973 262.305C384.281 262.209 384.586 262.11 384.89 262.011C386.846 261.376 388.753 260.757 391.018 261.049C391.33 261.09 391.634 261.146 391.926 261.201C391.976 261.211 392.026 261.221 392.076 261.23C392.317 261.277 392.549 261.321 392.782 261.358C393.341 261.447 393.87 261.487 394.415 261.392C395.803 261.151 397.058 260.507 398.368 259.835C398.505 259.764 398.643 259.694 398.782 259.623C400.691 258.651 402.38 257.487 403.802 255.929C404.354 255.324 404.753 254.485 405.099 253.558C405.253 253.147 405.393 252.728 405.533 252.311C405.55 252.261 405.567 252.211 405.583 252.161C405.739 251.698 405.895 251.239 406.065 250.818C406.752 249.119 407.219 247.531 407.627 245.744C407.732 245.285 407.788 244.696 407.758 244.118C407.728 243.534 407.611 243.002 407.401 242.63C407.11 242.116 406.809 241.613 406.506 241.105C406.352 240.848 406.199 240.591 406.045 240.33C405.996 240.247 405.956 240.163 405.925 240.081C405.893 240.112 405.861 240.141 405.83 240.17L405.821 240.178C404.647 241.275 403.528 242.45 402.424 243.638C402.027 244.065 401.616 244.466 401.212 244.859C401.153 244.917 401.094 244.974 401.036 245.031C400.574 245.483 400.125 245.929 399.703 246.414C399.325 246.847 398.987 247.308 398.639 247.785L398.611 247.823C398.256 248.307 397.888 248.807 397.47 249.277C396.68 250.163 395.699 250.731 394.737 251.23C394.55 251.327 394.364 251.422 394.18 251.515C393.401 251.91 392.658 252.286 391.987 252.791C391.685 253.018 391.419 253.294 391.134 253.599C391.107 253.628 391.079 253.658 391.051 253.688C390.797 253.962 390.522 254.256 390.214 254.517C389.147 255.419 388.041 255.987 386.699 256.398C383.457 257.392 380.445 256.273 377.68 254.911C376.974 254.563 376.238 254.226 375.493 253.885C373.704 253.067 371.861 252.223 370.239 251.14C368.721 250.127 367.263 249.04 365.814 247.959C365.733 247.899 365.653 247.839 365.573 247.78C364.041 246.638 362.516 245.509 360.92 244.47C360.784 244.382 360.649 244.294 360.516 244.207C358.096 242.626 356.12 241.336 353.241 241.452C350.938 241.545 348.886 242.044 346.702 242.662ZM405.808 238.699C404.687 238.673 403.476 238.724 402.395 239.021C401.463 239.278 400.552 239.57 399.653 239.858C399.281 239.977 398.912 240.095 398.544 240.21C397.276 240.606 396.008 240.968 394.665 241.204C389.023 242.194 382.837 241.631 377.485 239.607C377.02 239.432 376.563 239.221 376.09 239.003C376.043 238.982 375.996 238.96 375.949 238.938C375.431 238.7 374.896 238.459 374.343 238.27C373.376 237.939 372.345 237.759 371.366 237.589C371.137 237.549 370.91 237.509 370.688 237.469C368.341 237.038 365.822 236.936 363.475 236.874C360.76 236.802 358.156 236.952 355.487 237.648C354.218 237.979 352.978 238.436 351.758 238.901C351.974 238.81 352.189 238.718 352.403 238.626C352.458 238.603 352.513 238.579 352.568 238.556C353.327 238.231 354.077 237.913 354.841 237.634C355.073 237.549 355.306 237.46 355.54 237.371C356.511 237 357.488 236.626 358.421 236.562C359.005 236.522 359.585 236.494 360.161 236.467C362.719 236.345 365.215 236.226 367.724 235.016C369.89 233.971 372.095 232.891 374.074 231.43C375.09 230.681 375.975 229.799 376.836 228.941C376.927 228.851 377.017 228.76 377.108 228.671C378.064 227.722 379.009 226.817 380.128 226.1C383.347 224.039 386.79 223.151 390.573 222.495C391.013 222.418 391.44 222.336 391.86 222.254C393.397 221.957 394.831 221.679 396.384 221.813C397.974 221.95 399.417 222.432 400.913 223.083C401.979 223.547 402.887 223.952 403.601 224.76C403.895 225.093 404.148 225.49 404.393 225.922C404.491 226.094 404.593 226.282 404.697 226.473C404.839 226.735 404.984 227.002 405.124 227.24C406.017 228.755 406.162 230.374 406.098 232.161C406.073 232.857 405.985 233.549 405.893 234.26L405.886 234.319C405.797 235.007 405.706 235.713 405.674 236.428C405.656 236.841 405.686 237.235 405.721 237.608C405.728 237.68 405.735 237.751 405.742 237.82C405.771 238.12 405.799 238.405 405.808 238.696L406.086 238.688L405.808 238.696C405.808 238.697 405.808 238.698 405.808 238.699ZM406.576 237.962C406.569 237.884 406.561 237.806 406.554 237.73C406.547 237.663 406.541 237.597 406.534 237.531C406.5 237.165 406.474 236.817 406.49 236.464C406.52 235.784 406.607 235.108 406.697 234.41L406.703 234.365C406.795 233.658 406.887 232.929 406.914 232.19C406.98 230.349 406.84 228.541 405.828 226.825C405.687 226.586 405.561 226.353 405.43 226.112C405.327 225.922 405.221 225.726 405.103 225.518C404.849 225.07 404.564 224.615 404.213 224.219C403.365 223.259 402.292 222.792 401.25 222.339L401.238 222.334C399.704 221.666 398.169 221.147 396.454 220.999C394.776 220.854 393.2 221.161 391.647 221.463C391.241 221.541 390.837 221.62 390.433 221.69C386.616 222.353 383.044 223.263 379.687 225.413C378.487 226.181 377.488 227.142 376.532 228.091C376.442 228.181 376.353 228.27 376.263 228.359C375.396 229.223 374.554 230.062 373.589 230.773C371.68 232.182 369.542 233.232 367.37 234.28C365.024 235.411 362.725 235.523 360.181 235.646C359.59 235.675 358.986 235.704 358.364 235.747C357.297 235.821 356.171 236.253 355.196 236.627C354.976 236.711 354.764 236.793 354.562 236.866C353.773 237.154 353.004 237.48 352.246 237.805C352.192 237.828 352.138 237.851 352.084 237.874C351.378 238.176 350.682 238.475 349.973 238.744C349.001 239.114 348.037 239.502 347.076 239.888C346.735 240.025 346.394 240.162 346.054 240.298C345.912 240.355 345.78 240.412 345.655 240.473C347.467 239.066 349.531 237.727 351.633 236.91C351.957 236.784 352.3 236.699 352.669 236.613C352.712 236.603 352.755 236.593 352.799 236.583C353.123 236.508 353.468 236.429 353.805 236.319C355.201 235.863 356.587 235.369 357.966 234.877C358.418 234.716 358.869 234.556 359.32 234.397C362.566 233.25 365.886 231.965 368.775 229.972C370.02 229.113 371.37 228.14 372.454 227.015C373.117 226.328 373.663 225.548 374.189 224.795C374.376 224.528 374.56 224.265 374.747 224.01C376.941 221.01 379.403 218.037 382.661 216.39C383.403 216.015 384.308 215.88 385.277 215.849C385.9 215.829 386.511 215.852 387.109 215.874C387.456 215.887 387.799 215.9 388.137 215.904C388.993 215.914 389.894 215.862 390.786 215.809C391.306 215.779 391.823 215.749 392.325 215.731C393.719 215.683 395.061 215.728 396.304 216.092C399.011 216.886 401.794 217.577 404.542 218.193C407.739 218.91 410.211 220.772 411.093 223.993C411.667 226.09 411.606 228.748 410.85 230.756C409.903 233.271 408.22 235.8 406.576 237.962ZM345.539 241.477C345.861 241.311 346.185 241.15 346.513 240.994C346.461 241.015 346.409 241.036 346.356 241.057C346.036 241.185 345.782 241.313 345.539 241.477ZM346.685 241.818C347.669 241.342 348.679 240.917 349.695 240.553C350.333 240.324 350.958 240.083 351.579 239.845C352.945 239.321 354.287 238.805 355.693 238.438C358.261 237.768 360.782 237.62 363.453 237.691C365.801 237.753 368.263 237.854 370.54 238.272C370.779 238.316 371.017 238.357 371.253 238.399C372.227 238.569 373.179 238.735 374.079 239.042C374.588 239.217 375.089 239.442 375.608 239.68C375.655 239.702 375.703 239.724 375.751 239.747C376.219 239.962 376.703 240.185 377.196 240.371C382.687 242.448 389.022 243.023 394.806 242.008C396.201 241.763 397.509 241.389 398.787 240.99C399.168 240.871 399.544 240.75 399.919 240.63C400.812 240.344 401.697 240.061 402.612 239.809C403.448 239.579 404.395 239.509 405.34 239.51C405.315 239.533 405.29 239.557 405.264 239.581C404.068 240.699 402.933 241.891 401.826 243.082C401.444 243.493 401.048 243.879 400.643 244.273C400.584 244.331 400.525 244.389 400.465 244.447C400.002 244.899 399.533 245.366 399.087 245.877C398.686 246.338 398.33 246.823 397.987 247.292L397.952 247.34C397.594 247.828 397.248 248.297 396.86 248.733C396.175 249.502 395.309 250.013 394.361 250.505C394.189 250.594 394.014 250.683 393.836 250.773C393.053 251.169 392.231 251.586 391.497 252.138C391.131 252.413 390.821 252.737 390.537 253.042C390.51 253.071 390.483 253.1 390.456 253.128C390.196 253.408 389.955 253.666 389.687 253.893C388.714 254.715 387.71 255.234 386.46 255.617C383.54 256.512 380.782 255.529 378.041 254.178C377.288 253.808 376.526 253.459 375.766 253.111C374.004 252.305 372.258 251.506 370.692 250.461C369.193 249.46 367.75 248.384 366.297 247.301C366.218 247.242 366.14 247.183 366.061 247.125C364.531 245.984 362.986 244.84 361.366 243.786C361.215 243.688 361.066 243.59 360.918 243.493C358.539 241.937 356.356 240.509 353.208 240.636C350.884 240.73 348.812 241.221 346.685 241.818Z" fill="#699D40"/>
<path d="M337.202 210.956C332.989 207.92 325.678 201.257 330.14 198.893C335.717 195.939 344.396 211.596 337.202 210.956Z" fill="black"/>
<path d="M330.216 264.865C325.907 261.967 318.384 255.544 322.768 253.037C328.246 249.904 337.427 265.272 330.216 264.865Z" fill="black"/>
<path d="M410.701 192.503C415.803 191.537 425.669 190.821 424.312 195.685C422.616 201.764 405.285 197.281 410.701 192.503Z" fill="black"/>
<path d="M381.212 184.059C381.797 189.219 381.78 199.111 377.03 197.397C371.093 195.254 376.85 178.304 381.212 184.059Z" fill="black"/>
<path d="M251.311 230.973C288.225 212.448 313.34 230.869 321.284 242.395C298.436 254.339 246.341 293.523 223.149 311.622C217.155 292.458 214.397 249.498 251.311 230.973Z" fill="#E05757"/>
<path fill-rule="evenodd" clip-rule="evenodd" d="M315.772 245.464C303.576 236.682 283.404 230.427 257.571 243.102C229.29 256.98 225.64 286.442 228.441 307.514C226.548 308.976 224.777 310.351 223.149 311.622C217.155 292.458 214.397 249.498 251.311 230.973C288.225 212.448 313.34 230.869 321.284 242.395C319.598 243.276 317.753 244.305 315.772 245.464Z" fill="#4A9767"/>
<path fill-rule="evenodd" clip-rule="evenodd" d="M320.11 243.018C318.752 243.75 317.303 244.569 315.772 245.464C303.575 236.682 283.404 230.427 257.571 243.103C229.29 256.98 225.64 286.442 228.441 307.515C227.347 308.359 226.293 309.175 225.285 309.959C221.298 288.626 223.316 253.884 255.511 237.727C286.276 222.287 308.846 232.511 320.11 243.018Z" fill="#3FBD6F"/>
<path d="M291.099 243.22C294.688 243.599 301.396 245.098 299.52 248.062C297.174 251.768 286.538 245.315 291.099 243.22Z" fill="black"/>
<path d="M281.018 251.956C282.071 255.408 283.312 262.168 279.85 261.599C275.522 260.887 277.308 248.576 281.018 251.956Z" fill="black"/>
<path d="M239.398 279.877C240.452 283.329 241.693 290.089 238.231 289.52C233.903 288.808 235.689 276.497 239.398 279.877Z" fill="black"/>
<path d="M257.391 258.057C258.541 254.636 261.461 248.413 263.947 250.889C267.055 253.984 258.445 262.964 257.391 258.057Z" fill="black"/>
<path d="M261.995 272.901C258.921 274.792 252.692 277.7 252.369 274.206C251.965 269.839 264.328 268.458 261.995 272.901Z" fill="black"/>
<path d="M179.008 197.181C189.763 206.873 200.548 194.091 213.186 191.656C228.557 190.599 233.739 194.063 249.74 181.606C271.616 164.575 252.225 119.274 219.961 129.404C198.763 136.06 197.485 158.47 195.335 165.249C192.328 174.729 168.253 187.489 179.008 197.181Z" fill="#EE6B4E"/>
<path d="M184.971 192.844C193.269 200.321 203.971 188.815 213.721 186.936C225.581 186.12 234.559 185.262 246.904 175.651C263.782 162.511 248.821 127.56 223.929 135.376C207.574 140.511 201.92 162.42 200.261 167.65C197.941 174.964 176.673 185.366 184.971 192.844Z" fill="#FFEBCC"/>
<path d="M212.269 176.615C219.877 182.934 257.867 172.686 243.734 149.976C229.6 127.265 197.486 164.336 212.269 176.615Z" fill="white"/>
<path d="M225.133 161.007C222.237 163.311 216.13 167.036 214.867 163.51C213.289 159.102 223.552 157.284 225.133 161.007Z" fill="#48300B"/>
<path d="M232.193 154.255C228.738 155.578 221.792 157.289 221.651 153.546C221.475 148.867 231.809 150.228 232.193 154.255Z" fill="#48300B"/>
<path d="M229.359 160.934C227.106 163.87 223.488 170.041 227.036 171.242C231.471 172.743 233.109 162.449 229.359 160.934Z" fill="#48300B"/>
<path d="M235.987 153.756C234.724 157.234 233.135 164.21 236.88 164.285C241.561 164.379 240.019 154.07 235.987 153.756Z" fill="#48300B"/>
<path d="M277.522 144.299C282.871 154.232 304.255 157.18 314.278 157.413C320.933 149.914 333.335 132.247 329.704 121.566C328.147 122.448 327.238 123.236 326.978 123.52C326.71 118.995 325.493 108.734 322.77 103.891C321.882 105.606 320.811 106.235 320.386 106.335C318.546 102.112 314.161 93.1035 311.343 90.8566C310.937 92.9751 310.133 94.2368 309.781 94.6029C308.081 91.3836 303.641 84.1452 299.488 80.9467C298.971 82.8075 298.312 84.0141 298.048 84.3847C295.093 79.7529 286.625 70.48 276.389 70.4427C269.446 77.9643 270.47 90.4804 271.85 95.7983C271.398 95.7395 270.066 95.3999 268.351 94.512C267.865 99.7313 270.143 107.911 271.343 111.349C270.835 111.357 269.363 111.087 267.536 109.942C267.262 113.536 270.873 122.881 272.713 127.104C272.351 127.347 271.16 127.704 269.3 127.186C270.992 132.478 277.678 140.356 280.809 143.634C280.424 143.631 279.229 143.76 277.522 144.299Z" fill="#40DE9C"/>
<path fill-rule="evenodd" clip-rule="evenodd" d="M279.537 74.2927C279.558 74.5494 279.584 74.805 279.61 75.0638C279.637 75.3319 279.665 75.6034 279.687 75.8828C279.882 78.3537 279.875 80.7715 279.534 83.247C279.275 85.1262 279.042 87.0793 279.612 88.8577C279.757 89.3106 279.97 89.7387 280.193 90.1845L280.205 90.2078C280.422 90.6411 280.648 91.0919 280.806 91.5731C281.234 92.8775 281.136 94.3729 281.049 95.6875C281.041 95.8101 281.033 95.9311 281.026 96.0503C280.99 96.6304 280.947 97.2093 280.904 97.787C280.733 100.081 280.563 102.357 280.834 104.626C280.952 105.61 281.098 106.231 281.531 107.095C282.448 108.927 283.245 110.84 283.955 112.755C284.567 114.406 285.108 116.129 285.415 117.88C285.527 118.519 285.484 119.145 285.427 119.745C285.419 119.83 285.411 119.914 285.403 119.997C285.351 120.514 285.302 121.009 285.331 121.509C285.343 121.709 285.349 121.899 285.355 122.088C285.364 122.345 285.372 122.597 285.394 122.86C285.43 123.301 285.502 123.719 285.664 124.105C286.147 125.248 287.01 126.078 287.947 126.961C288.507 127.489 289.114 128.008 289.736 128.536L289.838 128.622C290.426 129.122 291.026 129.631 291.602 130.161C292.82 131.281 293.95 132.506 294.678 133.968C294.875 134.362 295.032 134.779 295.182 135.178C295.261 135.387 295.338 135.591 295.417 135.784C295.655 136.361 295.933 136.888 296.395 137.336C296.729 137.66 297.07 137.98 297.412 138.302C298.776 139.583 300.163 140.885 301.185 142.504C301.339 142.747 301.473 143.042 301.602 143.324C301.643 143.415 301.684 143.504 301.725 143.59C301.899 143.961 302.077 144.281 302.304 144.495C302.476 144.657 302.748 144.784 303.07 144.894C303.228 144.948 303.39 144.996 303.549 145.042C303.567 145.047 303.585 145.052 303.603 145.058C303.742 145.098 303.879 145.137 304.001 145.178C304.549 145.359 304.844 145.62 305.225 145.978C305.391 146.135 305.525 146.348 305.635 146.551C305.715 146.701 305.789 146.859 305.854 146.998C305.877 147.048 305.899 147.095 305.92 147.138C306.238 147.801 306.717 148.486 307.238 149.002C307.536 149.297 307.827 149.595 308.116 149.893C308.937 150.734 309.747 151.565 310.664 152.268C311.068 152.577 311.375 152.931 311.653 153.292C311.773 153.448 311.882 153.599 311.991 153.748C312.143 153.958 312.294 154.165 312.468 154.38C312.583 154.523 312.692 154.608 312.804 154.675C312.993 154.737 313.182 154.801 313.37 154.867C313.385 154.857 313.401 154.849 313.418 154.843C313.463 154.826 313.506 154.808 313.55 154.787C313.677 154.012 313.402 153.048 313.024 152.346C312.637 151.626 312.183 150.937 311.711 150.25C311.584 150.064 311.454 149.878 311.324 149.691C310.977 149.191 310.628 148.688 310.299 148.176C309.549 147.005 309.206 145.711 308.869 144.436C308.842 144.337 308.816 144.239 308.79 144.14C308.577 143.342 308.199 142.561 307.808 141.754C307.709 141.548 307.608 141.34 307.51 141.13C307.031 140.112 306.597 139.043 306.578 137.912C306.557 136.579 306.911 135.288 307.277 134.029C307.302 133.946 307.326 133.863 307.35 133.779C307.696 132.598 308.033 131.444 308.101 130.264C308.225 128.118 307.877 125.855 307.413 123.739C307.065 122.149 306.537 120.487 305.582 119.203C305.199 118.689 304.799 118.191 304.395 117.69C304.32 117.596 304.245 117.502 304.169 117.409C303.691 116.813 303.214 116.208 302.772 115.57C301.227 113.34 300.276 110.89 299.47 108.4C299.213 107.605 298.971 106.808 298.729 106.012C298.211 104.306 297.695 102.607 297.035 100.95C296.846 100.475 296.677 99.9819 296.51 99.4954C296.412 99.2113 296.316 98.9294 296.216 98.6545C295.943 97.8986 295.64 97.1714 295.218 96.5045C294.514 95.3902 293.748 94.4495 292.791 93.5483C292.65 93.4152 292.505 93.2819 292.358 93.147C291.447 92.3095 290.475 91.4164 289.995 90.1843C289.842 89.7943 289.718 89.4022 289.598 89.0206C289.558 88.8962 289.519 88.7729 289.48 88.6512C289.317 88.1512 289.144 87.6673 288.894 87.1943C287.421 84.4003 285.445 82.0143 283.442 79.5963C282.683 78.6794 281.919 77.758 281.178 76.8079C280.919 76.4759 280.697 76.1195 280.487 75.7657C280.426 75.6623 280.366 75.5598 280.306 75.458C280.16 75.2073 280.016 74.9614 279.862 74.7209C279.826 74.6646 279.75 74.5652 279.658 74.4473C279.641 74.4256 279.624 74.4034 279.606 74.381C279.583 74.3516 279.56 74.322 279.537 74.2927ZM313.903 155.239C313.93 155.19 313.95 155.139 313.963 155.09C314.244 154.91 314.486 154.663 314.694 154.396C314.993 154.012 315.237 153.567 315.435 153.163C315.596 152.837 315.765 152.514 315.936 152.188C316.42 151.263 316.913 150.322 317.231 149.263C317.396 148.716 317.593 148.068 317.848 147.452C318.103 146.833 318.409 146.266 318.781 145.87C319.127 145.504 319.434 145.107 319.732 144.715C319.766 144.67 319.801 144.624 319.835 144.579C320.098 144.232 320.356 143.892 320.635 143.572C320.781 143.403 320.93 143.235 321.081 143.065C321.681 142.388 322.299 141.692 322.8 140.918C322.939 140.701 323.091 140.484 323.247 140.26L323.263 140.237C323.413 140.021 323.567 139.8 323.715 139.575C324.02 139.109 324.305 138.613 324.482 138.081C324.763 137.24 325.099 136.405 325.45 135.585C325.678 135.052 325.929 134.45 325.991 133.861C326.055 133.256 325.919 132.651 325.375 132.138C325.169 131.944 324.921 131.833 324.672 131.759C324.455 131.695 324.222 131.655 324.005 131.618C323.976 131.613 323.948 131.608 323.92 131.603C323.413 131.516 323.013 131.422 322.758 131.114C322.626 130.954 322.601 130.687 322.653 130.33C322.678 130.159 322.718 129.984 322.759 129.813C322.765 129.789 322.771 129.765 322.776 129.74C322.811 129.598 322.845 129.457 322.865 129.335C323.175 127.507 323.478 125.665 323.593 123.798C323.611 123.5 323.635 123.194 323.66 122.882C323.754 121.677 323.855 120.394 323.658 119.196C323.586 118.762 323.394 118.344 323.046 118.035C321.606 116.754 320.354 115.588 319.45 113.86C318.878 112.765 318.534 111.676 318.202 110.469C318.132 110.213 318.078 109.96 318.023 109.698C317.986 109.525 317.948 109.349 317.905 109.166C317.799 108.72 317.663 108.265 317.427 107.846C316.917 106.944 316.109 106.392 315.286 105.902C314.906 105.676 314.462 105.506 314.04 105.343C313.966 105.315 313.892 105.286 313.82 105.258C313.322 105.064 312.871 104.868 312.532 104.588C311.679 103.883 310.958 103.014 310.277 102.089C309.977 101.682 309.687 101.268 309.396 100.852C309.356 100.795 309.316 100.737 309.276 100.68C308.945 100.208 308.613 99.7376 308.268 99.2858C307.061 97.7035 305.473 96.343 303.72 95.4093C301.59 94.2749 300.325 92.9017 299.102 90.8092C297.674 88.3669 295.816 86.4591 293.276 85.1764C292.285 84.6756 291.383 83.9351 290.508 83.1228C290.162 82.8013 289.816 82.4643 289.47 82.1278C288.955 81.6266 288.441 81.1262 287.929 80.6789C287.239 80.0767 286.546 79.4858 285.854 78.8958C284.881 78.0669 283.911 77.24 282.957 76.3867C282.493 75.972 282.008 75.5857 281.529 75.2046L281.442 75.1359C280.934 74.7308 280.433 74.3295 279.963 73.8958C279.87 73.8102 279.798 73.7469 279.744 73.7035C279.718 73.6822 279.693 73.6627 279.669 73.6471C279.658 73.6394 279.643 73.6303 279.627 73.6221C279.614 73.6157 279.583 73.6008 279.542 73.595C279.532 73.5936 279.517 73.5922 279.498 73.593C279.495 73.5572 279.491 73.5221 279.482 73.4907C279.477 73.4698 279.463 73.4209 279.425 73.3757C279.403 73.3503 279.368 73.319 279.316 73.3012C279.262 73.2825 279.208 73.2853 279.164 73.2989C279.09 73.3219 279.048 73.3732 279.036 73.3887C279.018 73.4113 279.005 73.4344 278.996 73.4513C278.977 73.4861 278.961 73.5262 278.948 73.563C278.92 73.638 278.891 73.7308 278.867 73.8098L278.863 73.82C278.839 73.9001 278.82 73.9606 278.807 73.9938C278.498 74.8023 277.947 75.4766 277.361 76.178C277.342 76.2003 277.323 76.2227 277.304 76.2451C276.743 76.9157 276.156 77.6171 275.804 78.458C275.16 79.9934 275.169 81.736 275.227 83.3148C275.26 84.1781 275.372 85.0554 275.484 85.9201C275.532 86.2957 275.58 86.6689 275.621 87.0375C275.757 88.2669 275.819 89.4657 275.584 90.6275C275.39 91.5868 275.294 92.5503 275.22 93.507C275.2 93.7757 275.18 94.0432 275.161 94.3099C275.112 94.9976 275.064 95.6802 274.987 96.3637C274.984 96.3829 274.982 96.4031 274.98 96.4242C274.962 96.582 274.94 96.7879 274.902 96.9883C274.857 97.2276 274.799 97.4086 274.737 97.4926C274.536 97.7636 274.511 98.1422 274.516 98.4549C274.519 98.6046 274.529 98.7553 274.539 98.8912C274.54 98.9037 274.54 98.9159 274.541 98.9281C274.552 99.0778 274.559 99.2034 274.556 99.305C274.539 99.9334 274.568 100.56 274.602 101.179C274.607 101.262 274.612 101.344 274.616 101.426C274.647 101.963 274.677 102.494 274.68 103.024C274.687 104.038 274.603 105.078 274.488 106.095C274.381 107.048 274.666 107.874 274.952 108.704C274.972 108.762 274.992 108.821 275.012 108.879C275.23 109.517 275.526 110.15 275.817 110.772C275.889 110.927 275.961 111.08 276.031 111.233C276.388 112.01 276.708 112.775 276.86 113.557C277.021 114.384 276.975 115.121 276.894 115.993C276.618 118.992 277.182 121.6 278.261 124.417C279.489 127.625 280.775 130.891 282.393 133.941C282.7 134.519 283.04 135.08 283.383 135.632C283.449 135.738 283.515 135.844 283.581 135.95C283.858 136.395 284.133 136.837 284.393 137.286C284.422 137.336 284.451 137.386 284.481 137.437C284.785 137.961 285.125 138.546 285.382 139.153C285.665 139.82 285.835 140.485 285.76 141.094C285.707 141.526 285.683 141.853 285.748 142.176C285.814 142.501 285.967 142.8 286.222 143.19C287.552 145.22 289.497 146.813 291.328 148.295C291.43 148.378 291.541 148.472 291.659 148.57C291.893 148.768 292.151 148.986 292.413 149.179C292.81 149.47 293.257 149.736 293.729 149.83C294.329 149.95 294.928 150.072 295.528 150.195C295.763 150.244 295.998 150.292 296.233 150.34C297.249 150.547 298.248 150.871 299.251 151.22C299.48 151.299 299.71 151.38 299.94 151.462C300.713 151.735 301.493 152.01 302.277 152.24C302.913 152.427 303.548 152.623 304.185 152.819C305.808 153.319 307.438 153.822 309.113 154.182C310.299 154.437 311.467 154.734 312.612 155.106C312.642 155.122 312.671 155.137 312.7 155.152C312.754 155.18 312.804 155.204 312.852 155.226C312.975 155.284 313.08 155.335 313.2 155.422C313.279 155.48 313.371 155.517 313.47 155.519C313.559 155.521 313.638 155.494 313.703 155.455C313.785 155.443 313.858 155.387 313.889 155.304C313.897 155.283 313.902 155.26 313.903 155.239ZM311.883 154.391C311.785 154.262 311.69 154.131 311.597 154.004C311.489 153.855 311.384 153.711 311.282 153.578C311.016 153.231 310.737 152.914 310.379 152.64C309.432 151.915 308.588 151.048 307.761 150.199C307.476 149.907 307.193 149.617 306.908 149.335C306.348 148.779 305.837 148.05 305.497 147.34C305.473 147.29 305.449 147.238 305.425 147.186C305.361 147.05 305.296 146.91 305.222 146.773C305.12 146.583 305.014 146.424 304.903 146.319C304.533 145.97 304.3 145.77 303.855 145.622C303.741 145.585 303.614 145.548 303.473 145.508L303.419 145.492C303.259 145.446 303.088 145.395 302.918 145.337C302.586 145.224 302.232 145.071 301.983 144.836C301.685 144.556 301.477 144.163 301.301 143.79C301.253 143.689 301.208 143.59 301.164 143.494C301.039 143.22 300.924 142.968 300.789 142.754C299.802 141.191 298.471 139.94 297.112 138.663C296.764 138.337 296.415 138.008 296.069 137.673C295.54 137.159 295.232 136.564 294.984 135.962C294.893 135.74 294.811 135.523 294.73 135.308C294.587 134.926 294.446 134.553 294.259 134.177C293.569 132.792 292.488 131.612 291.285 130.506C290.716 129.982 290.123 129.479 289.533 128.978L289.433 128.893C288.812 128.365 288.196 127.84 287.626 127.302C286.698 126.428 285.76 125.535 285.233 124.287C285.043 123.836 284.965 123.363 284.927 122.899C284.905 122.633 284.895 122.351 284.886 122.079C284.88 121.891 284.874 121.707 284.864 121.536C284.832 120.996 284.886 120.46 284.937 119.946C284.945 119.864 284.953 119.782 284.961 119.701C285.018 119.104 285.054 118.533 284.953 117.961C284.653 116.248 284.123 114.556 283.515 112.918C282.81 111.014 282.019 109.118 281.112 107.305C280.649 106.379 280.491 105.703 280.369 104.681C280.092 102.363 280.266 100.029 280.438 97.7308C280.48 97.1585 280.523 96.5883 280.558 96.0212C280.566 95.9046 280.573 95.7874 280.581 95.6695C280.668 94.336 280.759 92.9323 280.361 91.7193C280.214 91.2711 280.001 90.8467 279.779 90.4037L279.775 90.3943C279.554 89.9533 279.324 89.4935 279.166 89.0006C278.559 87.1057 278.813 85.0481 279.07 83.1831C279.406 80.7484 279.413 78.3654 279.22 75.9197C279.199 75.6627 279.173 75.4011 279.146 75.1369C279.126 74.9347 279.105 74.7309 279.087 74.5265C278.735 75.2575 278.219 75.8818 277.72 76.4785L277.682 76.524C277.107 77.2114 276.561 77.8646 276.236 78.6391C275.637 80.0682 275.637 81.7137 275.696 83.2973C275.727 84.1388 275.835 84.9812 275.945 85.8356C275.994 86.2162 276.044 86.5993 276.086 86.9858C276.224 88.2273 276.293 89.4851 276.043 90.7204C275.855 91.6509 275.761 92.5914 275.687 93.5432C275.667 93.8056 275.648 94.0694 275.629 94.334C275.58 95.0252 275.53 95.7224 275.452 96.4161C275.45 96.4343 275.448 96.4539 275.446 96.4746C275.428 96.6312 275.404 96.8556 275.362 97.0748C275.318 97.3109 275.247 97.5917 275.113 97.7718C275.015 97.9043 274.979 98.1354 274.984 98.4466C274.987 98.5835 274.997 98.7224 275.006 98.8604C275.007 98.8722 275.008 98.884 275.009 98.8957C275.019 99.041 275.028 99.1898 275.025 99.3182C275.008 99.9253 275.036 100.535 275.07 101.153C275.075 101.235 275.079 101.317 275.084 101.399C275.114 101.935 275.145 102.478 275.149 103.021C275.156 104.061 275.07 105.122 274.954 106.148C274.859 106.991 275.11 107.723 275.402 108.574C275.42 108.625 275.437 108.676 275.455 108.728C275.664 109.339 275.947 109.943 276.236 110.563C276.309 110.72 276.383 110.878 276.457 111.038C276.815 111.818 277.156 112.626 277.32 113.467C277.495 114.365 277.442 115.16 277.361 116.036C277.093 118.942 277.636 121.476 278.698 124.25C279.927 127.458 281.204 130.7 282.807 133.721C283.106 134.285 283.439 134.834 283.781 135.385C283.846 135.49 283.911 135.595 283.977 135.7C284.254 136.146 284.534 136.595 284.798 137.051C284.827 137.101 284.857 137.152 284.887 137.204C285.189 137.724 285.544 138.334 285.813 138.97C286.109 139.667 286.315 140.423 286.225 141.151C286.172 141.582 286.158 141.842 286.207 142.082C286.255 142.32 286.369 142.559 286.614 142.933C287.898 144.892 289.783 146.442 291.622 147.931C291.74 148.026 291.859 148.126 291.98 148.228C292.206 148.419 292.44 148.617 292.69 148.801C293.071 149.08 293.45 149.296 293.82 149.37C294.422 149.491 295.023 149.614 295.623 149.737C295.858 149.785 296.092 149.833 296.327 149.881C297.375 150.095 298.398 150.427 299.405 150.777C299.639 150.858 299.872 150.941 300.104 151.023C300.875 151.295 301.638 151.564 302.409 151.791C303.059 151.981 303.702 152.18 304.342 152.377C305.958 152.875 307.558 153.369 309.211 153.724C310.11 153.917 311.002 154.135 311.883 154.391ZM280.631 75.0856C280.659 75.1339 280.688 75.182 280.716 75.23C280.774 75.3299 280.832 75.429 280.89 75.5266C281.097 75.8761 281.308 76.2118 281.548 76.5198C282.27 77.4459 283.022 78.3533 283.775 79.2624C285.788 81.6934 287.811 84.1356 289.309 86.9758C289.577 87.485 289.761 87.9995 289.925 88.5066C289.967 88.6354 290.008 88.7632 290.048 88.8903C290.167 89.2682 290.285 89.6396 290.431 90.014C290.869 91.1366 291.75 91.9481 292.665 92.7913C292.814 92.9287 292.964 93.0669 293.113 93.2074C294.099 94.1368 294.89 95.1083 295.614 96.2542C296.063 96.9637 296.379 97.7282 296.657 98.495C296.762 98.7866 296.861 99.0754 296.959 99.3619C297.123 99.8388 297.284 100.309 297.47 100.777C298.138 102.452 298.663 104.183 299.185 105.9C299.425 106.691 299.664 107.478 299.916 108.256C300.717 110.732 301.651 113.13 303.157 115.303C303.589 115.927 304.058 116.521 304.535 117.115C304.609 117.208 304.684 117.301 304.759 117.394C305.162 117.895 305.569 118.401 305.958 118.923C306.973 120.289 307.519 122.03 307.871 123.639C308.338 125.77 308.696 128.082 308.569 130.291C308.498 131.527 308.146 132.73 307.803 133.9C307.778 133.987 307.752 134.074 307.727 134.16C307.359 135.423 307.026 136.652 307.047 137.905C307.063 138.928 307.457 139.917 307.934 140.931C308.027 141.129 308.123 141.329 308.221 141.529C308.614 142.341 309.017 143.174 309.243 144.019C309.268 144.114 309.293 144.208 309.318 144.302C309.66 145.591 309.985 146.817 310.694 147.923C311.017 148.427 311.359 148.92 311.705 149.417C311.835 149.605 311.967 149.794 312.098 149.985C312.572 150.675 313.037 151.381 313.437 152.124C313.774 152.751 314.059 153.613 314.049 154.42C314.144 154.326 314.236 154.222 314.325 154.108C314.595 153.762 314.822 153.35 315.015 152.956C315.187 152.608 315.363 152.27 315.538 151.937C316.015 151.025 316.478 150.141 316.783 149.128C316.947 148.582 317.15 147.913 317.415 147.273C317.678 146.635 318.01 146.006 318.441 145.549C318.767 145.203 319.061 144.823 319.359 144.432C319.393 144.387 319.427 144.342 319.462 144.296C319.724 143.95 319.991 143.597 320.281 143.264C320.434 143.088 320.588 142.914 320.742 142.741C321.34 142.067 321.927 141.405 322.406 140.663C322.551 140.439 322.707 140.215 322.863 139.992L322.878 139.97C323.029 139.753 323.18 139.537 323.323 139.318C323.62 138.864 323.879 138.408 324.038 137.933C324.324 137.074 324.666 136.226 325.02 135.401C325.252 134.857 325.472 134.32 325.525 133.812C325.577 133.321 325.471 132.872 325.053 132.479C324.92 132.353 324.749 132.27 324.539 132.208C324.35 132.152 324.147 132.117 323.926 132.08C323.898 132.075 323.869 132.07 323.84 132.065C323.356 131.982 322.777 131.872 322.397 131.413C322.127 131.085 322.135 130.633 322.19 130.262C322.218 130.068 322.262 129.876 322.303 129.704C322.31 129.678 322.316 129.652 322.322 129.627C322.356 129.484 322.386 129.361 322.403 129.257C322.713 127.427 323.012 125.608 323.125 123.769C323.145 123.453 323.17 123.134 323.195 122.815C323.288 121.617 323.383 120.408 323.195 119.272C323.138 118.923 322.987 118.61 322.734 118.385C321.295 117.104 319.983 115.889 319.035 114.077C318.439 112.937 318.084 111.808 317.75 110.593C317.678 110.329 317.618 110.046 317.559 109.77C317.523 109.6 317.487 109.433 317.449 109.274C317.347 108.842 317.223 108.438 317.019 108.077C316.574 107.289 315.861 106.79 315.046 106.305C314.704 106.101 314.303 105.947 313.879 105.783C313.803 105.754 313.727 105.725 313.65 105.695C313.154 105.501 312.638 105.283 312.234 104.949C311.337 104.208 310.59 103.303 309.9 102.367C309.596 101.955 309.303 101.536 309.012 101.121C308.972 101.063 308.932 101.006 308.892 100.949C308.561 100.477 308.234 100.013 307.896 99.5699C306.729 98.0401 305.192 96.7242 303.5 95.8227C301.279 94.6396 299.955 93.197 298.698 91.0457C297.308 88.6688 295.512 86.8306 293.065 85.5945C292.014 85.0637 291.074 84.2871 290.19 83.4661C289.824 83.1268 289.472 82.784 289.126 82.4463C288.622 81.9553 288.129 81.4751 287.621 81.0318C286.942 80.4386 286.251 79.8499 285.559 79.26C284.58 78.4262 283.599 77.5901 282.645 76.7359C282.191 76.3305 281.716 75.952 281.234 75.5688C281.206 75.5467 281.178 75.5246 281.151 75.5024C280.978 75.3646 280.804 75.2261 280.631 75.0856ZM279.717 73.7459C279.717 73.746 279.718 73.7473 279.719 73.7498C279.718 73.7471 279.717 73.7459 279.717 73.7459Z" fill="#656F08"/>
<path d="M147.412 208.879L151.551 207.772C153.293 205.791 148.38 199.966 148.284 197.179C148.187 194.392 147.067 191.014 145.236 190.638C143.404 190.263 139.892 192.501 141.004 193.826C142.116 195.151 142.553 193.953 145.154 198.016C147.756 202.08 145.998 209.257 147.412 208.879Z" fill="#909E00"/>
<path d="M144.537 311.696C104.18 309.259 107.794 260.082 131.727 238.75C139.451 231.865 135.888 210.862 143.588 205.467C144.956 204.508 147.108 205.639 149.282 205.711C151.292 205.777 152.422 204.491 153.672 205.115C161.381 208.958 157.29 224.302 167.821 238.612C192.21 263.458 187.707 314.302 144.537 311.696Z" fill="#EE6B4E"/>
</svg>
