<svg width="40" height="40" viewBox="0 0 40 40" fill="none" xmlns="http://www.w3.org/2000/svg">
<g id="Icon / Message">
<path id="Vector" d="M31.783 8.21662C29.0484 5.46412 25.4391 3.75198 21.5774 3.37536C17.7157 2.99874 13.8436 3.98125 10.6287 6.15351C7.41375 8.32576 5.05743 11.5516 3.96598 15.275C2.87453 18.9983 3.11633 22.9858 4.64971 26.55C4.80953 26.8812 4.86196 27.2541 4.79971 27.6166L3.33304 34.6666C3.27654 34.9369 3.28807 35.217 3.36662 35.4818C3.44517 35.7465 3.58826 35.9875 3.78304 36.1833C3.94272 36.3418 4.13283 36.4663 4.34193 36.5494C4.55103 36.6325 4.77479 36.6724 4.99971 36.6666H5.33304L12.4664 35.2333C12.8289 35.1897 13.1966 35.2414 13.533 35.3833C17.0972 36.9167 21.0847 37.1585 24.808 36.067C28.5314 34.9756 31.7572 32.6192 33.9295 29.4043C36.1017 26.1894 37.0843 22.3173 36.7076 18.4556C36.331 14.5939 34.6189 10.9846 31.8664 8.24996L31.783 8.21662ZM13.333 21.6666C13.0034 21.6666 12.6812 21.5689 12.4071 21.3857C12.133 21.2026 11.9194 20.9423 11.7932 20.6378C11.6671 20.3332 11.6341 19.9981 11.6984 19.6748C11.7627 19.3515 11.9214 19.0545 12.1545 18.8214C12.3876 18.5884 12.6846 18.4296 13.0079 18.3653C13.3312 18.301 13.6663 18.334 13.9708 18.4602C14.2754 18.5863 14.5357 18.7999 14.7188 19.074C14.902 19.3481 14.9997 19.6703 14.9997 20C14.9997 20.442 14.8241 20.8659 14.5116 21.1785C14.199 21.491 13.7751 21.6666 13.333 21.6666ZM19.9997 21.6666C19.6701 21.6666 19.3478 21.5689 19.0738 21.3857C18.7997 21.2026 18.5861 20.9423 18.4599 20.6378C18.3338 20.3332 18.3008 19.9981 18.3651 19.6748C18.4294 19.3515 18.5881 19.0545 18.8212 18.8214C19.0543 18.5884 19.3513 18.4296 19.6746 18.3653C19.9979 18.301 20.333 18.334 20.6375 18.4602C20.9421 18.5863 21.2024 18.7999 21.3855 19.074C21.5686 19.3481 21.6664 19.6703 21.6664 20C21.6664 20.442 21.4908 20.8659 21.1782 21.1785C20.8657 21.491 20.4417 21.6666 19.9997 21.6666ZM26.6664 21.6666C26.3367 21.6666 26.0145 21.5689 25.7404 21.3857C25.4663 21.2026 25.2527 20.9423 25.1266 20.6378C25.0004 20.3332 24.9674 19.9981 25.0317 19.6748C25.096 19.3515 25.2548 19.0545 25.4879 18.8214C25.7209 18.5884 26.0179 18.4296 26.3412 18.3653C26.6645 18.301 26.9996 18.334 27.3042 18.4602C27.6087 18.5863 27.869 18.7999 28.0522 19.074C28.2353 19.3481 28.333 19.6703 28.333 20C28.333 20.442 28.1574 20.8659 27.8449 21.1785C27.5323 21.491 27.1084 21.6666 26.6664 21.6666Z" fill="url(#paint0_linear_314_32154)"/>
</g>
<defs>
<linearGradient id="paint0_linear_314_32154" x1="3.29297" y1="1.24309" x2="41.9552" y2="7.24219" gradientUnits="userSpaceOnUse">
<stop stop-color="#53E88B"/>
<stop offset="1" stop-color="#15BE77"/>
</linearGradient>
</defs>
</svg>
